/* XPM */
static char * tiadatabase_xpm[] = {
"38 44 160 2",
"  	c None",
". 	c #7C7C7C",
"+ 	c #7D7D7D",
"@ 	c #7E7E7E",
"# 	c #7F7F7F",
"$ 	c #808080",
"% 	c #818181",
"& 	c #828282",
"* 	c #848484",
"= 	c #858585",
"- 	c #868686",
"; 	c #878787",
"> 	c #898989",
", 	c #8A8A8A",
"' 	c #8B8B8B",
") 	c #8D8D8D",
"! 	c #8E8E8E",
"~ 	c #8F8E8E",
"{ 	c #8F8F8F",
"] 	c #909090",
"^ 	c #919191",
"/ 	c #929292",
"( 	c #939393",
"_ 	c #949494",
": 	c #959494",
"< 	c #959595",
"[ 	c #969696",
"} 	c #979797",
"| 	c #989898",
"1 	c #999999",
"2 	c #9B9B9B",
"3 	c #9C9C9C",
"4 	c #9E9D9D",
"5 	c #9E9E9E",
"6 	c #9F9E9E",
"7 	c #9F9F9F",
"8 	c #A09F9F",
"9 	c #A0A0A0",
"0 	c #A1A0A0",
"a 	c #A1A1A1",
"b 	c #A2A1A1",
"c 	c #A2A2A2",
"d 	c #A3A2A2",
"e 	c #A3A3A3",
"f 	c #A4A3A3",
"g 	c #A4A4A4",
"h 	c #A5A4A4",
"i 	c #A5A5A5",
"j 	c #A6A6A6",
"k 	c #A7A6A6",
"l 	c #A7A7A7",
"m 	c #A8A7A7",
"n 	c #A8A8A8",
"o 	c #A9A9A9",
"p 	c #AAA9A9",
"q 	c #AAAAAA",
"r 	c #ABAAAA",
"s 	c #ABABAB",
"t 	c #ACABAB",
"u 	c #ACACAC",
"v 	c #ADACAC",
"w 	c #ADADAD",
"x 	c #AEAEAE",
"y 	c #AFAEAE",
"z 	c #AFAFAF",
"A 	c #B0B0B0",
"B 	c #B1B0B0",
"C 	c #B1B1B1",
"D 	c #B2B1B1",
"E 	c #B2B2B2",
"F 	c #B3B3B3",
"G 	c #B4B3B3",
"H 	c #B4B4B4",
"I 	c #B5B4B4",
"J 	c #B5B5B5",
"K 	c #B6B6B6",
"L 	c #B7B6B6",
"M 	c #B7B7B7",
"N 	c #B8B8B8",
"O 	c #B9B8B8",
"P 	c #B9B9B9",
"Q 	c #BAB9B9",
"R 	c #BABABA",
"S 	c #BBBABA",
"T 	c #BBBBBB",
"U 	c #BCBBBB",
"V 	c #BCBCBC",
"W 	c #BDBCBC",
"X 	c #BDBDBD",
"Y 	c #BEBDBD",
"Z 	c #BEBEBE",
"` 	c #BFBEBE",
" .	c #BFBFBF",
"..	c #C0BFBF",
"+.	c #C0C0C0",
"@.	c #C1C0C0",
"#.	c #C1C1C1",
"$.	c #C2C1C1",
"%.	c #C2C2C2",
"&.	c #C3C2C2",
"*.	c #C3C3C3",
"=.	c #C4C3C3",
"-.	c #C4C4C4",
";.	c #C5C5C5",
">.	c #C6C6C6",
",.	c #C7C6C6",
"'.	c #C7C7C7",
").	c #C8C7C7",
"!.	c #C8C8C8",
"~.	c #C9C8C8",
"{.	c #C9C9C9",
"].	c #CAC9C9",
"^.	c #CACACA",
"/.	c #CBCACA",
"(.	c #CCCACA",
"_.	c #CBCBCB",
":.	c #CCCCCC",
"<.	c #CDCDCD",
"[.	c #CECECE",
"}.	c #CFCECE",
"|.	c #CFCFCF",
"1.	c #D0D0D0",
"2.	c #D1D0D0",
"3.	c #D1D1D1",
"4.	c #D2D2D2",
"5.	c #D3D3D3",
"6.	c #D4D3D3",
"7.	c #D4D4D4",
"8.	c #D5D5D5",
"9.	c #D6D6D6",
"0.	c #D7D6D6",
"a.	c #D7D7D7",
"b.	c #D8D8D8",
"c.	c #D9D9D9",
"d.	c #DADADA",
"e.	c #DBDBDB",
"f.	c #DCDCDC",
"g.	c #DDDDDD",
"h.	c #DEDEDE",
"i.	c #DFDFDF",
"j.	c #E0E0E0",
"k.	c #E1E1E1",
"l.	c #E2E2E2",
"m.	c #E3E3E3",
"n.	c #E4E4E4",
"o.	c #E5E5E5",
"p.	c #E6E6E6",
"q.	c #E8E8E8",
"r.	c #E9E9E9",
"s.	c #EAEAEA",
"t.	c #EBEBEB",
"u.	c #ECECEC",
"v.	c #EDEDED",
"w.	c #EEEEEE",
"x.	c #EFEFEF",
"y.	c #F0F0F0",
"z.	c #F1F1F1",
"A.	c #F2F2F2",
"B.	c #F3F3F3",
"C.	c #F4F4F4",
"                    }.(.{.>.>.'.'.,.>.*.$.$.%.$.=.>.].}.                    ",
"          !.>.).~.1.8.e.i.m.n.p.p.q.q.p.n.k.h.e.8.<.>.Z N P V &._.          ",
"      &.1.d.n.s.w.y.z.B.C.C.C.C.C.C.C.C.C.C.A.y.y.x.x.x.v.q.c.{.U O R       ",
"  X 5.m.u.z.C.C.C.C.C.C.C.C.C.C.C.C.C.C.C.w.s.s.s.s.s.s.t.u.v.u.u.m.` G U   ",
"S d.n.s.t.x.z.A.C.C.C.C.C.C.C.C.C.C.C.C.C.y.s.s.s.s.s.s.s.s.s.s.s.s.s.a.E R ",
"%.f.h.j.o.s.s.s.s.t.u.u.v.v.w.x.x.y.z.A.A.x.s.s.s.s.s.s.s.s.s.s.s.m.@.b k U ",
";.g.h.g.f.g.j.m.p.r.s.s.s.s.s.s.s.s.s.s.s.s.s.s.s.s.s.n.g.8.:. .A i d b A S ",
",.f.l.k.h.f.e.e.d.b.c.b.b.a.a.a.a.a.a.9.7.1.[._.'.+.P K H C x s n F ].6.C N ",
"'.f.h.i.l.n.l.k.h.e.a.8.7.4.3.|.[.:.^.!.>.*.#. .X R N M V -.<.a.l.9.Q 0 l H ",
"!.g.h.g.f.g.i.k.m.o.o.m.j.h.g.f.e.c.a.8.8.8.9.a.b.c.f.m.o.h.|. .x i d 8 j C ",
"..[.g.g.f.f.e.e.d.c.e.g.j.k.l.m.n.o.o.o.o.o.l.i.f.b.7.!.R C x s n i b 4 0 p ",
"%.8.{.'.,.:.c.e.d.b.a.8.7.4.3.|.[.:._._.!.*.#. .X R N K H C w k e a 0 8 m C ",
"Y 7.h.g.f.0.!.>.;.!.7.8.7.4.3.|.[.:.^.!.>.*.#. .X N F x t o n q n i d 8 F z ",
"A ^.9.g.f.f.e.e.d.7.>.%.$.+...Z Y V T Q N K I F E D H J H C x s n i f E W s ",
"  J :.:.b.f.e.e.d.b.a.8.7.4.3.|.[.:.^.!.>.*.#. .X R N K H C x s n w  .N r   ",
"    s J '.^.[.7.a.b.a.8.7.4.3.|.[.:.^.!.>.*.#. .X R N K J J M X %.N g p     ",
"  H j $ * < s P ;.!.{._.:.<.<.:.:._.{.!.>.-.*.%.#.#.%.*.#.R z 5 ) = # : w   ",
"C d.7.5 . . . + = ] | 9 o w A E J P V T M E z s n a | ^ , % + . . + ~ 4 f   ",
"X f.h.g.>.9 - . . . . . . . . . + # $ @ + . . . . . . . . . . & ) 9 d 8 k x ",
"+.g.h.g.f.f.e.:.K l 1 ' # . . . . . . . . . . . . # ; ! < 5 n s n i d h F B ",
"+.f.l.l.i.f.e.e.d.b.a.8.7.{.*.X N F x w z C E F N R N K H C x s w T 3.2.x B ",
"%.f.h.h.k.o.n.l.j.f.c.8.7.4.3.|.[.:.^.!.>.*.#. .X R N T %.^.7.h.m.1.D 8 k v ",
"+.g.h.g.f.f.h.j.l.n.o.n.l.k.j.h.g.e.d.b.b.b.d.e.g.i.l.o.n.c.^.R q i d 8 h i ",
"M '.!.3.f.f.e.e.d.b.d.f.i.i.j.k.k.l.m.o.n.k.h.e.b.7.|.*.K C x s l c 8 4 b k ",
"T f.h.5.,.,.>.[.c.b.a.8.7.4.3.|.[.:.^.!.>.*.#. .X R N K H u l i g g d 8 o j ",
"E 5.h.g.f.f.e.5.>.=.*.%.%.-.).^.<.:.^.!.>.+.R H E A y w u z x s n i d 8 H 7 ",
"3 ^.7.g.f.f.e.e.d.b.a.8.7.[.{.=. .V T Q N P V Z X R N K H C x s n i h L P   ",
"  c {.^.9.f.e.e.d.b.a.8.7.4.3.|.[.:.^.!.>.*.#. .X R N K H C x s q C ..A 1   ",
"    j x %.{.:.4.8.9.a.8.7.4.3.|.[.:.^.!.>.*.#. .X R N K M N R +. .E 7 c     ",
"  M l @ % { g F  .>.'.!._.:.:._._.^.{.'.>.-.*.%.%.%.*.%.X H n [ , & @ ( u   ",
"F f.9.a . . . . # , _ 1 9 i n s x C H H A u o i a 1 / ) = @ . . . @ ] 6 e u ",
"X f.h.g.!.e > . . . . . . . . . . + + . . . . . . . . . . . . = ] a d 8 l A ",
"+.g.i.g.f.f.e.|.P q 3 ! % . . . . . . . . . . . . & , / 1 c s s n i d p J C ",
"#.f.k.m.j.g.e.e.d.b.a.8.7.:.>.#.X N F E F H J K R R N K H C x u E #.a./.s A ",
"%.f.h.h.j.n.o.m.k.g.d.9.7.4.3.|.[.:.^.!.>.*.#. .X R P  .'.|.c.m.i.^.t 8 k s ",
"L 9.h.g.f.f.f.i.k.m.o.o.n.l.l.j.i.h.f.e.e.e.g.i.k.m.o.o.k.5.-.H n i b 4 b g ",
"V |.!.'.).7.e.e.d.b.b.d.g.g.h.h.i.j.k.l.k.h.e.a.5.|.^.Z H C w k e a 0 8 f l ",
"R e.h.g.e.|.>.>.>.|.a.8.7.4.3.|.[.:.^.!.>.*.#. .X P H y s o n q n i d 8 r l ",
"A 4.h.g.f.f.e.e.d.<.-.%.$.+...Z Y V T R N K I F E C F H H C x s n i d 8 J 7 ",
"2 ^.3.f.f.f.e.e.d.b.a.8.7.4.3.|.[.:.^.!.>.*.#. .X R N K H C x s n i k S M   ",
"  5 ;.{.5.d.e.e.d.b.a.8.7.4.3.|.[.:.^.!.>.*.#. .X R N K H C x s w J +.t }   ",
"      l +.{.^.|.5.7.9.8.7.4.3.|.[.:.^.!.>.*.#. .X R N N P R V #.X A 1       ",
"            j C T -.>.'.!.^._.^.^.{.!.'.>.;.-.*.*.%.%. .N C l 1             ",
"                      j j l o q u w C E z s n j e 3 3                       "};
