/* XPM */
static char * tianotes_xpm[] = {
"44 44 256 2",
"  	c None",
". 	c #000100",
"+ 	c #070A06",
"@ 	c #0E100D",
"# 	c #121411",
"$ 	c #15140C",
"% 	c #141513",
"& 	c #1A1912",
"* 	c #1D1D16",
"= 	c #1F201E",
"- 	c #21201A",
"; 	c #24241D",
"> 	c #262419",
", 	c #232522",
"' 	c #282721",
") 	c #2B291E",
"! 	c #292B28",
"~ 	c #2C2B25",
"{ 	c #2F2D21",
"] 	c #33301F",
"^ 	c #31312A",
"/ 	c #343126",
"( 	c #303230",
"_ 	c #363428",
": 	c #39362B",
"< 	c #363835",
"[ 	c #393831",
"} 	c #3B3B24",
"| 	c #3D3A2E",
"1 	c #3F3A2A",
"2 	c #403D31",
"3 	c #443F29",
"4 	c #403F38",
"5 	c #45402F",
"6 	c #3F413E",
"7 	c #444236",
"8 	c #484539",
"9 	c #4B4635",
"0 	c #484947",
"a 	c #4E4A38",
"b 	c #4B4A43",
"c 	c #4F4C40",
"d 	c #514C3B",
"e 	c #55512F",
"f 	c #505048",
"g 	c #4F504E",
"h 	c #535044",
"i 	c #555235",
"j 	c #57513A",
"k 	c #56513F",
"l 	c #565347",
"m 	c #595443",
"n 	c #535552",
"o 	c #5B5735",
"p 	c #5A574A",
"q 	c #5F5A32",
"r 	c #5B5B53",
"s 	c #5D5C44",
"t 	c #5E5B4E",
"u 	c #605B49",
"v 	c #625B44",
"w 	c #6B6010",
"x 	c #645F4D",
"y 	c #5F615E",
"z 	c #64634B",
"A 	c #69624B",
"B 	c #676446",
"C 	c #696452",
"D 	c #726720",
"E 	c #67665E",
"F 	c #76691B",
"G 	c #6E674F",
"H 	c #6C6755",
"I 	c #736A36",
"J 	c #706952",
"K 	c #6B6B52",
"L 	c #6A6B57",
"M 	c #6F6A57",
"N 	c #696B68",
"O 	c #7B6E27",
"P 	c #6F6C5F",
"Q 	c #796E2E",
"R 	c #7C6F21",
"S 	c #706F56",
"T 	c #736E5B",
"U 	c #766E57",
"V 	c #7D7238",
"W 	c #80732C",
"X 	c #7C733F",
"Y 	c #70726F",
"Z 	c #77725F",
"` 	c #79725A",
" .	c #777455",
"..	c #74736B",
"+.	c #757662",
"@.	c #7A7758",
"#.	c #857831",
"$.	c #7D7765",
"%.	c #84793E",
"&.	c #807860",
"*.	c #7B7A60",
"=.	c #897C35",
"-.	c #797A78",
";.	c #897D3C",
">.	c #807D5E",
",.	c #7D7C74",
"'.	c #847D65",
").	c #897F4A",
"!.	c #867E66",
"~.	c #847E6C",
"{.	c #838060",
"].	c #827F71",
"^.	c #8E8140",
"/.	c #898258",
"(.	c #88825E",
"_.	c #91833B",
":.	c #82836E",
"<.	c #8F8448",
"[.	c #818380",
"}.	c #84837B",
"|.	c #928543",
"1.	c #878476",
"2.	c #87866C",
"3.	c #8A8767",
"4.	c #918858",
"5.	c #968947",
"6.	c #8A896F",
"7.	c #908870",
"8.	c #8F8976",
"9.	c #918C66",
"0.	c #908C6D",
"a.	c #9A8D4B",
"b.	c #8A8C89",
"c.	c #968D5D",
"d.	c #9C8E46",
"e.	c #948C73",
"f.	c #908D7F",
"g.	c #8E8D85",
"h.	c #9B8F53",
"i.	c #968E76",
"j.	c #A1924A",
"k.	c #A09250",
"l.	c #96917D",
"m.	c #969373",
"n.	c #A09457",
"o.	c #9B9468",
"p.	c #97957B",
"q.	c #9B9670",
"r.	c #A69855",
"s.	c #A5985C",
"t.	c #A19A55",
"u.	c #9A997E",
"v.	c #A19980",
"w.	c #A69C65",
"x.	c #A09C7C",
"y.	c #A19B88",
"z.	c #AB9D5A",
"A.	c #AA9D60",
"B.	c #A09E84",
"C.	c #A79F74",
"D.	c #AEA05D",
"E.	c #AFA365",
"F.	c #A8A37D",
"G.	c #AEA36C",
"H.	c #A9A48A",
"I.	c #A9A584",
"J.	c #B1A775",
"K.	c #AEAA70",
"L.	c #B2AA65",
"M.	c #B7A965",
"N.	c #B6A96B",
"O.	c #B6AA73",
"P.	c #B2AA90",
"Q.	c #ADAC90",
"R.	c #AFAC8B",
"S.	c #B3AD86",
"T.	c #B5AE81",
"U.	c #B4AE9A",
"V.	c #BDB072",
"W.	c #BAB285",
"X.	c #BEB37A",
"Y.	c #B9B38C",
"Z.	c #B7B392",
"`.	c #B6B499",
" +	c #C2B577",
".+	c #C1B784",
"++	c #C1B88C",
"@+	c #C5B980",
"#+	c #C7BA7B",
"$+	c #C0BA93",
"%+	c #C4BC8F",
"&+	c #C1BCA1",
"*+	c #C1BD9C",
"=+	c #C5BF85",
"-+	c #CABE85",
";+	c #C5BE97",
">+	c #C8C093",
",+	c #CEC082",
"'+	c #CDC088",
")+	c #CAC382",
"!+	c #CCC396",
"~+	c #CFC591",
"{+	c #C9C5A3",
"]+	c #C7C6AA",
"^+	c #CDC69F",
"/+	c #D1C89B",
"(+	c #CFCBA9",
"_+	c #D6CB98",
":+	c #CECCB0",
"<+	c #DCCD8E",
"[+	c #D4CEA6",
"}+	c #D4D0AE",
"|+	c #DAD291",
"1+	c #DAD1A3",
"2+	c #DED39F",
"3+	c #DAD3AB",
"4+	c #D9D5B3",
"5+	c #E2D59B",
"6+	c #DFD6A8",
"7+	c #E2D7A3",
"8+	c #DEDAB8",
"9+	c #E5DAA6",
"0+	c #E4DBAD",
"a+	c #E5DEB6",
"b+	c #E4E0BE",
"c+	c #EBE0AB",
"d+	c #EDE0A6",
"e+	c #E9E1B2",
"f+	c #EEE3AF",
"g+	c #EDE4B6",
"h+	c #ECE5BC",
"i+	c #EAE6C3",
"j+	c #F3E6AC",
"k+	c #F3E8B3",
"l+	c #F1E8B9",
"m+	c #F1EBAE",
"n+	c #F6EBB6",
"o+	c #F5ECBE",
"p+	c #F3ECC4",
"q+	c #FAECB2",
"r+	c #F3EECB",
"s+	c #FDF0B5",
"t+	c #FBF0BB",
"u+	c #F9F0C1",
"v+	c #F7F0C7",
"w+	c #F6F2CF",
"x+	c #FFF4B9",
"y+	c #FFF4BF",
"z+	c #FDF4C5",
"A+	c #FBF4CB",
"B+	c #FFF6C0",
"C+	c #FAF6D3",
"D+	c #FFF6C7",
"E+	c #FFF7C8",
"F+	c #FFF8CF",
"G+	c #FDF9D6",
"                                                                                        ",
"              & { 5 9 d m k 7 / / / _ | 8 d m u p 7 *                                   ",
"        @ T.f+n+y+y+y+y+y+y+y+y+D+E+z+l+e+3+[+*+Z.R.p.$.p c 8 2 [ [ ^ &                 ",
"        - j.M.5+D.y+y+y+y+y+y+y+N.5+E+E+E+E+E+E+E+F+F+F+F+F+F+F+C+b+]+Q.l.* _           ",
"        A R w #.O #+d+ +#.#.=.a.D.#.7+E+c+X.o+7+s.A.g+F+A+~+A+F+F+G+G+G+H 3.v           ",
"      @ >+<+j+x+|+V.y+c+y+y+y+5+z+k+=.|.V._+D @+z+'+O A.a.E.;.F+F+G+G+8.a s+%++         ",
"      > s+x+x+x+y+y+y+y+y+y+y+y+D+E+y+E+E+E+E+E+E+F+l+_+F+F+h.6+F+G+8+a S.x+y+'         ",
"      5 x+x+x+,+m+y+y+y+y+y+y+y+D+E+E+E+E+E+E+o+E+F+F+F+F+F+F+F+F+G+H s t+y+y+G .       ",
"      k x+x+z.M.F V.y+c+k._. +y+z+'+ +=+N.^.X.W s.l+n.n.v+F+F+F+F+C+k S.y+y+y+Y.#       ",
"      z x+,+#+x+j+=.#.N.t+f+z.#.n+X.!+9.>.B i &.o <.l+@+;.|.l+p+F+`.7 S.;+y+y+0+{       ",
"      S x+x+x+x+y+y+t+y+y+y+t+1+M | d 6.Z.[+a+p+v+A+F+F+F+O.^.p+F+$.l 8.- m.E+E+~       ",
"      K x+x+x+x+y+y+y+y+y+g+T ~ ` ^+_+l+u+u+u+u+A+F+F+A+6+@+v+F+F+p B.(+0.C h+E+7       ",
"      z x+j.j.d.t.z.y+y+c.f } X h.|.|.O <.4.R.m.).5.k.a.E.A.n.F+v+c {+u.R.p.R.F+l       ",
"      v x+j+j+d+t+y+y+3+E z %+%+6.u C m.[+h+u+z+A+F+F+F+F+F+F+F+{+9 ~++.`.~.C F+7       ",
"      v x+x+x+x+y+y+t+}.x e.8 2 7./+9+u+u+z+E+E+E+F+F+F+F+F+F+F+7.j G.8 l T Q.i+*       ",
"      m x+x+j+<+)+d+Z.Y 0 [ o J.w.^.^.#.l+u+v+z+D+F+F+F+F+F+F+F+x k [+u ~.C+G+`..       ",
"      k k+d+r.V.L.r.,.b @.1+1+S.*.U ` *.&.Z Z [+A+F+F+F+F+F+F+F+7 e T.*.h `.C+p         ",
"      9 %+x+x+x+y+*+..!+1+!.d z o.G.-+2+0+g+p+z+D+F+F+F+F+F+F+F+) j o.f+' c h           ",
"        0.x+x+5+ +g.p m.1 e %+E.@+=+N.s.k.5.5.c+E+F+F+F+F+F+F+F+{ a k ` d '             ",
"        A x+M.M.)+b.c 3 C.c+t+y+u+u+o+o+l+3+z+E+E+F+F+F+F+F+F+F+' .                     ",
"        5 x+x+x+^+-.L 1+n+l+6+x.U C C M &.I.h+z+E+F+u+s.7+F+F+F+*                       ",
"        & n+x+x+P.p %.Q o 5 d e I K.E.n.5.;.k.-+2+~+a.~+D E.A.F+;                       ",
"        . F.<+_.].k $.7 i ++e+D O.s.2+l+z+D+l+-+E._+z+F+u+0+l+F+p .                     ",
"          9 x+d+[.g H /+e+g+/+x.J L *.x.e+z+E+E+E+F+F+F+F+F+F+F+v.#                     ",
"          - s+1+Y 0.6+;+A { | K Y..+G.u+z+E+E+E+E+F+F+F+F+F+F+F+b+^                     ",
"          + !+Q.r (.] + 1 C._+7+f+r.y+2+a.5.=.k.^.^.a.6+F+6+O.X.F+l                     ",
"          . K f.n ( : /.n.h.s.^.<.;+Y.g+u+E+E+u+z+F+7+5.s.O.0+F+F+(++                   ",
"            * -.4 x.0+g+;+J k m J x.!+2+D+E+E+E+E+7+g+F+F+F+F+F+F+G+c                   ",
"            * N G 1+{./ 3 q V n.h.5.A.a.O 5.5.s.~+5.W 5.|.5.5.;.1+G+P..                 ",
"            ( n | * ' k S &.&.~.~.:.8.7.e.e.i.7.2.p.u.u.B.B.c *.H.w+G+'                 ",
"    ^ 7 h ~.,.g ! 8.b+r+r+r+4+H.~.p.r+F+F+F+F+F+F+F+F+F+E+F+T !+;+Z r+8..               ",
"  4 C+G+G+C+,.< y.i+b+8.C ~.&+4+i+v+F+F+F+F+F+F+F+F+E+E+E+E+H S.u+H v.w+@               ",
"  ; G+G+G+w+y ! &+T ~ $.8+p+A+A+A+F+F+F+F+E+F+E+E+E+E+E+E+E+T 2.p+}+c 4+T .             ",
"  , G+G+G+8+g = ; [ Q.h+A+F+F+F+F+F+F+E+E+E+E+E+E+E+E+E+E+y+S.p {+(+[ l.r++             ",
"  ^ i+G+G+U.6 % H }+v+F+F+F+E+F+E+E+E+E+E+E+E+E+E+y+D+y+y+y+l+; l.}+r+G+G+l .           ",
"  ^ B.F+F+1.( ~ 4+A+F+F+E+E+E+E+E+E+E+E+E+E+y+y+y+y+y+y+y+y+y+8 ` 3+C+G+G+:++           ",
"    C F+A+r , c h+E+E+E+E+E+E+E+E+E+y+D+y+y+y+y+y+y+y+y+y+y+y+2+|  .3+~+G+G+%           ",
"    h h+4+6 % Z l+E+E+E+E+E+E+y+y+y+y+y+y+y+y+y+y+y+y+x+x+x+x+x+K h P.i+C+G+P .         ",
"      !.y.( + I.u+E+E+y+D+y+y+y+y+y+y+y+y+y+y+y+x+x+x+x+x+x+x+x+q+| 5 !.4+r+t .         ",
"      ' r , # 3+z+y+y+y+y+y+y+y+y+y+y+y+x+x+x+x+x+x+x+x+x+x+x+x+x+s+s 7 Z `.~           ",
"      ( 6 % k g+y+y+y+y+y+y+y+y+x+x+x+x+x+x+x+x+x+x+x+x+x+x+x+x+x+x+q+>.2 ^ .           ",
"      g ! @ m.Y.$+$+$+++++++++++++++++++++W.F.q.3.@.K K G G A m 9 2 : ) # .             ",
"                $ & > > ' { { / _ : | 1 : - + . .                                       ",
"                                                                                        "};
