/* XPM */
static char * txaquestion_xpm[] = {
"44 44 256 2",
"  	c None",
". 	c #000100",
"+ 	c #000200",
"@ 	c #030501",
"# 	c #00070A",
"$ 	c #060905",
"% 	c #040A0D",
"& 	c #080B07",
"* 	c #0A0C08",
"= 	c #070D10",
"- 	c #0B0D0A",
"; 	c #001117",
"> 	c #0F110D",
", 	c #05151A",
"' 	c #02161F",
") 	c #131412",
"! 	c #07171B",
"~ 	c #001B22",
"{ 	c #0B191E",
"] 	c #011D24",
"^ 	c #171816",
"/ 	c #0D1B1F",
"( 	c #041F27",
"_ 	c #091F23",
": 	c #1B1D1A",
"< 	c #1D1F1C",
"[ 	c #08242B",
"} 	c #1C2022",
"| 	c #0F2427",
"1 	c #032733",
"2 	c #1E2224",
"3 	c #172429",
"4 	c #11262A",
"5 	c #222421",
"6 	c #072A36",
"7 	c #1D2728",
"8 	c #00303B",
"9 	c #122C34",
"0 	c #272826",
"a 	c #282927",
"b 	c #262A2C",
"c 	c #003343",
"d 	c #163038",
"e 	c #2B2C2A",
"f 	c #242E2F",
"g 	c #093642",
"h 	c #2E2F2D",
"i 	c #1E3337",
"j 	c #30312F",
"k 	c #2F3436",
"l 	c #0D4151",
"m 	c #363835",
"n 	c #1E4048",
"o 	c #104354",
"p 	c #05465B",
"q 	c #3A3B39",
"r 	c #044858",
"s 	c #383C3E",
"t 	c #004B5F",
"u 	c #3C3D3B",
"v 	c #3D3F3C",
"w 	c #1E4753",
"x 	c #3E403D",
"y 	c #414240",
"z 	c #035266",
"A 	c #434542",
"B 	c #155161",
"C 	c #005871",
"D 	c #005A74",
"E 	c #484A47",
"F 	c #11586D",
"G 	c #1B5666",
"H 	c #4D4E4C",
"I 	c #0A5E78",
"J 	c #006180",
"K 	c #205A6A",
"L 	c #006281",
"M 	c #195D72",
"N 	c #006382",
"O 	c #0E607A",
"P 	c #006483",
"Q 	c #006585",
"R 	c #00667F",
"S 	c #515350",
"T 	c #12627C",
"U 	c #006881",
"V 	c #276070",
"W 	c #076887",
"X 	c #006A88",
"Y 	c #006C8B",
"Z 	c #0B6989",
"` 	c #0E6A8A",
" .	c #006E8D",
"..	c #226776",
"+.	c #19697D",
"@.	c #006F8E",
"#.	c #0D6D86",
"$.	c #00718F",
"%.	c #5A5C59",
"&.	c #2F6677",
"*.	c #007291",
"=.	c #156D8D",
"-.	c #007392",
";.	c #126F88",
">.	c #5C5E5B",
",.	c #1F6D81",
"'.	c #027493",
").	c #5D5F5C",
"!.	c #15708A",
"~.	c #057594",
"{.	c #097695",
"].	c #2C6E7E",
"^.	c #60625F",
"/.	c #0C7796",
"(.	c #0F7897",
"_.	c #127998",
":.	c #207790",
"<.	c #656764",
"[.	c #147A99",
"}.	c #00809E",
"|.	c #00819F",
"1.	c #167B9A",
"2.	c #2C768B",
"3.	c #686967",
"4.	c #0182A0",
"5.	c #197C9B",
"6.	c #177E97",
"7.	c #0583A1",
"8.	c #1B7D9C",
"9.	c #30798E",
"0.	c #1D7E9D",
"a.	c #0984A2",
"b.	c #1F7F9E",
"c.	c #0D85A3",
"d.	c #2B7E98",
"e.	c #1D829B",
"f.	c #1086A4",
"g.	c #6E706D",
"h.	c #2482A1",
"i.	c #1387A5",
"j.	c #1688A6",
"k.	c #388095",
"l.	c #30829C",
"m.	c #1889A7",
"n.	c #1A8AA9",
"o.	c #1C8BAA",
"p.	c #3D8499",
"q.	c #1E8CAB",
"r.	c #208DAC",
"s.	c #228EAD",
"t.	c #797B78",
"u.	c #248FAE",
"v.	c #2691AF",
"w.	c #2892B0",
"x.	c #1697B4",
"y.	c #2993B1",
"z.	c #3491AA",
"A.	c #7E807D",
"B.	c #2B94B2",
"C.	c #1C99B6",
"D.	c #2C95B3",
"E.	c #2E96B4",
"F.	c #3894AE",
"G.	c #1F9BB8",
"H.	c #3097B5",
"I.	c #828481",
"J.	c #229CBA",
"K.	c #3298B7",
"L.	c #249DBB",
"M.	c #858784",
"N.	c #349AB9",
"O.	c #269EBC",
"P.	c #369BBA",
"Q.	c #289FBD",
"R.	c #878986",
"S.	c #3F9AB3",
"T.	c #379CBB",
"U.	c #2AA0BE",
"V.	c #2BA1BF",
"W.	c #898B88",
"X.	c #2DA2C0",
"Y.	c #2FA3C1",
"Z.	c #8C8E8B",
"`.	c #31A5C2",
" +	c #32A6C3",
".+	c #34A7C4",
"++	c #35A8C5",
"@+	c #37A9C6",
"#+	c #39ABC8",
"$+	c #3CACCA",
"%+	c #3EAECC",
"&+	c #52AAC4",
"*+	c #40AFCD",
"=+	c #41B0CE",
"-+	c #9A9B98",
";+	c #44B2D0",
">+	c #45B3D1",
",+	c #47B4D3",
"'+	c #48B6D4",
")+	c #A0A29F",
"!+	c #49B7D5",
"~+	c #4BB8D6",
"{+	c #4DBAD8",
"]+	c #4FBBD9",
"^+	c #A6A8A5",
"/+	c #52BEDC",
"(+	c #54BFDE",
"_+	c #AAACA9",
":+	c #55C0DF",
"<+	c #56C1E0",
"[+	c #ACAEAB",
"}+	c #58C2E1",
"|+	c #59C4E2",
"1+	c #5AC5E3",
"2+	c #5BC6E4",
"3+	c #B1B3AF",
"4+	c #5DC7E5",
"5+	c #5FC9E7",
"6+	c #60CAE9",
"7+	c #B5B7B4",
"8+	c #57CEEB",
"9+	c #62CBEA",
"0+	c #59D0ED",
"a+	c #5AD1EE",
"b+	c #65CEED",
"c+	c #B9BBB8",
"d+	c #5CD2F0",
"e+	c #68D1EF",
"f+	c #5ED4F2",
"g+	c #60D6F3",
"h+	c #6CD4F3",
"i+	c #62D8F5",
"j+	c #C0C2BF",
"k+	c #64D9F7",
"l+	c #C2C4C1",
"m+	c #67DCF9",
"n+	c #C4C6C3",
"o+	c #6ADEFC",
"p+	c #C7C9C6",
"q+	c #C9CBC8",
"r+	c #CBCECA",
"s+	c #D3D5D2",
"t+	c #D7D9D6",
"u+	c #DBDDDA",
"v+	c #DEE0DD",
"w+	c #E0E2DF",
"x+	c #E2E4E1",
"y+	c #E7EAE6",
"z+	c #E9EBE8",
"A+	c #EEF0ED",
"B+	c #F0F2EF",
"C+	c #F4F6F3",
"D+	c #F9FBF8",
"E+	c #FAFCF9",
"F+	c #FBFDFA",
"G+	c #FEFFFC",
"                                  J J J J J J J J J J                                   ",
"                            J L J N W @.*./.{.$. .W L J J J                             ",
"                        J J N '.a.w.w.w.w.u.s.r.o.n.c.[. .N J J                         ",
"                    L J W !.+.G M ,.6.r.E.D.B.w.u.r.o.j.c.4.~.N J J                     ",
"                  L N *.g + + + + + + + # ! 9 l F #.}.q.n.f.4.0.$.N J                   ",
"                J =.e.= + + : H A.t.%.q : + + + + + + # 6 z (.4.0.(.Q J                 ",
"            L J {.y.{ + @ )+G+G+G+G+G+G+G+D+u+7+W.).j * + + + 6 R 8._.W J L             ",
"            J 8.G.K + @ 7+G+G+G+G+G+G+G+G+G+G+G+G+G+G+E+q+t.0 + + 1 './.W J             ",
"          J {.G.L., + ^.G+G+G+G+G+G+G+G+G+G+G+G+G+G+G+G+G+G+G+s+^.+ ; T ~.W J           ",
"        L =.C.L.w.+ + s+G+G+G+G+G+G+G+G+G+G+G+G+G+G+G+G+G+G+G+G+G+r+0 % X *.N J         ",
"      L N y.J.U.d.+ * G+G+G+G+G+G+G+G+G+G+G+G+G+G+G+G+G+G+G+G+G+G+G+y+e ] *.*.N J       ",
"      J b.G.O.`.z.+ > D+G+G+G+G+G+G+G+G+C+G+G+G+G+G+G+G+G+G+G+G+G+G+G+u+@ t *.X J       ",
"    J W E.J.U. +@+= + j+G+G+G+G+G+v+I.b ! } E _+E+G+G+G+G+G+G+G+G+G+G+G+3.6 *.*.N J     ",
"    J h.C.O.`.++$+2.+ S F+G+D+_+A n p.:+4+,+V % < [+G+G+G+G+G+G+G+G+G+G+_+; '.*.=.J     ",
"  J N D.N.Q.`.@+%+,+&.% u g.} w &+a+b+8+5+4+}+!+w + M.G+G+G+G+G+G+G+G+G+q+' ~.*.*.N J   ",
"  L '.E.P.U. +@+*+,+~+,+9.S.2+a+f+f+f+d+b+5+2+:+{+d + )+G+G+G+G+G+G+G+G+)+1 ~.*.*.W J   ",
"  J a.H.J.V..+@+=+,+{+(+|+5+b+f+i+m+m+f+d+5+4+<+/+..+ y G+G+G+G+G+G+G+G+>.F {.*.*. .J   ",
"J N w.H.T.V..+@+=+,+]+(+2+5+b+f+m+m+m+i+d+8+4+}+;+d + h G+G+G+G+G+G+G+p+( 1.{.*.*.*.L J ",
"J W w.H.J.V..+@+=+,+{+(+2+5+0+f+k+m+m+g+e+5+4+F._ + + ^+G+G+G+G+G+G+y+2 #.1.{.*.*.*.N J ",
"J =.w.E.P.U..+@+=+,+{+/+}+4+8+d+h+g+g+f+0+!+w + + * _+G+G+G+G+G+G+A+s I }.[.~.*.*.*.W J ",
"J *.u.D.N.Q.`.@+%+,+~+/+:+2+5+9+a+e+d+0+k.% + + m s+G+G+G+G+G+G+y+k R a.0.[.~.*.*.*.W J ",
"J {.s.B.H.O.`.++$+=+,+{+/+<+2+5+5+5+5+2.+ + * Z.F+G+G+G+G+G+G+v+f ;.j.7.0._.'.*.*.*.W J ",
"J {.s.y.C.T.V..+@+*+,+!+]+(+<+2+2+4+].+ + v u+G+G+G+G+G+G+G+s+7 :.q.i.4.8.(.*.*.*.*.W J ",
"J $.q.w.E.N.Q.`.++$+=+,+~+]+/+(+:+p.+ + S D+G+G+G+G+G+G+G+r+3 6.s.n.c.b.1./.*.*.*.*.W J ",
"J  .n.s.y.H.T.V. +@+$+=+,+!+~+]+]+| + S E+G+G+G+G+G+G+G+n+3 c.w.r.j.7.0.[.~.*.*.*.*.W J ",
"J W j.q.w.D.G.O.X..+@+$+=+;+,+,+l.+ @ x+G+G+G+G+G+G+G+j+4 n.y.s.n.f.}.8.(.*.*.*.*.*.N J ",
"J L c.n.s.w.H.G.O.X. +@+@+%+=+=+9 + >.G+G+G+G+G+G+G+w+i s.D.w.q.j.a.0.[.{.*.*.*.*.*.L J ",
"  J _.i.o.s.y.H.G.O.V.`.++@+@+$+= + -+G+G+G+G+G+G+G+S +.D.w.r.n.c.}.5.(.'.*.*.*.*. .J   ",
"  J =.a.j.q.u.y.H.N.L.U.X.`..+++# + n+G+G+G+G+G+G+E+* 7.w.s.n.f.4.0.[.~.*.*.*.*.*.W J   ",
"  J N }.c.n.q.u.y.E.C.P.O.Q.V.X.[ + l+G+G+G+G+G+G+F+@ s.s.o.i.7.0.1./.*.*.*.*.*.*.N J   ",
"    J '.}.c.j.q.s.w.B.H.C.G.T.L.B + <.G+G+G+G+G+G+z+/ r.n.i.7.}.5.(.'.*.*.*.*.*.=.J     ",
"    J N 0.}.a.j.o.r.u.w.B.E.H.H.x.8 + <.j+D+G+G+t+y U n.f.7.}.5.(.~.*.*.*.*.*.*.N J     ",
"      J $.8.b.7.f.n.o.r.s.w.w.y.B.B.r + + * v ^ + M j.c.4.0.5.(.~.*.*.*.*.*.*.X J       ",
"      J N /.5.0.4.a.i.n.n.q.r.s.s.F % + + + + + + ~ !.}.0.1.(.'.*.*.*.*.*.*.*.N J       ",
"        J N (.1.8.}.4.a.f.i.j.n.o + + ^ M.c+l+I.x @ # I [./.'.*.*.*.*.*.*.*.N J         ",
"          J W {._.1.8.0.}.4.7.$.+ + E C+G+G+G+G+G+x+a ; *.*.*.*.*.*.*.*.*.W J           ",
"            J W './.(.[.5.8.0.t + ) C+G+G+G+G+G+G+G+v++ O *.*.*.*.*.*.*.W J             ",
"            L J W *.'.~./.(._.p + H G+G+G+G+G+G+G+G+G+5 O *.*.*.*.*.*.W J L             ",
"                J N *.*.*.*.'.I + j G+G+G+G+G+G+G+G+D+[ *.*.*.*.*.*.N J                 ",
"                  J N X *.*.*.*.8 + 3+G+G+G+G+G+G+G+R.t *.*.*.*.X N J                   ",
"                    J J N =.*.*.$.( * R.B+G+G+G+t+<.l *.*.*.=.N J J                     ",
"                        J J N W  .X c # @ e v } ~ I *. .W N J J                         ",
"                            J J J L N N C C N W W N L J J J                             ",
"                                  J J J J J J J J J J                                   "};
