/* XPM */
static char * txaweb_xpm[] = {
"20 24 206 2",
"  	c None",
". 	c #3E4367",
"+ 	c #515982",
"@ 	c #505D87",
"# 	c #555E87",
"$ 	c #466389",
"% 	c #3F6596",
"& 	c #546188",
"* 	c #566288",
"= 	c #596281",
"- 	c #426898",
"; 	c #59648B",
"> 	c #3E6DA3",
", 	c #5D6784",
"' 	c #566B90",
") 	c #526D95",
"! 	c #5B6B94",
"~ 	c #606A91",
"{ 	c #4970A1",
"] 	c #516F99",
"^ 	c #4073AD",
"/ 	c #606E8F",
"( 	c #6E6E6E",
"_ 	c #6F6F6F",
": 	c #4976A8",
"< 	c #4578B1",
"[ 	c #69737E",
"} 	c #4B7DB4",
"| 	c #5A7BA1",
"1 	c #787878",
"2 	c #597DAB",
"3 	c #73808F",
"4 	c #5685BA",
"5 	c #7F7F7F",
"6 	c #73819A",
"7 	c #7A8190",
"8 	c #7683A2",
"9 	c #848484",
"0 	c #5D8BBE",
"a 	c #858585",
"b 	c #608DBF",
"c 	c #708DAE",
"d 	c #7D8AAC",
"e 	c #848A9D",
"f 	c #898B8F",
"g 	c #8C8C8C",
"h 	c #8E8E8E",
"i 	c #8F8F8F",
"j 	c #6C97C6",
"k 	c #7196C2",
"l 	c #8A92AB",
"m 	c #7298C5",
"n 	c #949494",
"o 	c #8F95AB",
"p 	c #969696",
"q 	c #729CC8",
"r 	c #979797",
"s 	c #989898",
"t 	c #999999",
"u 	c #9A9A9A",
"v 	c #859DBF",
"w 	c #9B9B9B",
"x 	c #919EAD",
"y 	c #9D9D9D",
"z 	c #8BA0B6",
"A 	c #9E9E9E",
"B 	c #959FB7",
"C 	c #9F9F9F",
"D 	c #9DA0AE",
"E 	c #A1A1A1",
"F 	c #92A4B7",
"G 	c #9AA3AD",
"H 	c #81A7D2",
"I 	c #9DA3B4",
"J 	c #A7A7A7",
"K 	c #A8A8A8",
"L 	c #8EACCF",
"M 	c #A9A9A9",
"N 	c #8AAED6",
"O 	c #9FABC6",
"P 	c #AAAAB0",
"Q 	c #AAABAC",
"R 	c #8FAFD4",
"S 	c #A7ACBD",
"T 	c #AAADB1",
"U 	c #A2B0BE",
"V 	c #A9AEBE",
"W 	c #A8B0B9",
"X 	c #B1B1B1",
"Y 	c #AAB2C0",
"Z 	c #A3B4C5",
"` 	c #AFB2B6",
" .	c #A4B5C8",
"..	c #B3B3B3",
"+.	c #B4B4B4",
"@.	c #A9B6C4",
"#.	c #B3B4BB",
"$.	c #B2B5BA",
"%.	c #B5B5B5",
"&.	c #B6B6B6",
"*.	c #AAB8C8",
"=.	c #AEB8C3",
"-.	c #AAB9C8",
";.	c #A5BACF",
">.	c #B9B9B9",
",.	c #A8BCD1",
"'.	c #BABABA",
").	c #AFBCCA",
"!.	c #B4BBC9",
"~.	c #BBBBBB",
"{.	c #BABBC1",
"].	c #A4BFDD",
"^.	c #BBBCBD",
"/.	c #B7BCCA",
"(.	c #BCBCBC",
"_.	c #B8BDC2",
":.	c #BDBDBE",
"<.	c #A2C2E3",
"[.	c #B6BFC8",
"}.	c #BEBEBE",
"|.	c #BFBFBF",
"1.	c #C0C0C0",
"2.	c #BDC0CA",
"3.	c #BFC0CC",
"4.	c #C1C1C1",
"5.	c #C2C2C2",
"6.	c #BCC3CB",
"7.	c #A8C7E7",
"8.	c #C3C3C3",
"9.	c #C0C3CE",
"0.	c #BFC4C9",
"a.	c #C4C4C4",
"b.	c #C5C5C5",
"c.	c #C6C6C6",
"d.	c #BFC7D1",
"e.	c #C7C7C7",
"f.	c #C4C8D1",
"g.	c #C8C8C8",
"h.	c #C8C8C9",
"i.	c #B3CCE6",
"j.	c #BFCAD7",
"k.	c #BACBDF",
"l.	c #C9C9C9",
"m.	c #C4CAD0",
"n.	c #C1CBD5",
"o.	c #CBCBCB",
"p.	c #CCCCCC",
"q.	c #CBCDD0",
"r.	c #CDCDCD",
"s.	c #C9CED3",
"t.	c #C6CFD7",
"u.	c #CECECE",
"v.	c #CACFD2",
"w.	c #B7D2EF",
"x.	c #CFCFCF",
"y.	c #CBD0D6",
"z.	c #C4D2E0",
"A.	c #CDD1D6",
"B.	c #D2D2D2",
"C.	c #D4D4D4",
"D.	c #D3D5D7",
"E.	c #D5D5D5",
"F.	c #D4D6D8",
"G.	c #C7D9EB",
"H.	c #C2DBF4",
"I.	c #C5DBF2",
"J.	c #D8D8D8",
"K.	c #D8D8DA",
"L.	c #CDDAE7",
"M.	c #D6D9DE",
"N.	c #DADADB",
"O.	c #D8DBDF",
"P.	c #DBDBDB",
"Q.	c #DCDCDD",
"R.	c #CADFF6",
"S.	c #DDDDDD",
"T.	c #DEDEDE",
"U.	c #CAE2FA",
"V.	c #E0E0E0",
"W.	c #CFE3F6",
"X.	c #D1E3F6",
"Y.	c #E0E2E4",
"Z.	c #E1E2E3",
"`.	c #E2E2E2",
" +	c #E3E3E3",
".+	c #E4E5E7",
"++	c #DAE7F5",
"@+	c #D6E8FB",
"#+	c #E4E6E7",
"$+	c #E7E7E7",
"%+	c #DCE9F6",
"&+	c #E6E9EB",
"*+	c #EBEBEB",
"=+	c #DDEEFF",
"-+	c #DEEFFF",
";+	c #E0EFFF",
">+	c #E0F0FF",
",+	c #E1F0FE",
"'+	c #F0F1F2",
")+	c #F2F2F3",
"!+	c #F8F8F8",
"~+	c #F8F9F9",
"{+	c #FAFAFA",
"]+	c #FCFCFC",
"^+	c #FDFDFD",
"/+	c #FEFEFE",
"                h r h 5                 ",
"          9 M e.e.e.e.e.e.c.J           ",
"    ( p b.e.e.e.e.e.e.e.p.J.T.          ",
"_ >.e.e.e.e.e.e.e.e.l.J.T.S.S.          ",
"h e.p.u.x.x.l.e.l.E.T.S.S.S.S.          ",
"u o.a.a.a.g.x.E.V.S.S.S.S.S.S.          ",
"u r.e.e.e.a.8.r. +S.S.S.S.S.S.          ",
"r p.a.5.1.4.8.r. +S.S.S.S.N.S.          ",
"s p.b.e.e.8.}.p.`.K.S /.f.!.O 8         ",
"u p.e.5.1.}.}.p.3.9.t.n.Z.=.i.,.Y ~     ",
"w o.a.5.c.e.5.{.M.j.v.%+L.G.k.6.Y.F.*   ",
"y o.e.e.4.}.:.2./+~+0.++,+X.d.!+/+$+$.  ",
"C o.a.5.1.1.D &+^+[.;+>+>+W.s.*.U D.C., ",
"w B.x.l.e.a.I A.@.U.=+-+@+z.]+{+'+q.` 7 ",
"r b.}.x.B.B.V m.].w.H.R.I.y./+/+!+_.T / ",
"r l.A 1 g X B L -.O.;.7.<. ..+'+*+C.3 ! ",
"t e.l.B.o.5.o R )./+)+Z N H q F P.5.$ ; ",
"t e.e.e.e.e.#.v z !+/+#+m j b c l.Q )   ",
"w a.~.5.e.e.e.l k W  +G 0 4 } | +.[ #   ",
"t e.'...&.|.e.h.d x ^.: < ^ > % f =     ",
"w e.8.%.(.c.e.l.Q.e 6 2 { - ] ' +       ",
"1 e.e.5.a.e.e.l.T.S.P . @ &             ",
"    E e.e.e.e.g.S.K                     ",
"        a n t A i                       "};
