/* XPM */
static char * txawho_xpm[] = {
"38 44 256 2",
"  	c None",
". 	c #000100",
"+ 	c #070000",
"@ 	c #010400",
"# 	c #020501",
"$ 	c #050804",
"% 	c #070A06",
"& 	c #120900",
"* 	c #100A08",
"= 	c #0E0D01",
"- 	c #091003",
"; 	c #121503",
"> 	c #17160E",
", 	c #1F1602",
"' 	c #111A09",
") 	c #151B04",
"! 	c #1E1913",
"~ 	c #171D08",
"{ 	c #251910",
"] 	c #231C12",
"^ 	c #15210C",
"/ 	c #182106",
"( 	c #1A250B",
"_ 	c #312000",
": 	c #1B260D",
"< 	c #2E2411",
"[ 	c #20290B",
"} 	c #282813",
"| 	c #1E2D0E",
"1 	c #22300B",
"2 	c #322A20",
"3 	c #3C2818",
"4 	c #23310D",
"5 	c #432B03",
"6 	c #452C00",
"7 	c #293315",
"8 	c #2C3511",
"9 	c #32312A",
"0 	c #30351E",
"a 	c #3B3223",
"b 	c #273A0F",
"c 	c #413416",
"d 	c #4E321E",
"e 	c #2B3E12",
"f 	c #54311B",
"g 	c #4E3721",
"h 	c #483A17",
"i 	c #304317",
"j 	c #3C4022",
"k 	c #563925",
"l 	c #5E3B00",
"m 	c #3A431F",
"n 	c #593C0A",
"o 	c #344614",
"p 	c #314815",
"q 	c #4E4022",
"r 	c #673C22",
"s 	c #354C19",
"t 	c #654202",
"u 	c #693E24",
"v 	c #394F15",
"w 	c #724B00",
"x 	c #764A00",
"y 	c #514F42",
"z 	c #784A2A",
"A 	c #425D1B",
"B 	c #705018",
"C 	c #775009",
"D 	c #7D5001",
"E 	c #45601E",
"F 	c #805200",
"G 	c #63553B",
"H 	c #615646",
"I 	c #835500",
"J 	c #835508",
"K 	c #855600",
"L 	c #4B651C",
"M 	c #83532D",
"N 	c #7F5713",
"O 	c #885801",
"P 	c #765B27",
"Q 	c #835A0C",
"R 	c #8A5A04",
"S 	c #905900",
"T 	c #8B5B00",
"U 	c #4B6B21",
"V 	c #855C0F",
"W 	c #855C18",
"X 	c #4C6C22",
"Y 	c #925B00",
"Z 	c #8E5D00",
"` 	c #8D5D07",
" .	c #91582F",
"..	c #506F1D",
"+.	c #885F1B",
"@.	c #955E00",
"#.	c #84611A",
"$.	c #976003",
"%.	c #92610D",
"&.	c #547321",
"*.	c #876425",
"=.	c #8E6418",
"-.	c #8A661F",
";.	c #916611",
">.	c #577624",
",.	c #836833",
"'.	c #587725",
").	c #946814",
"!.	c #8B6930",
"~.	c #94691E",
"{.	c #8F6A24",
"].	c #577C21",
"^.	c #9D6A0F",
"/.	c #986B18",
"(.	c #976B20",
"_.	c #7D6E53",
":.	c #916D2D",
"<.	c #A76637",
"[.	c #5B7F25",
"}.	c #996D22",
"|.	c #956F29",
"1.	c #A26E15",
"2.	c #957031",
"3.	c #987225",
"4.	c #927439",
"5.	c #B46A38",
"6.	c #628523",
"7.	c #A67219",
"8.	c #9A742E",
"9.	c #997434",
"0.	c #9C7630",
"a.	c #9E7832",
"b.	c #97793D",
"c.	c #967943",
"d.	c #638D29",
"e.	c #A17A34",
"f.	c #887C6B",
"g.	c #AA7A20",
"h.	c #A17B3B",
"i.	c #658F2B",
"j.	c #9C7D41",
"k.	c #BF7441",
"l.	c #A37D3D",
"m.	c #9C7E48",
"n.	c #9F7F44",
"o.	c #A57E3E",
"p.	c #6A9227",
"q.	c #A77F32",
"r.	c #A18246",
"s.	c #A0824C",
"t.	c #A78147",
"u.	c #958468",
"v.	c #AB833C",
"w.	c #A58549",
"x.	c #6F982D",
"y.	c #A58650",
"z.	c #6B9B2E",
"A.	c #A48757",
"B.	c #A8884C",
"C.	c #D17D46",
"D.	c #9D8A69",
"E.	c #72A02C",
"F.	c #AB8C55",
"G.	c #A98C5B",
"H.	c #75A32F",
"I.	c #AE8F58",
"J.	c #AE915F",
"K.	c #CF8858",
"L.	c #79A732",
"M.	c #B19362",
"N.	c #BF933F",
"O.	c #7CA92C",
"P.	c #7DAA2D",
"Q.	c #C88F60",
"R.	c #B49564",
"S.	c #B69766",
"T.	c #DD8D59",
"U.	c #7BAF31",
"V.	c #B6996D",
"W.	c #B89A68",
"X.	c #B79A6E",
"Y.	c #B09C74",
"Z.	c #C79B4D",
"`.	c #7FB335",
" +	c #B59E70",
".+	c #BB9E72",
"++	c #82B638",
"@+	c #B8A173",
"#+	c #B6A179",
"$+	c #F39351",
"%+	c #85B731",
"&+	c #FB9354",
"*+	c #BAA375",
"=+	c #B9A47C",
"-+	c #88BB35",
";+	c #BBA67E",
">+	c #F99856",
",+	c #FF9751",
"'+	c #C8A668",
")+	c #FF9858",
"!+	c #8BBE38",
"~+	c #BDA87F",
"{+	c #87C039",
"]+	c #FE9B52",
"^+	c #E4A16E",
"/+	c #C0AA82",
"(+	c #FE9C5A",
"_+	c #FD9C60",
":+	c #FF9D5B",
"<+	c #FF9E5C",
"[+	c #FF9F5D",
"}+	c #FF9F63",
"|+	c #C1AE8B",
"1+	c #EFA473",
"2+	c #FEA263",
"3+	c #C3B08D",
"4+	c #D2AF71",
"5+	c #FFA465",
"6+	c #C7B289",
"7+	c #FFA566",
"8+	c #FAA66B",
"9+	c #C6B38F",
"0+	c #FFA66D",
"a+	c #FFA76E",
"b+	c #EEAB7D",
"c+	c #FEA96E",
"d+	c #C8B699",
"e+	c #FFAB6F",
"f+	c #FFAC77",
"g+	c #FFAE78",
"h+	c #DEB974",
"i+	c #FEB179",
"j+	c #FEB280",
"k+	c #FFB381",
"l+	c #E2BE7F",
"m+	c #FFB583",
"n+	c #FFB689",
"o+	c #FEBA8B",
"p+	c #FFBC8D",
"q+	c #FFBE94",
"r+	c #EBC88E",
"s+	c #FFC397",
"t+	c #F9C993",
"u+	c #F0CC92",
"v+	c #E0CEB0",
"w+	c #E6D1AD",
"x+	c #F2D7A1",
"y+	c #F9D69B",
"z+	c #FCD796",
"A+	c #FDD99F",
"B+	c #F9DC9F",
"C+	c #F1DCB8",
"D+	c #FADFA8",
"E+	c #FBE2B1",
"F+	c #FDE5BA",
"G+	c #FDE8C3",
"                                -.s.s.:.                                    ",
"                          W s.#+9+|+/+;+ +n.Q                               ",
"                      C G.d+d+9+|+~+=+@+V.R.J.9.K                           ",
"                    w G.d+d+3+|+;+=+ +V.R.J.F.B.w.~.                        ",
"                    N d+9+|+/+;+@+ +S.M.I.F.B.w.o.h.(.                      ",
"                  o.:.|+|+~+=+ +V.R.M.I.F.w.t.o.e.0.3.;.                    ",
"                a..+n.Q n.@+ +V.R.I.F.B.w.o.h.a.8.3.(.).R                   ",
"                W.S.y.{.D Q j.M.I.F.B.w.o.h.0.8.}./.).%.Z                   ",
"              (.*+J.s.2.W V F J =.|.h.o.e.0.3.(.).;.` Z Y Y                 ",
"              9.V.G.j.:.#.4+q.O K K K K R R ` R R Y Y Y Y Z                 ",
"              |.J.s.4.*.c.Y.*+'+v.%.K K K O O Z Z Y Y Z Y @.                ",
"              :.A.b.P , @ @ @ @ ! a q n t D O Z Z Y Z Y @.@.                ",
"                m.,.% @ | A ].L s 4 ; @ @ @ & 6 F Y @.@.@.@.                ",
"                !.< @ v {+{+{+{+{+{+{+`.d.L e $ @ _ x @.@.@.                ",
"                B @ ( {+{+{+{+{+{+{+{+{+{+{+{+%+].[ @ l $.$.                ",
"                  @ E {+{+{+{+{+{+{+{+{+{+{+{+{+{+-+v @ t                   ",
"                  @ x.{+{+{+{+{+{+{+{+{+{+{+{+{+{+{+{+U =                   ",
"                  @ L.{+{+{+{+{+P.L.{+{+{+{+{+{+{+{+{+{+b                   ",
"                  @ >.{+{+{+p.i y 9 - E ++{+{+{+{+{+{+{+&.@                 ",
"                  @ = [.6.7 f.C+G+G+v+H ' L.{+{+{+{+{+{+O.@                 ",
"                    5 c u.w+F+F+F+F+F+F+H ; ++{+{+{+{+{+%+@                 ",
"                      g.B+D+E+E+E+E+E+E+6+@ ].{+{+{+{+{+i.                  ",
"                      ^.B+A+A+A+A+A+A+A+_.@ X {+{+{+{+{+e                   ",
"                      1.N.y+z+z+z+z+u+G @ ' U.{+{+{+{+&.                    ",
"                        Z.g.u+A+B+*+] @ ~ L.{+{+{+{+i.%                     ",
"                        D+h+7.l+#+# @ o %+{+{+{+{+x.=                       ",
"                          D+r++.% $ '.{+{+{+{+{+H.;                         ",
"                          D+x+> @ d.{+{+{+{+{+P.0                           ",
"                f+k+o+q+s+t+D.@ ..{+{+{+{+{+`.j 1+k+j+i+f+                  ",
"          f+n+q+q+q+q+p+p+j+2 - -+{+{+{+{+-+m ^+k+k+k+j+i+i+f+e+            ",
"      f+o+p+p+o+o+o+o+o+n+b+@ p {+{+{+{+{+U Q.i+j+i+i+f+f+f+e+e+c+5+        ",
"      o+o+o+o+k+k+k+k+k+k+j+@ L {+{+{+{+{+[ 8+f+f+f+f+f+e+c+0+0+0+0+5+      ",
"    s+k+k+k+k+k+j+i+i+f+f+f+* U {+{+{+{+{+} f+e+e+e+c+0+0+5+5+5+2+2+2+      ",
"    k+j+i+f+f+f+f+f+f+e+c+c+3 | {+{+{+{+H.g c+c+0+0+0+5+2+2+}+}+:+:+:+:+    ",
"    f+f+e+e+e+c+c+0+0+5+5+5+T.{ 1 &.P.d.8 K.0+5+5+2+2+2+:+:+:+:+(+(+]+,+    ",
"  k+c+0+0+0+5+5+5+2+2+}+2+:+:+M @ @ @ @ k 2+2+2+2+:+:+:+:+(+(+,+,+,+,+,+]+  ",
"  0+5+5+2+2+2+}+:+:+:+:+(+(+u @ @ / v ~ @ d _+:+:+(+(+)+,+,+,+,+,+,+,+,+,+  ",
"  2+:+:+:+:+:+(+(+]+,+,+,+k.@ ) z.{+{+{+E.' k.(+]+,+,+,+,+,+,+,+,+,+,+,+,+  ",
"  (+(+)+,+,+,+,+,+,+,+,+,+ .@ p.{+{+{+{+{+p.r ,+,+,+,+,+,+,+,+,+,+,+,+,+,+  ",
"  ,+,+,+,+,+,+,+,+,+,+,+,+<.@ %+{+{+{+{+{+++f ,+,+,+,+,+,+,+,+,+,+,+,+,+,+  ",
",+,+,+,+,+,+,+,+,+,+,+,+,+C.+ p.{+{+{+{+{+p.5.,+,+,+,+,+,+,+,+,+,+,+,+,+,+  ",
",+,+,+,+,+,+,+,+,+,+,+,+,+,+z ^ H.{+{+{+E.h >+,+,+,+,+,+,+,+,+,+,+,+,+,+,+,+",
",+,+,+,+,+,+,+,+,+,+,+,+,+,+>+r & : v ~ r &+,+,+,+,+,+,+,+,+,+,+,+,+,+,+,+]+",
"  ,+,+)+)+)+,+,+,+,+,+]+,+,+,+,+>+k.C.$+,+,+]+,+,+,+,+,+,+,+,+,+,+,+,+,+,+]+"};
