/* XPM */
static char * C:\Matthieu\Programmation\Lazarus_Delphi\Ancestromania\AncestroComponents\Resources\Images\tcontextini_xpm[] = {
"32 32 255 2",
"  	c #373150",
". 	c #31354C",
"+ 	c #2E3652",
"@ 	c #2A3758",
"# 	c #243B59",
"$ 	c #2D3C4C",
"% 	c #264255",
"& 	c #28415A",
"* 	c #4A3B57",
"= 	c #AB1F50",
"- 	c #7D2C58",
"; 	c #2F435E",
"> 	c #2E4363",
", 	c #802D55",
"' 	c #A5234E",
") 	c #354454",
"! 	c #6A3555",
"~ 	c #9E2751",
"{ 	c #952958",
"] 	c #A0274C",
"^ 	c #9D2756",
"/ 	c #A52554",
"( 	c #63385E",
"_ 	c #9A2A4B",
": 	c #2D495C",
"< 	c #274A74",
"[ 	c #992C55",
"} 	c #9B2C51",
"| 	c #89305F",
"1 	c #3C475E",
"2 	c #2F4A6F",
"3 	c #284D70",
"4 	c #205073",
"5 	c #364D5C",
"6 	c #983151",
"7 	c #95315A",
"8 	c #653F5E",
"9 	c #A52D56",
"0 	c #9F3054",
"a 	c #5D435E",
"b 	c #364E68",
"c 	c #8C3759",
"d 	c #2C5175",
"e 	c #3D4F59",
"f 	c #993458",
"g 	c #943657",
"h 	c #973462",
"i 	c #3E4E6A",
"j 	c #2F5366",
"k 	c #39516B",
"l 	c #2B556D",
"m 	c #823D5D",
"n 	c #3C5261",
"o 	c #385367",
"p 	c #405268",
"q 	c #634964",
"r 	c #3E5374",
"s 	c #A5375F",
"t 	c #375871",
"u 	c #6D4A62",
"v 	c #A63A5B",
"w 	c #9C3E5E",
"x 	c #3F5967",
"y 	c #654D6E",
"z 	c #385B6E",
"A 	c #A43E61",
"B 	c #A33E66",
"C 	c #AD3D5F",
"D 	c #8F4662",
"E 	c #50586A",
"F 	c #435B75",
"G 	c #AC3E65",
"H 	c #A74064",
"I 	c #A14262",
"J 	c #7D4C69",
"K 	c #3E5E77",
"L 	c #854B66",
"M 	c #405F6D",
"N 	c #555972",
"O 	c #984760",
"P 	c #695574",
"Q 	c #545B79",
"R 	c #A54565",
"S 	c #8C4D65",
"T 	c #AB4467",
"U 	c #4C5F75",
"V 	c #A04864",
"W 	c #416578",
"X 	c #A34A67",
"Y 	c #526172",
"Z 	c #496479",
"` 	c #46657F",
" .	c #57626F",
"..	c #9A4F66",
"+.	c #44687B",
"@.	c #AD4D6C",
"#.	c #4A6983",
"$.	c #A4516B",
"%.	c #586784",
"&.	c #77616A",
"*.	c #6A675A",
"=.	c #506B7F",
"-.	c #426F81",
";.	c #845D72",
">.	c #A1556C",
",.	c #536B86",
"'.	c #A15672",
").	c #646875",
"!.	c #626A7D",
"~.	c #616C78",
"{.	c #A15979",
"].	c #6C6978",
"^.	c #925E77",
"/.	c #A95876",
"(.	c #7F6575",
"_.	c #5F6E80",
":.	c #AD5973",
"<.	c #9C5F75",
"[.	c #7B6F5E",
"}.	c #747180",
"|.	c #62787D",
"1.	c #A9647D",
"2.	c #A0697C",
"3.	c #75767F",
"4.	c #667C8D",
"5.	c #A56D81",
"6.	c #817B69",
"7.	c #5F8296",
"8.	c #6D808B",
"9.	c #A47284",
"0.	c #B96C88",
"a.	c #76818E",
"b.	c #AF768A",
"c.	c #8B8288",
"d.	c #728899",
"e.	c #B27786",
"f.	c #C47692",
"g.	c #9C858F",
"h.	c #B57F92",
"i.	c #AD8292",
"j.	c #AA8593",
"k.	c #938F81",
"l.	c #82969B",
"m.	c #BA889A",
"n.	c #A68F98",
"o.	c #8B9AA1",
"p.	c #A7969E",
"q.	c #CD8CA3",
"r.	c #94A0A1",
"s.	c #AD99A2",
"t.	c #98A0A8",
"u.	c #BC96A4",
"v.	c #A69E97",
"w.	c #BD96B0",
"x.	c #A89EA4",
"y.	c #B99AA6",
"z.	c #A6A1A0",
"A.	c #ADA0A1",
"B.	c #B29FA1",
"C.	c #94A7B3",
"D.	c #B1A0A8",
"E.	c #9CA8A9",
"F.	c #C99CAC",
"G.	c #CF9BAD",
"H.	c #B1A5A5",
"I.	c #BAA2AC",
"J.	c #A1AAB1",
"K.	c #AAACA9",
"L.	c #ADAD9E",
"M.	c #BAA9B1",
"N.	c #B4ACA5",
"O.	c #AFAEA5",
"P.	c #B6ACB2",
"Q.	c #A8B0B8",
"R.	c #ABB0B2",
"S.	c #B4B0A2",
"T.	c #ACB1B3",
"U.	c #B8B0A9",
"V.	c #B7B2B1",
"W.	c #B3B5B2",
"X.	c #BCB2B8",
"Y.	c #AEB6BE",
"Z.	c #DEA9BB",
"`.	c #B2B8AE",
" +	c #BAB9B0",
".+	c #BBB9BD",
"++	c #D9B2C1",
"@+	c #BBBDBA",
"#+	c #B6C0BB",
"$+	c #B7C2B0",
"%+	c #B4C4CA",
"&+	c #C2C3AD",
"*+	c #D0BDD3",
"=+	c #CDC0C1",
"-+	c #C7C3B5",
";+	c #D0BFC7",
">+	c #D9BCCE",
",+	c #C0C5C8",
"'+	c #DDBECA",
")+	c #BFC7D0",
"!+	c #CBC5C4",
"~+	c #C8C6CA",
"{+	c #CCCBC2",
"]+	c #C9CDBC",
"^+	c #CBCDCA",
"/+	c #C6CFCA",
"(+	c #D3CFC1",
"_+	c #D3CECD",
":+	c #E8C8D4",
"<+	c #EACCDE",
"[+	c #DCD2D8",
"}+	c #D4D6D3",
"|+	c #E9D0DB",
"1+	c #DBDAD1",
"2+	c #D7DCDF",
"3+	c #DADCD9",
"4+	c #E7D8E6",
"5+	c #DFDCE1",
"6+	c #EBD9E1",
"7+	c #E4DDE9",
"8+	c #E4E0D1",
"9+	c #E5E0DE",
"0+	c #DDE2E4",
"a+	c #E2E4E1",
"b+	c #DCE6E1",
"c+	c #DEE8E2",
"d+	c #E8E7DE",
"e+	c #E7E9E6",
"f+	c #F0E6EC",
"g+	c #E6EDE2",
"h+	c #E7ECEF",
"i+	c #EDEBEF",
"j+	c #FAE8F0",
"k+	c #E5EFEA",
"l+	c #EFF1EE",
"m+	c #EDF2F5",
"n+	c #F6F0EF",
"o+	c #F5F4EB",
"p+	c #F6F4F8",
"q+	c #FDF3F9",
"r+	c #EBF9F9",
"s+	c #F5F7F4",
"t+	c #F3F8FB",
"u+	c #FDF7F6",
"v+	c #F8FAF7",
"w+	c #FCF9FE",
"x+	c #FDFBFF",
"y+	c #F8FDFF",
"z+	c #FBFDFA",
"A+	c #FFFCFA",
"B+	c #FEFCFF",
"C+	c #FFFDFF",
"D+	c #F9FFFF",
"E+	c #FCFFFB",
"F+	c #FEFFFC",
"' I A I A I I I I I I I I I I I I I A A A B B I I I I I I v O / ",
"V q+w+y+w+w+w+w+w+w+w+w+w+w+w+w+w+w+w+x+x+u+u+u+w+x+w+w+x+w+q+A ",
"T x+y+y+B+B+B+B+B+B+B+B+B+B+B+B+B+B+A+y+A+z+A+F+m+Y.t.a.J.h+u+C ",
"R y+y+F+y+y+y+y+y+y+y+y+y+y+y+y+y+y+F+F+y+y+0+o.e 5 n o x |.y+I ",
"T x+B+y+y+B+B+B+B+B+B+B+B+y+F+B+B+F+F+t+%+~.$ ) x U =.` l a.x+G ",
"R x+B+y+B+F+F+F+F+F+F+F+F+F+y+F+A+z+2+).% + j Z =.Z j : : Y.B+A ",
"R x+B+y+B+F+F+F+F+F+F+F+F+F+B+F+z+)+j ; b K #.W p y a  .Q.t+A+A ",
"R x+B+y+B+F+F+F+F+F+F+F+F+y+y+h+8.& > t +.P q 1 - { ^.~+y+A+A+G ",
"R x+B+y+B+F+F+F+F+F+F+F+F+z+0+Y # > t N J [ [ u / 0 D.0+F+y+B+A ",
"R x+B+y+B+F+F+F+F+F+B+y+y+i+E . * ( m ~ ~ ~ S S ] >.V.y+y+F+B+A ",
"R x+B+y+B+F+F+F+F+F+F+w+:+<., { ^ [ 7 L D [ g.X ' 9._+F+F+F+B+A ",
"R x+B+y+B+F+F+F+F+A+z+F.] ] _ } D &.].].c 5.P.v ~ n.a+A+F+F+B+A ",
"R x+B+y+B+F+F+z+l+w+h+1.= g ;.}._.U p 8 B B.;+~ 0 x.l+B+F+F+B+A ",
"R x+B+y+B+F+F+v+,+Y.l.! [ (._.F d 3 Q h i.#+++~ I V.v+y+F+F+B+A ",
"R x+B+y+y+F+v+t+C.7.:   | 3.k < 4 %.{./.H.e+q.' $.@+y+B+F+F+B+A ",
"R x+B+y+B+s+a+%+d.K @ ; P !.3 3 ,.w.g u.^+z+0.] 1.^+y+B+F+F+B+A ",
"R x+B+y+A+v+t+%+8.z > -.l r 2 -.*+w e.W.s+w+@.] 9.3+B+F+F+F+B+A ",
"R x+B+y+F+s+2+R.E.E.T.o.M i 4.7+:.'.D.c+x+j+s ~ j.b+B+y+F+F+B+A ",
"R x+B+y+F+v+5+K.K.S.]+z.2+4+>+f.6 b.u.'+Z.q.' ~ n.l+F+y+F+F+B+A ",
"R x+B+y+F+l+~+ +O.-+`.r.c.w } ' ' ~ ~ } 0 f ' } s.n+y+B+F+F+B+A ",
"R x+B+y+A+B+0+]+L.$+U.R.M.~ ' '.9.i.j.p.D.u.~ 0 D.s+y+B+F+F+B+A ",
"R x+B+y+F+p+3+&+6.{+=+b+<+} ..x./+b+k+l+s+6+' f M.y+F+B+F+F+B+A ",
"R x+B+y+F+v+o+6.(+l+w+|+A A p./+w+B+F+B+B+6+~ f P.z+F+B+F+F+B+A ",
"R x+B+y+F+u+S.k.u+x+'+s ~ h.@+p+F+B+y+F+B+f+~ f I.y+z+y+F+F+B+A ",
"R x+B+y+A+g+*.d+p+G.0 ' ~ f |+y+y+B+F+F+y+j+9 ' h.6+q+y+F+F+B+A ",
"R x+B+y+z+k.N.j+0.~ ' ~ } } i.s+B+B+y+B+y+q+T ' 6 <.[+v+F+F+B+A ",
"R x+A+y+1+[.s+:+} ' A 9.p.y.D.a+B+B+y+x+y+w+m.f 2.A.!+u+F+F+B+A ",
"R x+A+z+N.8+z+w+G.2.x..+9+r+m+u+F+y+y+B+y+F+q+X.P.3+y+A+F+B+B+G ",
"R y+z+d+v.F+z+F+v+}+3+v+F+F+F+F+F+F+F+F+F+F+F+v+v+F+F+F+y+y+y+A ",
"R w+z+3+n+z+B+F+F+F+F+y+y+F+F+F+F+F+F+F+F+F+F+F+y+F+F+B+y+F+B+G ",
"V q+x+z+A+B+B+B+B+B+B+B+B+B+B+B+B+B+B+B+B+B+B+B+B+B+B+B+y+B+q+A ",
"' T G R G T T T T T T T T T T T T T T T T T T T T T T T T T H = "};
