/* XPM */
static char * tiaman_xpm[] = {
"96 112 58 1",
" 	c None",
".	c #506274",
"+	c #546778",
"@	c #536878",
"#	c #556877",
"$	c #586A7A",
"%	c #5A6D80",
"&	c #5B7080",
"*	c #5D707E",
"=	c #60707E",
"-	c #617281",
";	c #5E7484",
">	c #627388",
",	c #687686",
"'	c #687788",
")	c #667886",
"!	c #667888",
"~	c #687886",
"{	c #687888",
"]	c #707E8B",
"^	c #70808C",
"/	c #6F8190",
"(	c #728191",
"_	c #788692",
":	c #7A8893",
"<	c #7A8998",
"[	c #7E8C97",
"}	c #808D98",
"|	c #83909B",
"1	c #8A929C",
"2	c #88949E",
"3	c #8995A2",
"4	c #8B98A2",
"5	c #8E99A4",
"6	c #909AA3",
"7	c #939EA8",
"8	c #92A0A9",
"9	c #96A0A7",
"0	c #98A1AA",
"a	c #A1A6AC",
"b	c #9EA7B0",
"c	c #9EA8AD",
"d	c #9FAAB2",
"e	c #A1AAB0",
"f	c #A9AEB3",
"g	c #A7B0B6",
"h	c #A8B0B4",
"i	c #AAB2B9",
"j	c #B0B4B9",
"k	c #B0B7BC",
"l	c #B2B8BB",
"m	c #B5BBC1",
"n	c #B9BBC0",
"o	c #B8C0C3",
"p	c #BAC0C4",
"q	c #C0C4C6",
"r	c #BFC5C8",
"s	c #C1C5C8",
"                                                                                                ",
"                                                                                                ",
"                                                                                                ",
"                                                                                                ",
"                                                                                                ",
"                                                                                                ",
"                                                                                                ",
"                                                                                                ",
"                                                                                                ",
"                                                                                                ",
"                                                                                                ",
"                                                                                                ",
"                                                                                                ",
"                                                                                                ",
"                                          ojjijhj                                               ",
"                                        j6}^~]^{]1l                                             ",
"                                   ssm6[~=,-=-~--=$,<80h                                        ",
"                                h1_^^^{-$$---=-,-$-=-~{{(2i                                     ",
"                             lf6^$.$@$-----~{-*~{-{{*$%=+@_7i                                   ",
"                            7,=&--,{~-{-=--,)&---)----',-->$$8                                  ",
"                           8,$-${--{--{--'=,--!--{-&-!-=----$-{e                                ",
"                         o}~=$-{--'-->---{->&-{)-{-$-{-=-{--{$$(h                               ",
"                         0.--)-{=-!&,{-$~{-&---!-!)--{-$-{--{',-^                               ",
"                         b$-~{----&-'---!--*){&-!-!--{---{-*-,{$-s                              ",
"                         e$----{--{-&-->--{--{>&-{--!--)&~)&=-,--7                              ",
"                         o(&*&-{-->-----)----->-&!&-!-->-{------=~j                             ",
"                          h(=--!-&-&!----{--&-{'&&&){-&->>--{-&--$0                             ",
"                           c{$-{--{&-&-{--{>&-{>--&~>>-&--&-'--{--|                             ",
"                           o_$-{--!&-!&->>-)----&&'--&!-&=&--&!{-$:n                            ",
"                           h(-->-&--,>---'->----->{-&-->--&->-----^h                            ",
"                           [,----;-{--!--{>&--{--{-&>--!{-&-{&&-*-~4                            ",
"                           *$)&&!--{-&-->{-&-'-&>{-&-&{---&-{--{=-$:                            ",
"                          f$$--&{)&---->-------->-~>&&-)-->!-)-->).^                            ",
"                         o(---*->~&>&-{-&--{-&-{--)>----{-!-&{--{~.^                            ",
"                         0$-~-&&~---&-{--{--!-{>&-&*-{-&->-->!--{~.^                            ",
"                        f]$-{{$-~'&->{&>&-{--{>&-!-&&--~&-&-{-&--{$^                            ",
"                        :=-&----->)---&!---&!{-%-{-&->!------&!--{%{                            ",
"                       e{$->->!-&!---&-{-&-->--->!---)>&-!-&-&-)={${s                           ",
"                       6---->!&->!&--{&---{>&-{>----{-&)!-&-{-&!--@^                            ",
"                       i{$----&---&&~{&&>{->-'-'--&--!-&-&-!!&---{${                            ",
"                        }------&!--&--->>--->>---->-&!-->-)-&-!--{&{                            ",
"                        3{--{-&;{>&;--{>&-&{>&>-=-{>&&--!>&&-{>&-{$(                            ",
"                        |>'--&-{--&->~-%>~-=---&->-->{----&--{)&---|                            ",
"                       s]-{$&-!---!-----!-------~-&>{--&&-->&--*-*)0                            ",
"                       6-*'---{&&-{-&&-{--!--{---&>!---!&-!!&&---@}s                            ",
"                      r--&-{----&-{-&&>{--&--{--&>{-&&!--!>&-&)'-$e                             ",
"                      9$->-{--!&&-{-&-{>-&&'--!--{-&---&-{!&-!--!(j                             ",
"                     i{-{-&!--!&--->----&--!--{-&-)>-&!--->&-->--5                              ",
"                     1@-!---&&&--;-!------{-->>---{-&>!-&&->&&{--i                              ",
"                    h^$---!&-&!{--{-&----!-)>&---{-&&----&!{&-)!{                               ",
"                    6,$---{-*-!-&-!!-->{--&->{-&--!-->>)&---->-~6                               ",
"                    o[&--)-&--!--&&)---->--&>-->--!-->-----*-{*(                                ",
"                     l43{)*-{>-!-&!*-{-&-{>-&-{--!-&-{----!&&{-6                                ",
"                        9~&-&>!-&-{&--'---{--'-;&-{--&{-&--&--}l                                ",
"                        l{$->!-&-!-&&-{-&&-'>-&&-!----!>,-&>-%c                                 ",
"                        o}&-)-*&!)&>--!->--->----{-&-'--!>---+i                                 ",
"                         a(-$--&-&-!---&>~-&--{--;'>=&--->-&-$i                                 ",
"                         l<,--!->---'--&--,>%-{>%-{>-&{----&&/o                                 ",
"                         l]-----!{-%-!-&--,>--->>---->-------!o                                 ",
"                         j]&--&&!-*!&-{--)--'-&->{-&-{-&-{--,+8                                 ",
"                          3=-!&{--&{--{-&!&~!-%---&,,-&=-{--{--7                                ",
"                          m&%{{-&--)->{-&>!--->---=,{------&-{$]o                               ",
"                           &%{--&-{-&>{-&->-->-->{----!>-*--&!-)}n                              ",
"                          s$-{&---!-&-!>-=->>----'>--{-&--~>-&{-*(l                             ",
"                          s=${{----!-*-!--$---!----&>{-&-)--&!--&$:n                            ",
"                           -+&--%&-{>-------->----&>{----{-*-{--~-@|                            ",
"                           7(-{]{{{{-%&---!--{-%-{>->-{>-!---->-!,#~s                           ",
"                            l008b07|_{-!-&;--'-->{--&-{--{--{--)-{-={q                          ",
"                                     l^--{&---'->-=->>--!>&-{>&-$~{$$4                          ",
"                                      0~${--$->>-$&{{>&-{-&-{>----~---8                         ",
"                                       (@-{-----{-->,-&>{-&>{&-{-*-~-${h                        ",
"                                      s_-{-*->---{--*-{>&-~>>-&--$,{--=]4                       ",
"                                     d}{--&-{-~-->'-%-{>&-{>--)&{--{--&${}p                     ",
"                                    6{$**--{--{-%--,->-,-->--!--{--'----$$<o                    ",
"                                  c{-{----!-&-'-----{-%-{>&-{>&-{-&-'{'--{--f                   ",
"                                 d-$--*!-&-&-'->--%->{-&-->,&>>!--&&-{--'{+$o                   ",
"                                e]$={{---~&&,{--->=-'---->--)->-&->-$---->-:                    ",
"                               e~=-=,!---{--->---{--'&-,>>-->>&--{-------%(j                    ",
"                              m{%-==-{----{-%>{--{-=-->--->~--&-!---!-&-{$|                     ",
"                              :=-{'{---{-=-{-&{>&-----{{&---)>&-{-$-{-&>{^e                     ",
"                             9---)-'-&-!--&-{-,-----'----&-->-&-{----{--%8                      ",
"                            6,$=--&&-&>{,-&->>---'-&>{--&>{---->{-&-&{-*_s                      ",
"                           h]$-=,--&-&-{>->----->-{---'--{--->--'-&>&~@-                        ",
"                          o]-------!-*---&&&---->--'-&---{-&-{---!--,--4                        ",
"                          |$-{-{-&------$----{-->{--'--->>--->--*>{&!$}                         ",
"                         0$-~-&{-&--&-{---{--'--{&-*-{--{>&--{>---!&-(m                         ",
"                        e]-&-==--&-{--!&-{----&--&-&-{-&-{---!-------k                          ",
"                        -${----&-&--!-&-----------&-!--&---&>--$--$)h                           ",
"                       o_$-{--{!-&---!----{--{->~-&{{-&>&---&---=-]0                            ",
"                        m:-{-&-{-&&{-->--{{-&>-&-&>>!-&--&>,&{{--{h                             ",
"                         r3-$!{-&--{-&---{>>--&-!-&--&-&;&---!-%(l                              ",
"                           e{&---&->!----->&-=&!-&--&!-&-&--&@-|l                               ",
"                            g^->---&>~-%---&--&-&-{--!-&->&&-{6                                 ",
"                              6~$-{---&------{-&-{-&&>>--{-$<                                   ",
"                               o3{-$$-!-!{---''--){---&@+><0                                    ",
"                                 e4^!>-$---$-%--&&>$$&-^38m                                     ",
"                                   l0|{&){->~-*'{>&-~(2o                                        ",
"                                       h941|||<|||9l                                            ",
"                                            s s s                                               ",
"                                                                                                ",
"                                                                                                ",
"                                                                                                ",
"                                                                                                ",
"                                                                                                ",
"                                                                                                ",
"                                                                                                ",
"                                                                                                ",
"                                                                                                ",
"                                                                                                ",
"                                                                                                ",
"                                                                                                ",
"                                                                                                "};
