/* XPM */
static char * tiafavorite_xpm[] = {
"44 43 256 2",
"  	c None",
". 	c #004302",
"+ 	c #034500",
"@ 	c #044600",
"# 	c #054700",
"$ 	c #074800",
"% 	c #004B02",
"& 	c #084901",
"* 	c #FF0000",
"= 	c #FF0000",
"- 	c #FF0009",
"; 	c #004D00",
"> 	c #0A4A02",
", 	c #0B4B03",
"' 	c #024E00",
") 	c #FF0214",
"! 	c #034F00",
"~ 	c #055000",
"{ 	c #114D00",
"] 	c #075000",
"^ 	c #144F00",
"/ 	c #0A5200",
"( 	c #005501",
"_ 	c #015600",
": 	c #0C5301",
"< 	c #0E5402",
"[ 	c #045800",
"} 	c #065900",
"| 	c #135600",
"1 	c #085A00",
"2 	c #1D5400",
"3 	c #0C5C00",
"4 	c #185900",
"5 	c #0F5D01",
"6 	c #115F02",
"7 	c #FF1A00",
"8 	c #186100",
"9 	c #FF1D00",
"0 	c #FF1B14",
"a 	c #425502",
"b 	c #1A6300",
"c 	c #236100",
"d 	c #1C6400",
"e 	c #FF1E1E",
"f 	c #1E6500",
"g 	c #256300",
"h 	c #1F6601",
"i 	c #276400",
"j 	c #FF2026",
"k 	c #226803",
"l 	c #236904",
"m 	c #FD2900",
"n 	c #266A00",
"o 	c #1E6D00",
"p 	c #2F6900",
"q 	c #2A6D00",
"r 	c #316B00",
"s 	c #227000",
"t 	c #2B6F00",
"u 	c #446800",
"v 	c #247202",
"w 	c #FF2E2D",
"x 	c #2E7102",
"y 	c #277405",
"z 	c #F53703",
"A 	c #FE3600",
"B 	c #307305",
"C 	c #2B7500",
"D 	c #FF3135",
"E 	c #4E6B04",
"F 	c #F93B00",
"G 	c #4D6F00",
"H 	c #F23F03",
"I 	c #FF3919",
"J 	c #3E7600",
"K 	c #4A7300",
"L 	c #317B01",
"M 	c #FD3F00",
"N 	c #467600",
"O 	c #FF3B29",
"P 	c #FF3B30",
"Q 	c #F04503",
"R 	c #3B7B03",
"S 	c #8B6500",
"T 	c #377E00",
"U 	c #357E06",
"V 	c #FF3D3D",
"W 	c #7A6B00",
"X 	c #3F7D00",
"Y 	c #FF3E44",
"Z 	c #467C00",
"` 	c #806B00",
" .	c #3A8100",
"..	c #3C8300",
"+.	c #448200",
"@.	c #F24F00",
"#.	c #F94D00",
"$.	c #EB5102",
"%.	c #3E8500",
"&.	c #A76700",
"*.	c #FF4645",
"=.	c #408603",
"-.	c #F65200",
";.	c #548204",
">.	c #488605",
",.	c #5F8005",
"'.	c #A36E00",
").	c #458A00",
"!.	c #4C8800",
"~.	c #FA5501",
"{.	c #ED5900",
"].	c #9A7205",
"^.	c #478C00",
"/.	c #488D00",
"(.	c #4F8C00",
"_.	c #E66004",
":.	c #FF514F",
"<.	c #EC5F00",
"[.	c #768201",
"}.	c #FF5154",
"|.	c #FF5A00",
"1.	c #AE7203",
"2.	c #4B9002",
"3.	c #F45E00",
"4.	c #588D02",
"5.	c #E06804",
"6.	c #4E9308",
"7.	c #F86200",
"8.	c #C27202",
"9.	c #EE6600",
"0.	c #529500",
"a.	c #599400",
"b.	c #CF7100",
"c.	c #E46B00",
"d.	c #C67500",
"e.	c #FF5B5D",
"f.	c #D57100",
"g.	c #609400",
"h.	c #E06E00",
"i.	c #559800",
"j.	c #778F00",
"k.	c #E76E00",
"l.	c #E27000",
"m.	c #DE7200",
"n.	c #579A03",
"o.	c #5E9904",
"p.	c #E57200",
"q.	c #F66D00",
"r.	c #FF6260",
"s.	c #629B00",
"t.	c #AC8502",
"u.	c #5C9D00",
"v.	c #ED7200",
"w.	c #FE6E00",
"x.	c #BC8300",
"y.	c #6A9C00",
"z.	c #659E00",
"A.	c #5FA000",
"B.	c #F77400",
"C.	c #B18900",
"D.	c #D97F00",
"E.	c #FF6A68",
"F.	c #63A301",
"G.	c #C68605",
"H.	c #FF7600",
"I.	c #BA8B00",
"J.	c #65A506",
"K.	c #929B00",
"L.	c #F57E02",
"M.	c #6DA60A",
"N.	c #6FA700",
"O.	c #69A900",
"P.	c #76A600",
"Q.	c #FF7272",
"R.	c #72AA00",
"S.	c #EF8501",
"T.	c #6DAC00",
"U.	c #FF7774",
"V.	c #F28700",
"W.	c #EC8902",
"X.	c #70AF05",
"Y.	c #FF797B",
"Z.	c #76AE06",
"`.	c #7EAD00",
" +	c #F78B00",
".+	c #EE8F00",
"++	c #FF7F7D",
"@+	c #82B100",
"#+	c #7DB300",
"$+	c #E19604",
"%+	c #7FB500",
"&+	c #85B400",
"*+	c #E99700",
"=+	c #82B805",
"-+	c #E99C00",
";+	c #FF8889",
">+	c #8DBB00",
",+	c #FF8D8B",
"'+	c #8FBD00",
")+	c #D7A900",
"!+	c #8BC000",
"~+	c #DCA800",
"{+	c #91BF00",
"]+	c #CFAD00",
"^+	c #CBAF00",
"/+	c #91C400",
"(+	c #CEB200",
"_+	c #C5B600",
":+	c #90C50C",
"<+	c #FF9797",
"[+	c #CCB603",
"}+	c #94C800",
"|+	c #A0C500",
"1+	c #C5BB06",
"2+	c #C0BD04",
"3+	c #97CA00",
"4+	c #FF9C99",
"5+	c #98CB01",
"6+	c #FF9DA0",
"7+	c #BDC009",
"8+	c #B5C400",
"9+	c #99CC04",
"0+	c #9ACD07",
"a+	c #A5CA07",
"b+	c #9CCE00",
"c+	c #9DCF00",
"d+	c #FEA3A3",
"e+	c #9ED000",
"f+	c #B4CA00",
"g+	c #A4CF00",
"h+	c #A5D000",
"i+	c #B0CD00",
"j+	c #A0D200",
"k+	c #A7D100",
"l+	c #A8D200",
"m+	c #FEA9A6",
"n+	c #A9D400",
"o+	c #C3CC05",
"p+	c #AAD504",
"q+	c #ABD607",
"r+	c #ADD700",
"s+	c #FFAEB1",
"t+	c #AED800",
"u+	c #B0D900",
"v+	c #B5D800",
"w+	c #FEB1B2",
"x+	c #B1DA00",
"y+	c #B2DB00",
"z+	c #FFB4B4",
"A+	c #B3DD00",
"B+	c #BADC00",
"C+	c #BBDD03",
"D+	c #BCDE07",
"E+	c #BEDF00",
"F+	c #BFE100",
"G+	c #C1E200",
"                                                        /                               ",
"                                                      ! f ~                             ",
"                                                  ~ : ).A.1                             ",
"                                                ~ b i.A.A.).~                           ",
"                                              ! y i.n.A.A.F.5                           ",
"                                          ~ : ..0.i.n.A.A.F.=.]                         ",
"                                        ! b /.6.0.i.n.A.A.F.F.(                         ",
"                                    ! ! t /./.6.0.i.n.A.A.F.J. .]                       ",
"                                  ! ( L )././.6.0.i.n.A.A.F.J.F.~                 $ .   ",
"                              ! ! f  .=.)././.6.0.i.n.A.A.F.J.O.C ~             & < J $ ",
"                            ! } C  ...=.)././.6.0.i.n.A.A.F.J.O.A.!           & r v+@+> ",
"                    H.v.S 2 f L U  ...=.)././.j.t.x.C.y.A.F.J.O.T.q !       @ 4.F+G+'+$ ",
"                H.|.9 9 I <.d.Z U  ...=.).[.m.-.9 * 9 9.G.F.J.O.T.i.!   @ $ `.G+F+F+'+$ ",
"                A * * ) z+4+O p.,. ...=.].$.* * }.m+;+w F I.J.O.T.X.5 > 4 |+G+F+D+C+'+$ ",
"              {.* * * * 6+z+z+:.k.;.x S z * * e z+z+z+m+0 -.K.O.J.t $ g.D+F+F+D+B+A+'+@ ",
"          ! &.* * * * * j w+z+z+P b.a 3.* * * w z+z+z+z+<+- D.>.! r a+G+F+D+C+A+A+y+'+@ ",
"    ! ! ! } 5.* * * * * * *.z+z+;+@. +* * * * - s+z+z+z+z+V _.^ P.G+F+F+D+B+A+y+y+u+>+@ ",
"! ! / } 3 u H * * * * * * * ++z+d+* w.* * * * * E.z+z+z+z+e.m (+G+F+D+C+A+A+y+u+u+u+&+$ ",
"! ~ } } 3 W 9 * * * * * * * j z+s+* 9 * * * * * ) w+z+z+z+Y.* -+F+D+C+A+y+y+u+u+q+l+P.& ",
"  ! } } 3 ` 9 * * * * * * * * ;+,+* * * * * * * * Y.z+z+z+Q.* *+D+B+A+y+u+u+u+q+l+l+z., ",
"  ! ( } 3 ` 9 * * * * * * * * D e.* * * * * * * * E.z+z+z+V * .+B+A+y+u+u+q+l+l+l+k+a.> ",
"  ! ] } 3 u Q * * * * * * * * * ) * * * * * * * * e.z+z+z+- 9 ~+y+y+u+u+q+l+l+k+k+j+(.$ ",
"    ! } 3 5 5.* * * * * * * * * * * * * * * * * * }.z+z+;+* ~.o+u+u+u+q+l+l+k+j+j+e+X . ",
"    ! / 3 5 '.9 * * * * * * * * * * * * * * * * * }.z+z+j * L.u+u+q+l+l+l+k+j+j+e+0+i   ",
"      ! 3 5 b l.* * * * * * * * * * * * * * * * * E.z+U.* M [+u+q+l+l+k+j+j+j+0+3+}+@   ",
"      ! : 5 b E $.* * * * * * * * * * * * * * * * ;+s+) * W.q+l+l+l+k+g+j+e+0+3+3+R.$   ",
"        ! 5 b f 1.9 * * * * * * * * * * * * * * * m+Y * B.f+l+l+k+k+j+j+e+3+3+3+#+4 &   ",
"        ! ( b f k l.* * * * * * * * * * * * * * w r.* 7.1+l+l+k+g+j+e+0+3+3+}++.@ $     ",
"          ! 5 f h G c.* * * * * * * * * * * * * V * 7.]+l+k+k+j+j+e+3+3+3+N./ &         ",
"          ! ] f h l K k.* * * * * * * * * * * * * q._+l+k+j+j+e+0+3+3+!+B @ $           ",
"            ! 1 h l o K l.* * * * * * * * * * * B.7+k+k+j+j+e+0+3+3+o., &               ",
"              ! f l o s N l.* * * * * * * * * L.f+k+j+j+e+0+3+3+=+i $ @                 ",
"              ! } l o s v N f.9 * * * * * m S.i+k+j+j+e+0+3+}+(.@ %                     ",
"                ! b o s v C i 8.M * * * #.$+k+k+j+j+0+3+3+Z.4 &                         ",
"                  ] o s v C f c )+7.* q.^+k+g+j+e+0+3+:+R @ &                           ",
"                  ! } s v C l 4 q+2+V.8+k+j+j+e+3+3+z.^ >                               ",
"                    ! b v C q ^ l+l+k+j+j+e+0+3+%+i $ @                                 ",
"                      ! l C t @ k+k+j+j+e+0+}+>.@ &                                     ",
"                        ! s y . 3+j+e+0+3+M./ >                                         ",
"                        ! ( C . !+e+0+%+r @ $                                           ",
"                          ! 5 $ #+=+x @ %                                               ",
"                            ! , i @ &                                                   ",
"                              ! &                                                       "};
