/* XPM */
static char * tiaprinter_xpm[] = {
"44 30 149 2",
"  	c None",
". 	c #000000",
"+ 	c #030303",
"@ 	c #0C0C0C",
"# 	c #141414",
"$ 	c #1F1F1F",
"% 	c #202020",
"& 	c #212121",
"* 	c #262626",
"= 	c #2D2D2D",
"- 	c #2E2E2E",
"; 	c #2F2F2F",
"> 	c #373737",
", 	c #3A3A3A",
"' 	c #3F3F3F",
") 	c #414141",
"! 	c #464646",
"~ 	c #474747",
"{ 	c #4E4E4E",
"] 	c #525252",
"^ 	c #585858",
"/ 	c #5D5D5D",
"( 	c #606060",
"_ 	c #616161",
": 	c #626262",
"< 	c #636363",
"[ 	c #646464",
"} 	c #656565",
"| 	c #666666",
"1 	c #676767",
"2 	c #686868",
"3 	c #696969",
"4 	c #6B6B6B",
"5 	c #6E6E6E",
"6 	c #707070",
"7 	c #717171",
"8 	c #727272",
"9 	c #737373",
"0 	c #747474",
"a 	c #757575",
"b 	c #767676",
"c 	c #787878",
"d 	c #797979",
"e 	c #7A7A7A",
"f 	c #7B7B7B",
"g 	c #7C7C7C",
"h 	c #7E7E7E",
"i 	c #7F7F7F",
"j 	c #808080",
"k 	c #818181",
"l 	c #838383",
"m 	c #858585",
"n 	c #868686",
"o 	c #878787",
"p 	c #888888",
"q 	c #898989",
"r 	c #8A8A8A",
"s 	c #8B8B8B",
"t 	c #8C8C8C",
"u 	c #8D8D8D",
"v 	c #919191",
"w 	c #939393",
"x 	c #949494",
"y 	c #959595",
"z 	c #969696",
"A 	c #979797",
"B 	c #989898",
"C 	c #999999",
"D 	c #9A9A9A",
"E 	c #9B9B9B",
"F 	c #9C9C9C",
"G 	c #9D9D9D",
"H 	c #9E9E9E",
"I 	c #9F9F9F",
"J 	c #A0A0A0",
"K 	c #A1A1A1",
"L 	c #A2A2A2",
"M 	c #A3A3A3",
"N 	c #A4A4A4",
"O 	c #A5A5A5",
"P 	c #A6A6A6",
"Q 	c #A7A7A7",
"R 	c #A8A8A8",
"S 	c #A9A9A9",
"T 	c #AAAAAA",
"U 	c #ABABAB",
"V 	c #ACACAC",
"W 	c #ADADAD",
"X 	c #AEAEAE",
"Y 	c #AFAFAF",
"Z 	c #B0B0B0",
"` 	c #B1B1B1",
" .	c #B2B2B2",
"..	c #B3B3B3",
"+.	c #B4B4B4",
"@.	c #B5B5B5",
"#.	c #B6B6B6",
"$.	c #B7B7B7",
"%.	c #B8B8B8",
"&.	c #B9B9B9",
"*.	c #BABABA",
"=.	c #BBBBBB",
"-.	c #BCBCBC",
";.	c #BDBDBD",
">.	c #BEBEBE",
",.	c #BFBFBF",
"'.	c #C0C0C0",
").	c #C1C1C1",
"!.	c #C2C2C2",
"~.	c #C3C3C3",
"{.	c #C4C4C4",
"].	c #C5C5C5",
"^.	c #C6C6C6",
"/.	c #C7C7C7",
"(.	c #C8C8C8",
"_.	c #C9C9C9",
":.	c #CACACA",
"<.	c #CBCBCB",
"[.	c #CCCCCC",
"}.	c #CDCDCD",
"|.	c #CECECE",
"1.	c #CFCFCF",
"2.	c #D0D0D0",
"3.	c #D1D1D1",
"4.	c #D2D2D2",
"5.	c #D3D3D3",
"6.	c #D4D4D4",
"7.	c #D5D5D5",
"8.	c #D6D6D6",
"9.	c #D7D7D7",
"0.	c #D8D8D8",
"a.	c #D9D9D9",
"b.	c #DADADA",
"c.	c #DBDBDB",
"d.	c #DCDCDC",
"e.	c #DDDDDD",
"f.	c #DEDEDE",
"g.	c #DFDFDF",
"h.	c #E1E1E1",
"i.	c #E2E2E2",
"j.	c #E3E3E3",
"k.	c #E4E4E4",
"l.	c #E5E5E5",
"m.	c #E6E6E6",
"n.	c #E7E7E7",
"o.	c #E8E8E8",
"p.	c #EAEAEA",
"q.	c #EBEBEB",
"r.	c #ECECEC",
"                              a.a.0.9.7.5.  S                                           ",
"                          e.g.e.d.(._.9.;. .1.b.:.>.#.Y S N E                           ",
"                      g.k.i.h.).{ q j.` 7.p.r.r.r.r.r.r.r.r.o.@.*.[.[.<.[.              ",
"                    m.n.m.l.o ; ;.m.h.(.!.'.!._.5.m.r.r.r.g.Q S +.[.[.[.[.[.4.0.0.b.}.!.",
"                h.q.q.p.}.' > e.m.m.m.m.m.m.m.m.m.a.(.!.'._.m.7.R [.[.[.}.f.h.b.9.5.1.[.",
"              n.q.o.j.o @ & 8.m.m.m.m.m.m.m.m.m.m.m.m.m.m.m.@.'.|.}.[.5.e.c.9.5.2.}._.^.",
"          }.6.2.[.x = . . g m.m.m.m.m.m.m.m.m.m.m.m.m.m.e.R 5.4.2.1.d.e.0.6.3.}._.^.!.,.",
"      [.[.[.[.E - . . . . 9 m.m.m.m.m.m.m.m.m.m.m.m.m.>.=.5.6.6.7.e.a.7.3.|.:./.~.,.-.&.",
"  [.[.[.=.P Q (.#.v 4 ! % + 6 |.m.m.m.m.m.m.m.m.m.i.R :.[.[.[.8.c.7.4.1.<./.{.'.;.&.@. .",
"....$.x S (.<.[.[.[.[.[.[.].L h f o I _.m.m.m.m.(.+.[.[.[.}.0.9.5.1.<.(.{.).;.*.#...Y U ",
"......A ......+.*.!./.[.[.[.[.[.[.[.[.+.y u l N (.[.[.[.6.8.5.2.[._.].).>.*.$...Y V R O ",
"......A ....D y ` ......+.&.,.^.<.[.[.[.Z Q ;.*.Y (.|.7.6.2.}._.^.!.,.=.$.+.Z W S O L H ",
"......A ....) $ # * ~ 3 r U ........#.u &.:.<.[._.6.5.3.}.:.^.~.,.=.%.@.` W T P M I E C ",
"......A ....I ....Y I l / , = ^ ......v ......@.].4.|.<./.~.'.-.&.@.` X T Q L G u 0 n C ",
"#.....A .................... .] ......v ........].<.(.{.).;.&.#. .Y U Q L E p 6 2 1 o C ",
"!.@...O x x x z W ............K ......v ........).].).;.*.$...Y V R K E C b 1 1 : ( q B ",
">.>.#......... .E x x x B Z ..........v ........'.>.=.$...Z V S K D C C C d [ _ _ : n B ",
"%.*.=.%.................Z B y y y E  .v ........-.%.+.` W S N E C C C C C a : : < < l B ",
"F Y U Q N ` ......................W z B ........&.` X T P I C C C C C C C 7 < } | [ m B ",
"S [.[.[.[.%.X T N J W ..........................#.U Q M E C C C C C C C C a 3 3 3 j C B ",
"I Z :.[.[.[.[.[.%./.&.W S N I U ................+.N J D C C C C C C C C C g 5 l C C C   ",
"H S D x J T #.[.z L L Q V ` >.*.V R N I T ......X F C C C C C C C C C C C v C C C       ",
"T [.[.[.&.X Q B w M U -.[.[.~.{.[.[.[.[.=.V R R X C C C C C C C C C C C C C C           ",
"G ^.[.[.[.[.[.[.J X V N A w N V ~.[.[.[.[.[.[.R ..C x 6 9 C C C C C C C C               ",
"..K I N R  .[.[.B M I M R V L V I z x Q X _.[.N Z k 9 s 0 C C C C C C                   ",
"        ..W G K P U -.[.[.[.].:.[.[.:.` T G y H V c t k e C C C C                       ",
"                +...Q H M Q W ^.[.[.[.[.[.[.[.N V e i d d C C                           ",
"                          +...K J O S  .[.[.[.N V j 8 w C                               ",
"                                    ..X H K P J V C C C                                 ",
"                                            +...V C                                     "};
