/* XPM */
static char * tiawoman_xpm[] = {
"96 112 74 1",
" 	c None",
".	c #465C6D",
"+	c #495E70",
"@	c #4D6172",
"#	c #4E6378",
"$	c #506373",
"%	c #526579",
"&	c #556877",
"*	c #536978",
"=	c #586A7A",
"-	c #5A6B80",
";	c #5B7082",
">	c #606F7F",
",	c #5E707E",
"'	c #61717E",
")	c #607181",
"!	c #5F7588",
"~	c #617688",
"{	c #647688",
"]	c #697685",
"^	c #637887",
"/	c #687886",
"(	c #667988",
"_	c #687989",
":	c #6E7E8D",
"<	c #707E8B",
"[	c #71808B",
"}	c #708290",
"|	c #788693",
"1	c #7A8893",
"2	c #798995",
"3	c #7D8B99",
"4	c #818E9A",
"5	c #82909A",
"6	c #8591A0",
"7	c #89949D",
"8	c #8996A1",
"9	c #8B98A1",
"0	c #8C9AA4",
"a	c #919BA4",
"b	c #919DA8",
"c	c #91A0A9",
"d	c #96A2A9",
"e	c #99A2A9",
"f	c #99A5B0",
"g	c #9BA8AF",
"h	c #9FA8B1",
"i	c #A0A9B1",
"j	c #A2ACB2",
"k	c #A3ACB5",
"l	c #A4AFB9",
"m	c #A9B0B7",
"n	c #A7B1B7",
"o	c #A8B2B8",
"p	c #A7B2BB",
"q	c #B1B6BB",
"r	c #B1B8BE",
"s	c #B1B9C1",
"t	c #B8BFC2",
"u	c #B9C0C6",
"v	c #BBC3CA",
"w	c #C0C7CC",
"x	c #C1C8CE",
"y	c #C5CBD2",
"z	c #C9CDD1",
"A	c #CACECE",
"B	c #CBD1D4",
"C	c #CDD1D4",
"D	c #CED2D8",
"E	c #D1D6D7",
"F	c #D2D6D9",
"G	c #D3D8DB",
"H	c #D8DADE",
"I	c #D8DCE0",
"                                                                                                ",
"                                                                                                ",
"                                                                                                ",
"                                                                                                ",
"                                                                                                ",
"                                                                                                ",
"                                                                                                ",
"                                                                                                ",
"                                                                                                ",
"                                                                                                ",
"                                                                                                ",
"                                                                                                ",
"                                                                                                ",
"                                                                                                ",
"                                                                                                ",
"                                                                                                ",
"                                           I  GyspplsB                                          ",
"                            I    IDusohhcba9dc9[)*&&-39v                                        ",
"                           B)6GBc)********==)^)==-)==***}eqvzG                                  ",
"                           3*(11_**;==;=,;;=';'-)))));;;==-)__3u o8o                            ",
"                          s*)^*=))~_])_^/^))))))))))))__;%#%$&@:8)*)6G                          ",
"                         G5*)_))))))))))))))))^)))))))))))(^^_~*$=)=@6I                         ",
"                         r)))))))))))))))))^))))^~))))))))))))))~);)_@5                         ",
"                         h*)))))_))))^)))))))))))))))))))))))~))~)))^-*8                        ",
"                         o);)))))]))^)))^))/))()))))^^)))/))))~))))))_=%bI                      ",
"                         q);)))))))_)))^^))_);!(^))))/)))^))));(_)))))))=b                      ",
"                         t]=^)))))))))^))))))())))^))))^/)))))))))))))()==l                     ",
"                         I9&'^;))))))))/)))))^)/))^))^)))))^)))))))))))))+c                     ",
"                          a=;))))))))))/)))))()^^)))^^))))/^))~))())))))_$b                     ",
"                         s/'^^)))))))^/))))))~)))))/)))))/)))/~~)_()))))(+9                     ",
"                         q''))))))^))))^^))/))~))~^)))'^/)))^)))_)))()))~+9                     ",
"                         r),))))))))))^))))^)))^))^))^)^^)))^~))()))~))))%h                     ",
"                         x[=,))))^))))/))))))))_/))))^^;))))/~))(;))))))'=i                     ",
"                         G9=,^))^))))))^/))_)))~)))^()))^/)))))^_)))))/)=_v                     ",
"                          o});))))))/^')))))/))())))))^))^))^))))~))))()*2y                     ",
"                          o3)))))))))^)))))))^))^;()))^)))))^!();())))^;*6I                     ",
"                          n_)))))^)))^^))))))))))))^^)))))^^))^))())))))&a                      ",
"                          e='))^)))))^)))^_)^_)^/)))))_)''^^))))))))))^)=i                      ",
"                          j@=]))))))^)))))^))_))()))^)^)))())))_)^)))))))w                      ",
"                          i$,))))))))))/)')^)~)))~))^)))))/^))^()^^))))=_G                      ",
"                          e*-^)))^))/^)))))/^))^))))]_))))/(~))))))))))'_F                      ",
"                          c*)))^))))))^)))/^)))(^)))^))))^)))))^)/)))_)=3                       ",
"                          a%=])))))^))^)))()')~())))^)))(()))))^)))))_='i                       ",
"                         H8$>))))))^))))))~))))^^)))^();))())))))))))]*)v                       ",
"                         F4==)))))))))/)))^))^))^))^)))))^))))^))_/)))=}E                       ",
"                         t/))]))]))^))))))))))))^))^)))))^))))^))(^)))=4                        ",
"                         e=)^))))))/))^'))^))))_^))))))^))))))))));))_&}                        ",
"                        v[=);)))))))'^^))^_)^/))]))//)'^_))))~^^))))))%5                        ",
"                       I3=;^)))))))))))))^))))))))))))))))))))))/))()$}A                        ",
"                      G3=,)))))))))^))))^^))^)^))))))/));())))))^))())o                         ",
"                      y**)))))))))^^)))))^)^))/^))))(^)))))))))))))-=h                          ",
"                       b),)))))))))))))))))^))_))(()))))))))())))))%-I                          ",
"                        4)))))))))))^^))^^)^))^)))))~)))))))))~))_*-f                           ",
"                        m3_))))/)))'^)''^))/^)')^))^))))^)))~))))=)h                            ",
"                        B9_;)))_))))))))))))))^)]^~))))))^))))))))i                             ",
"                        E9))))))))))_)))^/)^^)/))))))(^))))))));)l                              ",
"                        G4=))))))^))^/)))))^))^))^)))^))))~))_))0                               ",
"                         a,^)))))))))~())))))))))^))))))))))/_$}G                               ",
"                         o')))))^)))))))))))))())))))_))~))_^==l                                ",
"                         o)))))))))))))))))(())))_))^_))))))%$c                                 ",
"                         y|=)))))))))))))))_))))^_)))/))))))3o                                  ",
"                          e)))^))))])^)))))))))))))))^])))-3D                                   ",
"                          r/;))))))))))^)]))))))^())))))))(s                                    ",
"                          x])^))))))^)))))~))))))))))^));)3F                                    ",
"                           7==)^)/)^))))))~)))))^)))^)))))cI                                    ",
"                           B}*));))))))^))))))))^())()))-)h                                     ",
"                            B8=*$$-)])^)))))))^)))))^)))))9G                                    ",
"                             Iuh93}==-)))~)))()))^))^)))))3F                                    ",
"                                 Bse3~=;))))~~)))()^^)))))}v                                    ",
"                                    Gg1)))))))))))^)))))))_i                                    ",
"                                      I}%)_))))))))^^)))))_[9I                                  ",
"                                       s}'))))))))))(~()))_-)c                                  ",
"                                       I9'=)))))~))))~~)))))))i                                 ",
"                                       9/))))))))^)^)))))))))))b                                ",
"                                     G9(;)))))())())^)))^)))))-)9y                              ",
"                                    B7-)))))~)))))^)))))^))))));*3s                             ",
"                                   y3=)'))))))~)))())))))))))))))=&d                            ",
"                                  p_*-))))))~)))))))))))))^)))))))@/v                           ",
"                                v9_%-~))))))))~)))(~)))^)]))))))))),[F                          ",
"                               o=.,)^^))))))))))))~(()))))))^)))))(;=b                          ",
"                              s)=)))))))))))))))))~()))))))_))^))))))*a                         ",
"                             i)=)))))))))))))~)))~()))))]))))))))))))-)l                        ",
"                            s)*^))))))))))))))]))()!)()))))))))))))))_$_                        ",
"                            2&_))))))))))))))))))));~_))))))))))))))))=;h                       ",
"                            :@^))))))))(^))))))~))~;)))))))))))))))))_)=[G                      ",
"                            }$/))))))))^))))~))))))())))()))))))))))^_*$c                       ",
"                            _$/)))))))))))))))~)))))()))))))))))()))^=,5I                       ",
"                            1$)))))))))))))))))))))))))))~)))))))))'=,c                         ",
"                            B3*=,))_)))))))));)))))))))))))))~)))))*=i                          ",
"                             Fm}==)()))))))))))))))))))~))~))))))-)8v                           ",
"                               v5~*-;))))))))~))))))))))))))~))==:eI                            ",
"                                If~)));)))))~()))))))))))~)))))=/s                              ",
"                                  Df_$=;)()^{)~))_)//)__/))=%%1sG                               ",
"                                    te4_-=%%==-))))-==*$%=_49hx                                 ",
"                                      zj51_)))));'))))))_4kC                                    ",
"                                          Bvsia1}}<8iquH                                        ",
"                                               GDFDI                                            ",
"                                                                                                ",
"                                                                                                ",
"                                                                                                ",
"                                                                                                ",
"                                                                                                ",
"                                                                                                ",
"                                                                                                ",
"                                                                                                ",
"                                                                                                ",
"                                                                                                ",
"                                                                                                ",
"                                                                                                ",
"                                                                                                ",
"                                                                                                ",
"                                                                                                "};
