/* XPM */
static char * txaemail_xpm[] = {
"45 35 256 2",
"  	c None",
". 	c #000100",
"+ 	c #060000",
"@ 	c #000200",
"# 	c #070000",
"$ 	c #090100",
"% 	c #010400",
"& 	c #020501",
"* 	c #0A0301",
"= 	c #0C0503",
"- 	c #050804",
"; 	c #0E0705",
"> 	c #170701",
", 	c #0F0907",
"' 	c #130A00",
") 	c #0D0C00",
"! 	c #140B02",
"~ 	c #190A03",
"{ 	c #140C03",
"] 	c #210907",
"^ 	c #190C05",
"/ 	c #100F05",
"( 	c #150E05",
"_ 	c #160F06",
": 	c #1B0E07",
"< 	c #121107",
"[ 	c #1F0D09",
"} 	c #171008",
"| 	c #1B0F09",
"1 	c #181109",
"2 	c #210F04",
"3 	c #1E1003",
"4 	c #1F0F0B",
"5 	c #14130A",
"6 	c #2C0C09",
"7 	c #18120A",
"8 	c #1B1203",
"9 	c #290E09",
"0 	c #261007",
"a 	c #231107",
"b 	c #1C1405",
"c 	c #1C1407",
"d 	c #2B100C",
"e 	c #191607",
"f 	c #2D1105",
"g 	c #28120B",
"h 	c #1D1609",
"i 	c #2A1305",
"j 	c #201705",
"k 	c #241605",
"l 	c #2B1407",
"m 	c #2F130A",
"n 	c #391107",
"o 	c #30140C",
"p 	c #34130D",
"q 	c #221907",
"r 	c #371408",
"s 	c #231A09",
"t 	c #3B130B",
"u 	c #341608",
"v 	c #231B0A",
"w 	c #3C140C",
"x 	c #38160B",
"y 	c #261C05",
"z 	c #41130F",
"A 	c #39160C",
"B 	c #281B0D",
"C 	c #3D150E",
"D 	c #35180A",
"E 	c #271D07",
"F 	c #251D0E",
"G 	c #3F160F",
"H 	c #44150B",
"I 	c #49140E",
"J 	c #41170A",
"K 	c #46160D",
"L 	c #2C1E0B",
"M 	c #291F0A",
"N 	c #46170E",
"O 	c #4B1610",
"P 	c #4C1711",
"Q 	c #4E170C",
"R 	c #2C220E",
"S 	c #2C220F",
"T 	c #4F180D",
"U 	c #54170F",
"V 	c #2D2310",
"W 	c #561911",
"X 	c #30250C",
"Y 	c #581A12",
"Z 	c #541D12",
"` 	c #5F1A10",
" .	c #5A1C0F",
"..	c #312909",
"+.	c #332810",
"@.	c #601B11",
"#.	c #611B12",
"$.	c #5C1D10",
"%.	c #302A11",
"&.	c #342911",
"*.	c #631D13",
"=.	c #362B13",
"-.	c #372B13",
";.	c #641E14",
">.	c #382C0F",
",.	c #6B1D12",
"'.	c #6A1D16",
").	c #3A2D10",
"!.	c #6C1E12",
"~.	c #3A2E11",
"{.	c #6D1F13",
"].	c #373011",
"^.	c #3D2F0C",
"/.	c #6E2014",
"(.	c #393112",
"_.	c #3D3013",
":.	c #393213",
"<.	c #702215",
"[.	c #3B330E",
"}.	c #3C330F",
"|.	c #762118",
"1.	c #3B3314",
"2.	c #722316",
"3.	c #3D3410",
"4.	c #413310",
"5.	c #792214",
"6.	c #403315",
"7.	c #782219",
"8.	c #3E3510",
"9.	c #7A2315",
"0.	c #40360B",
"a.	c #802217",
"b.	c #3F3612",
"c.	c #7B2415",
"d.	c #443512",
"e.	c #822318",
"f.	c #7C2516",
"g.	c #42380E",
"h.	c #413813",
"i.	c #832419",
"j.	c #43390F",
"k.	c #443A10",
"l.	c #483916",
"m.	c #453B10",
"n.	c #463C11",
"o.	c #493B17",
"p.	c #4B3B12",
"q.	c #4A3B18",
"r.	c #473D12",
"s.	c #4C3C13",
"t.	c #493E0C",
"u.	c #483E13",
"v.	c #4D3D14",
"w.	c #4B3F0E",
"x.	c #504017",
"y.	c #4D4217",
"z.	c #504413",
"A.	c #53431A",
"B.	c #554415",
"C.	c #50451A",
"D.	c #55441B",
"E.	c #58471E",
"F.	c #59481E",
"G.	c #564A19",
"H.	c #5D4A15",
"I.	c #584C1B",
"J.	c #5D4B1C",
"K.	c #5A4D15",
"L.	c #594D1C",
"M.	c #604D17",
"N.	c #5F4D1E",
"O.	c #624F19",
"P.	c #5F511A",
"Q.	c #625020",
"R.	c #645222",
"S.	c #645517",
"T.	c #63551D",
"U.	c #69551F",
"V.	c #65571F",
"W.	c #675819",
"X.	c #6B5721",
"Y.	c #69591B",
"Z.	c #675921",
"`.	c #6C5822",
" +	c #6B5B1D",
".+	c #6E5A24",
"++	c #6D5D1F",
"@+	c #715C26",
"#+	c #6F5E19",
"$+	c #6E5E20",
"%+	c #725D27",
"&+	c #745E22",
"*+	c #75641F",
"=+	c #776519",
"-+	c #7A6427",
";+	c #776621",
">+	c #7C6529",
",+	c #7A681B",
"'+	c #7D662A",
")+	c #806825",
"!+	c #826A27",
"~+	c #806D21",
"{+	c #806D28",
"]+	c #826E22",
"^+	c #836F1C",
"/+	c #836F23",
"(+	c #86711E",
"_+	c #847125",
":+	c #87721F",
"<+	c #867226",
"[+	c #887428",
"}+	c #8B772B",
"|+	c #8D7825",
"1+	c #8D792D",
"2+	c #8F7A27",
"3+	c #927C21",
"4+	c #917C29",
"5+	c #937D22",
"6+	c #937D2A",
"7+	c #957F2C",
"8+	c #978025",
"9+	c #96802D",
"0+	c #98822F",
"a+	c #9A8328",
"b+	c #998330",
"c+	c #9C852B",
"d+	c #9D862C",
"e+	c #9E872D",
"f+	c #A08826",
"g+	c #9F882E",
"h+	c #A0892F",
"i+	c #A38A1F",
"j+	c #A28A28",
"k+	c #A38B29",
"l+	c #A58C2A",
"m+	c #A68D22",
"n+	c #A68D2B",
"o+	c #A78E2C",
"p+	c #A88F2D",
"q+	c #AB9127",
"r+	c #AA912F",
"s+	c #AC9228",
"t+	c #AE942A",
"u+	c #AF952B",
"v+	c #B1962D",
"w+	c #B3982F",
"x+	c #B59927",
"y+	c #B79B29",
"z+	c #B89C2B",
"A+	c #BA9E2D",
"B+	c #BC9F2E",
"C+	c #BFA127",
"D+	c #C0A228",
"E+	c #C2A42B",
"F+	c #C3A52C",
"G+	c #C5A72E",
"@ @ @ @ @ @ @ @ @ @ @ @ @ @ @ @ @ @ @ @ @ @ @ @ @ @ @ @ @ @ @ @ @ @ @ @ @ @ @ @ @ @ @ @ @ ",
"@ @ @ @ @ @ @ @ @ @ @ @ @ @ @ @ @ @ @ @ @ @ @ @ @ @ @ @ @ @ @ @ @ @ @ @ @ @ @ @ @ @ @ @ @ ",
"@ @ # @ V -.-.-.-.-.-.-.-.-.-.-.-.-.-.-.-.-.-.-.-.-.-.-.-.-.-.-.-.-.-.-.-.-.-.-.V @ # @ @ ",
"@ @ g.< # x.!+!+!+!+!+!+!+!+!+!+!+!+!+.+J.D.l.6.D.U.'+!+!+!+!+!+!+!+!+!+!+!+!+x.# < g.@ @ ",
"@ @ w.F+0.@ S )+!+!+!+!+!+!+!+!+N.+.! [ p z O T w g ! ! B R.!+!+!+!+!+!+!+)+S @ 0.F+w.@ @ ",
"@ @ t.G+G+=+@ ) &+!+!+!+!+!+J.8 g Y c.i.i.i.9.f.i.i.i.f.*.[ S %+!+!+!+!+&+) @ =+G+G+t.@ @ ",
"@ @ u.F+F+F+i+) @ E.!+!+>+F 0 ,.i.9.U w 0 , _ ! ! 0 r W i.i.W ! _.)+!+E.@ ) i+F+F+F+u.@ @ ",
"@ @ r.E+E+E+E+B+..@ %.`._ Q i.i.U , -.D.X.)+!+!+)+`.E.S : '.i.f.p ).%.@ ..B+E+E+E+E+r.@ @ ",
"@ @ r.D+D+D+D+D+D+S.@ = *.i./.2 L &+!+!+!+!+!+!+!+!+!+!+Q.1 r i.e.> @ S.D+D+D+D+D+D+r.@ @ ",
"@ @ n.C+C+C+C+C+C+v+1 *.i.W ! J.!+!+!+!+!+!+!+)+)+!+!+!+!+)+S K i.2.! m+C+C+C+C+C+C+n.@ @ ",
"@ @ m.B+B+B+B+B+B+X Z i.*.$ -.!+!+!+!+`.q.X 1 ; ! , ( X E.>+).$ {.i.$.M B+B+B+B+B+B+m.@ @ ",
"@ @ m.B+B+B+B+B+^+i i.c.( r.@ e >+>+).! H $.|.i.i.i.c.` 9 ; @ b.2 i.i.3 f+B+B+B+B+B+m.@ @ ",
"@ @ k.z+z+z+z+z+c !.i.J M.z+(+& & , t f.i.i.i.i.i.i.i.i.I $ (+z+q 5.i.K O.z+z+z+z+z+k.@ @ ",
"@ @ k.z+z+z+z+:+m i.9._ v+z+z+|+= !.i.i.5.w [ ; ~ |.i.i.6 =+z+z+d.@.i.*.).z+z+z+z+z+k.@ @ ",
"@ @ g.x+x+x+x+p.W i.U v.x+x+v+s @.i.i.;.! q.@+!+! a.i.i.3 j+x+x+W.K i.2.y x+x+x+x+x+g.@ @ ",
"@ @ g.w+w+w+w+( 9.i.o (+w+w+H.x i.i.9.* - `.!+U.= i.i.i.! w+w+w+]+x i.9.k w+w+w+w+w+g.@ @ ",
"@ @ g.v+v+v+l+: i.i.: l+v+v+_ f.i.i.A G./ @ +.@ ] i.i./.M v+v+v+#+K i.;.^.v+v+v+v+v+g.@ @ ",
"@ @ h.v+v+v+3+i i.i.! v+v+f+3 i.i.i.! q+q+(.@ s J i.i.Y p.v+v+v+B.W i.T K.v+v+v+v+v+h.@ @ ",
"@ @ b.v+v+v+]+D i.i.! v+v+,+x i.i.7.b v+v+v+5+( |.i.i.H  +v+v+v+y !.i.G ;+v+v+v+v+v+b.@ @ ",
"@ @ b.q+q+q+]+u i.i.~ l+q+K.O i.i.5.1 q+q+q+Y.r i.i.i.w *+q+q+<+0 i.c.! a+q+q+q+q+q+b.@ @ ",
"@ @ b.r+r+r+2+g i.i.o ]+r+ +G i.i.i.2  +l+;+! /.i.i.i.A ;+r+c+h #.i.J x.r+r+r+r+r+r+b.@ @ ",
"@ @ 3.n+n+n+g+! i.i.K P.n+<+a i.i.i.,.o ; g /.,.d i.i.K ).z.( W i.<.( f+n+n+n+n+n+n+3.@ @ ",
"@ @ 3.l+l+l+l+q /.i.$.^.l+l+E @.i.i.i.i.i.i.;._ 1 <.i.f.Q O <.i.#.! *+l+l+l+l+l+l+l+3.@ @ ",
"@ @ 3.l+l+l+l+I.H i.c.! <+l+|+! T i.i.i.{.O 1 |+++[ #.a.i.a.'.w q |+l+l+l+l+l+l+l+l+3.@ @ ",
"@ @ 3.l+l+l+l+6+! c.i.*.8 d+l+8+).! : , E z.6+l+l++++.! : ( +.L.g+l+l+l+l+l+l+l+l+l+3.@ @ ",
"@ @ }.h+h+h+h+h+C.t i.i.J b.h+h+h+h+6+e+h+h+h+h+h+h+h+d+7+h+h+h+h+h+h+h+h+h+h+h+h+h+}.@ @ ",
"@ @ }.g+g+g+g+g+c+h Y i.e.f M /+g+g+g+g+g+g+g+g+g+g+g+g+g+g+g+g+g+g+g+g+g+g+g+g+g+g+}.@ @ ",
"@ @ (.d+d+d+d+d+d+6+8 $.i.i.@.~ 4.[+c+d+d+d+d+d+d+6+T.+./+d+d+d+d+d+d+d+d+d+d+d+d+d+(.@ @ ",
"@ @ (.c+c+c+c+c+c+c+}+F i /.i.e.P 2 , b +.l._.S c ~ A n s.c+c+c+c+c+c+c+c+c+c+c+c+c+(.@ @ ",
"@ @ (.b+b+b+b+b+b+b+b+b+Y._ t 9.i.i.i.5.*.W ` ,.|.i.i.@.! b+b+b+b+b+b+b+b+b+b+b+b+b+(.@ @ ",
"@ @ (.0+0+0+0+0+0+0+0+0+0+7+C.! a x P #.|.<.'.` U r ! M G.7+0+0+0+0+0+0+0+0+0+0+0+0+(.@ @ ",
"@ @ (.9+9+9+9+9+9+9+9+9+9+9+9+7+{+Z.y.&.h q S ).d.V.1+9+9+9+9+9+9+9+9+9+9+9+9+9+9+9+(.@ @ ",
"@ @ 5 1.1.1.1.1.1.1.1.1.1.1.1.1.1.1.1.1.1.1.1.1.1.1.1.1.1.1.1.1.1.1.1.1.1.1.1.1.1.1.5 @ @ ",
"@ @ @ @ @ @ @ @ @ @ @ @ @ @ @ @ @ @ @ @ @ @ @ @ @ @ @ @ @ @ @ @ @ @ @ @ @ @ @ @ @ @ @ @ @ ",
"@ @ @ @ @ @ @ @ @ @ @ @ @ @ @ @ @ @ @ @ @ @ @ @ @ @ @ @ @ @ @ @ @ @ @ @ @ @ @ @ @ @ @ @ @ "};
