/* XPM */
static char * tiamouse_xpm[] = {
"33 49 60 1",
" 	c None",
".	c #AAAAAA",
"+	c #AEAEAE",
"@	c #AFAFAF",
"#	c #B0B0B0",
"$	c #B1B1B1",
"%	c #B2B2B2",
"&	c #B3B3B3",
"*	c #B4B4B4",
"=	c #B5B5B5",
"-	c #B6B6B6",
";	c #B7B7B7",
">	c #B8B8B8",
",	c #B9B9B9",
"'	c #BABABA",
")	c #BBBBBB",
"!	c #BCBCBC",
"~	c #BDBDBD",
"{	c #BEBEBE",
"]	c #BFBFBF",
"^	c #C0C0C0",
"/	c #C1C1C1",
"(	c #C2C2C2",
"_	c #C3C3C3",
":	c #C4C4C4",
"<	c #C5C5C5",
"[	c #C6C6C6",
"}	c #C7C7C7",
"|	c #C8C8C8",
"1	c #C9C9C9",
"2	c #CACACA",
"3	c #CBCBCB",
"4	c #CCCCCC",
"5	c #CDCDCD",
"6	c #CECECE",
"7	c #CFCFCF",
"8	c #D0D0D0",
"9	c #D1D1D1",
"0	c #D2D2D2",
"a	c #D3D3D3",
"b	c #D4D4D4",
"c	c #D9D9D9",
"d	c #E9E9E9",
"e	c #EAEAEA",
"f	c #EDEDED",
"g	c #F1F1F1",
"h	c #F2F2F2",
"i	c #F3F3F3",
"j	c #F4F4F4",
"k	c #F5F5F5",
"l	c #F6F6F6",
"m	c #F7F7F7",
"n	c #F8F8F8",
"o	c #F9F9F9",
"p	c #FAFAFA",
"q	c #FBFBFB",
"r	c #FCFCFC",
"s	c #FDFDFD",
"t	c #FEFEFE",
"u	c #FFFFFF",
"            }<                   ",
"            ])                   ",
"            _'                   ",
"            1{                   ",
"    6|      <~      !6           ",
"    4*3     ^^     !=[           ",
"     7~:    /_    /<_            ",
"      1,4   ^/   |%}             ",
"       5(^  ;~  /@7              ",
"        -(c _3 _)a               ",
"         _%    |1                ",
"                                 ",
":^(}}/{/_/       2>}<{_<<~6      ",
"(!,)]]^/->  ]]!  /%<~>^!]=[      ",
"            -2)_                 ",
"         6+ 1'><!                ",
"        ^-9 14n:)(               ",
"       3%4  ]>uq<[=              ",
"      ]*a   ^;uuq*2{             ",
"     ):}    []pqut][{            ",
"    ~;[     ()rutul{[]           ",
"    6[      ^~uuptuj{2*          ",
"            ^(uinurut=[<         ",
"            ,!uqttttuq()6        ",
"            /~usumtupun|'5       ",
"            /~usuruunuuh](4      ",
"            /~ussuuursuuk}]/     ",
"            /~usuuqtuunsus]]]    ",
"            /~usuuqtuunsmnq~^^   ",
"            /~ussuuursuunuuu|^_  ",
"            /~usuruunuuhumung::3 ",
"            /~usumtupun|~/^<!~']^",
"            ^}uuuuuiou@}]~{:1.1_ ",
"            /~souqjuuqs{;        ",
"            /,upu'((duu~1        ",
"            ~/ui'|[#2fum*/       ",
"            '<i0~} <_uku3=       ",
"            '(2->   $+utu_1      ",
"            ~(=7    8]htk3&      ",
"            /},      ~:uut['     ",
"                     |~sus}]     ",
"                      //huu]^    ",
"                      c;ureb!    ",
"                       <&uus/2   ",
"                       1'uqk:=   ",
"                        ]3kur5^  ",
"                        !!l1>'7  ",
"                         !<)/,   ",
"                         ^]/     "};
