/* XPM */
static char * tiatree_xpm[] = {
"44 40 256 2",
"  	c None",
". 	c #000100",
"+ 	c #100500",
"@ 	c #080B07",
"# 	c #100A08",
"$ 	c #0B0D0A",
"% 	c #190A03",
"& 	c #0C0F0B",
"* 	c #06110C",
"= 	c #130E0C",
"- 	c #0E100C",
"; 	c #200D01",
"> 	c #10110E",
", 	c #1D0F01",
"' 	c #15100F",
") 	c #0B1410",
"! 	c #181109",
"~ 	c #111310",
"{ 	c #061804",
"] 	c #161211",
"^ 	c #09170B",
"/ 	c #1D110C",
"( 	c #121411",
"_ 	c #131412",
": 	c #19130B",
"< 	c #071905",
"[ 	c #11160D",
"} 	c #1C1405",
"| 	c #281102",
"1 	c #0F1807",
"2 	c #011D03",
"3 	c #141614",
"4 	c #201408",
"5 	c #191514",
"6 	c #1B150F",
"7 	c #261303",
"8 	c #1F1410",
"9 	c #051D0B",
"0 	c #0F1A10",
"a 	c #25140B",
"b 	c #121916",
"c 	c #161815",
"d 	c #191903",
"e 	c #151911",
"f 	c #171816",
"g 	c #0D1C0C",
"h 	c #1B1716",
"i 	c #22160C",
"j 	c #26150E",
"k 	c #311303",
"l 	c #181917",
"m 	c #121C13",
"n 	c #0C1F07",
"o 	c #1A1A13",
"p 	c #1D1918",
"q 	c #291709",
"r 	c #24180F",
"s 	c #151C19",
"t 	c #191B18",
"u 	c #171C15",
"v 	c #2F1705",
"w 	c #391503",
"x 	c #341608",
"y 	c #062406",
"z 	c #0F2200",
"A 	c #201C0B",
"B 	c #09230C",
"C 	c #14200B",
"D 	c #141F16",
"E 	c #122012",
"F 	c #2C190E",
"G 	c #321901",
"H 	c #10220C",
"I 	c #2D1A07",
"J 	c #002802",
"K 	c #172105",
"L 	c #361803",
"M 	c #1C2006",
"N 	c #0E2314",
"O 	c #2B1C08",
"P 	c #0B250F",
"Q 	c #321A0A",
"R 	c #381905",
"S 	c #291E00",
"T 	c #142409",
"U 	c #142314",
"V 	c #122410",
"W 	c #3A1A00",
"X 	c #351B05",
"Y 	c #391A07",
"Z 	c #09280C",
"` 	c #252009",
" .	c #022C00",
"..	c #10270B",
"+.	c #3F1A03",
"@.	c #172603",
"#.	c #132612",
"$.	c #321E06",
"%.	c #062B07",
"&.	c #0E2813",
"*.	c #3C1C03",
"=.	c #411B00",
"-.	c #401B04",
";.	c #461A00",
">.	c #0E2A07",
",.	c #152908",
"'.	c #072D0A",
").	c #471B01",
"!.	c #032F04",
"~.	c #1C2800",
"{.	c #242600",
"].	c #431D00",
"^.	c #003100",
"/.	c #0F2C0A",
"(.	c #0D2C11",
"_.	c #1A2909",
":.	c #481C03",
"<.	c #092E0C",
"[.	c #132B10",
"}.	c #4A1D00",
"|.	c #132D04",
"1.	c #0A2F0D",
"2.	c #0D2F05",
"3.	c #003402",
"4.	c #112E0C",
"5.	c #4B1E00",
"6.	c #063209",
"7.	c #113000",
"8.	c #202C00",
"9.	c #043500",
"0.	c #511E02",
"a.	c #1C2E00",
"b.	c #0F3109",
"c.	c #4C2000",
"d.	c #023605",
"e.	c #0D3210",
"f.	c #262D01",
"g.	c #08350C",
"h.	c #033707",
"i.	c #422500",
"j.	c #532000",
"k.	c #003900",
"l.	c #0C3505",
"m.	c #552100",
"n.	c #0A360D",
"o.	c #2C2D03",
"p.	c #163400",
"q.	c #12340C",
"r.	c #003B02",
"s.	c #053909",
"t.	c #083901",
"u.	c #562200",
"v.	c #153506",
"w.	c #0E3707",
"x.	c #003C03",
"y.	c #412900",
"z.	c #223300",
"A.	c #0D3810",
"B.	c #2B3100",
"C.	c #1E3500",
"D.	c #073B0B",
"E.	c #193701",
"F.	c #013E06",
"G.	c #093C0C",
"H.	c #0C3C04",
"I.	c #004000",
"J.	c #023F07",
"K.	c #123A0B",
"L.	c #243602",
"M.	c #323203",
"N.	c #0D3D06",
"O.	c #2A3503",
"P.	c #173B00",
"Q.	c #044109",
"R.	c #004302",
"S.	c #123E00",
"T.	c #084101",
"U.	c #014400",
"V.	c #0A4202",
"W.	c #004505",
"X.	c #07430B",
"Y.	c #213D01",
"Z.	c #044600",
"`.	c #2F3A01",
" +	c #004900",
".+	c #0A450D",
"++	c #024807",
"@+	c #233F03",
"#+	c #104500",
"$+	c #064800",
"%+	c #0F4606",
"&+	c #004B02",
"*+	c #054909",
"=+	c #004C00",
"-+	c #264100",
";+	c #004C03",
">+	c #064A0A",
",+	c #0A4A02",
"'+	c #144801",
")+	c #004E04",
"!+	c #024E00",
"~+	c #034F00",
"{+	c #0D4C04",
"]+	c #1D4801",
"^+	c #015006",
"/+	c #055000",
"(+	c #005200",
"_+	c #075000",
":+	c #035107",
"<+	c #005300",
"[+	c #134E00",
"}+	c #005401",
"|+	c #0A5200",
"1+	c #005502",
"2+	c #005704",
"3+	c #035700",
"4+	c #0E5503",
"5+	c #065900",
"6+	c #005B00",
"7+	c #045A07",
"8+	c #095A00",
"9+	c #005D00",
"0+	c #005F01",
"a+	c #005F02",
"b+	c #0E5D00",
"c+	c #006103",
"d+	c #056100",
"e+	c #036205",
"f+	c #086200",
"g+	c #006500",
"h+	c #0A6300",
"i+	c #006600",
"j+	c #006700",
"k+	c #0C6400",
"l+	c #006800",
"m+	c #006901",
"n+	c #006A02",
"o+	c #026B03",
"p+	c #046C05",
"q+	c #0A6C00",
"r+	c #006F00",
"s+	c #007000",
"t+	c #007100",
"u+	c #007200",
"v+	c #007300",
"w+	c #027502",
"x+	c #057604",
"y+	c #007800",
"z+	c #007900",
"A+	c #007A00",
"B+	c #007B00",
"C+	c #007C00",
"D+	c #007D00",
"E+	c #017E00",
"F+	c #047F01",
"G+	c #078002",
"                                        y                                               ",
"                                  i+$+'.x+3.}+9     ^.                                  ",
"                              '.A+G+G.g.D+D+q+F.!.A+j+d.R.                              ",
"                            h.}+^+)+2+}+G.x+b.2+A+G+v+D+h+                              ",
"                    R.u+2+n+F+G+G+G+w+^+t D t t D )+n.l.h.                              ",
"              h+/+1+;+F+G+G+G+7+Q.A.E t U .+X.e.t ..( @                                 ",
"              5+++e+B+F+G+G+A+*+++1+:+%+v+G+G+G+e.D E >                                 ",
"          Z.    ,+A+G+G+G+G+G+G+G+G+G+l+%._.f.q.c+9+i+s+s+n+1+                          ",
"        9+5+s+s+G+G+G+A+|+a.v.&.H.A+G+D+l+Y.5.v $+_+1+h+c+9+h+                          ",
"              6.l+D+|+K d W R O 2.,.N.v.z.y.i.w.;+g (.<.P >+++6+n+5+      6+            ",
"          Z.&+9+K.V m h i @.E.X F 7 I O L.0+G+G+D+G+G+D+h.h.G+1+  1+~+5+ +              ",
"          > ) ^ t c c > _ g 7 +., & q 8.`.,+B+q+h+e+n.:+F.U )+,+|+/+}+/+                ",
"          -   >   &           ).    $+w+k+v+x.b u g._ #.U #.X.^+7+A+W.J.                ",
"          &                           p.B.4+> l.t+F+1+X.A.(.t D D.N.                    ",
"          y %+j+:+w.A 8 ' >     |     T.[+b+5+t+G+G+E+F.N u b l t t >                   ",
"          x.s.1+G.>+++C a a ;.F v a   |.Y.u+F+G+G+G+G+A+E s.v+o+j+d.>.(                 ",
"          # ' : / 8 / ! = 4 / v M.-+'+_+E+G+G+G+G+G+G+D+v+G+G+G+G+G+G+l+                ",
"        $ f l > _ ( _ f t s /.:+G+G+G+G+G+G+v+G+G+G+G+G+G+G+G+G+G+G+G+G+9+              ",
"            _ [.4.` Y R L v M b+G+F+2+n+t+x+Z.0+'+S.N.A+j+)+J.J.b+0+G+G+s+j+I.          ",
"        8+:+8+{+~.% _ t h c s T {.Y.[ 4.[+S     c.u.).7.E+s+'.c t #.n.1...Q.o+          ",
"    s+8+0+Q.E   - f _ f > > > 3   :.: 5 u.q     u.  @ [.,+i+o+$+<.>.  _+x+  0  .        ",
"  $+^+b _ f   > ( @ & _   &   (   v Y ] 0.a _ +.:.  < Z   w.G+G+h+D+j+s+G+t+            ",
"  B     &         - > ' ! /         O.i 5.r # c.4     ].$.%+G+G+G+G+G+G+G+G+q+h+        ",
"                  f o ,.T.|+    #+A+j+C.:.r A o.m 6 5.  ~+0+T.D+G+G+x+G+G+l+j+          ",
"                3 t l.E+G+s+j+0+j+<+h+b+k+0+s+A+$+-.w     9+F+G+G+G+<+9+<+~+            ",
"          - c >.}+7+j+G+w+_+  1+  P.i+]+@+~.i.~+  :.      k.}+5+}+n+A+                  ",
"               +9+<+s+9+h+G+G+s+0+[+$+E.b+|+c.  S ;.        ~+G+u+h+5+R.t+j+k.          ",
"      <+x+9+J     9+j+o+&+5+G+#+_+S.c.G u.{.;.  ).    c.].z 5+D+j+1+t+G+G+5+5+h+        ",
"  I. +l+u+                &+)+$+k ].w u.5.c./   5.  +.    $ H ,+n+J.V.w+G+w+h+v+s+      ",
"  k.<+G+s+                T.1.u $   +.5.u.:.> F Y   ].      )+4+h+J.{ _+G+G+G+h+s+k.    ",
"      l+      =+9+o+B+G+E+2+}+/+} | k m.u.Q p ].4 L ).        & 3 - %.l+G+w+3.9+/+2     ",
"            9+t+D+l+B g g > =   L ;.).].u.x q -.v 5.    h+    > _ > r.v+G+x+^.          ",
"              j+w+    1 <.H.t.      L u.u.+.].c.*.|   h+s+A+h+G.e c 3 6.E+~+1+          ",
"                      A+G+G+6._       :.u.u.).].h   9.j+s+9+6+w+D+q+}+D+G+9+g.          ",
"                    }+q+w+~+  & > $   ;.u.0.].|   _+o+<+A+G+s+B+G+G+G+G+G+G+*+s _ @     ",
"                                      ].u.;.;.  k.  _ > V.4.* 1+G+G+G+G+B+<+n f 3 $ $   ",
"                                      ).u.:.].      -   $ (   $+9+$+s+p+G+D+A+)+        ",
"                                      +.u.u.                          h+h+              ",
"                                  . . % ; ; + . . . . .         . . .                   ",
"                                                        . . . . . . . . .               "};
