/* XPM */
static char * tiaworld_xpm[] = {
"44 41 256 2",
"  	c None",
". 	c #192D41",
"+ 	c #1E3449",
"@ 	c #203952",
"# 	c #2A3D51",
"$ 	c #253E57",
"% 	c #2C445D",
"& 	c #2A4659",
"* 	c #284664",
"= 	c #2D5163",
"- 	c #2D5175",
"; 	c #3A4F64",
"> 	c #305271",
", 	c #39516B",
"' 	c #265863",
") 	c #315579",
"! 	c #35597D",
"~ 	c #2D5E6A",
"{ 	c #42586D",
"] 	c #1C6C47",
"^ 	c #425C76",
"/ 	c #3B5E83",
"( 	c #3D5F7E",
"_ 	c #36618A",
": 	c #496075",
"< 	c #227341",
"[ 	c #47637D",
"} 	c #3C658F",
"| 	c #306E6C",
"1 	c #4F667B",
"2 	c #257750",
"3 	c #23794C",
"4 	c #456C95",
"5 	c #4F6B85",
"6 	c #287D50",
"7 	c #1E8253",
"8 	c #43709B",
"9 	c #477095",
"0 	c #4D6F8F",
"a 	c #267F64",
"b 	c #46747D",
"c 	c #377888",
"d 	c #3F7598",
"e 	c #25835B",
"f 	c #52718B",
"g 	c #377E69",
"h 	c #34815A",
"i 	c #258562",
"j 	c #597389",
"k 	c #567690",
"l 	c #527797",
"m 	c #32838B",
"n 	c #308960",
"o 	c #587A82",
"p 	c #3F7FA1",
"q 	c #2D8C68",
"r 	c #4B7DA7",
"s 	c #477FB1",
"t 	c #328B7A",
"u 	c #597C9C",
"v 	c #338A82",
"w 	c #3B85A0",
"x 	c #547EA3",
"y 	c #348E64",
"z 	c #448B6A",
"A 	c #368A9E",
"B 	c #637E93",
"C 	c #5F7F99",
"D 	c #3C8E6C",
"E 	c #339262",
"F 	c #3D8E78",
"G 	c #439068",
"H 	c #4889BE",
"I 	c #4E88B7",
"J 	c #35976E",
"K 	c #5687B1",
"L 	c #5C86AB",
"M 	c #3D8DC2",
"N 	c #4F8D91",
"O 	c #439472",
"P 	c #3A9867",
"Q 	c #4190AA",
"R 	c #488FA4",
"S 	c #3B977D",
"T 	c #72859D",
"U 	c #6C879C",
"V 	c #488FB7",
"W 	c #53908E",
"X 	c #6788A3",
"Y 	c #4193A7",
"Z 	c #469588",
"` 	c #6589AA",
" .	c #4E8EC3",
"..	c #4591C5",
"+.	c #568DBD",
"@.	c #439C66",
"#.	c #5A928B",
"$.	c #5C8DB8",
"%.	c #628CB2",
"&.	c #54967B",
"*.	c #519876",
"=.	c #419E79",
"-.	c #4795C3",
";.	c #4994C9",
">.	c #728D97",
",.	c #5A91C2",
"'.	c #409F84",
").	c #48A06A",
"!.	c #5F9973",
"~.	c #5395C5",
"{.	c #4899C0",
"].	c #5D9A7A",
"^.	c #5D9A85",
"/.	c #4B9ABB",
"(.	c #4C98CC",
"_.	c #4AA36C",
":.	c #6E92AC",
"<.	c #62998C",
"[.	c #6494C0",
"}.	c #5D9B95",
"|.	c #4B9FA6",
"1.	c #6A94BA",
"2.	c #5D9B9E",
"3.	c #5A9AB1",
"4.	c #509ACF",
"5.	c #699999",
"6.	c #7893A9",
"7.	c #609F84",
"8.	c #52A575",
"9.	c #739896",
"0.	c #7D94A4",
"a.	c #58A194",
"b.	c #6A9AA6",
"c.	c #539DD2",
"d.	c #5BA380",
"e.	c #63A180",
"f.	c #58A670",
"g.	c #5B9CCC",
"h.	c #619BC5",
"i.	c #4AA1D4",
"j.	c #7699A8",
"k.	c #629DBD",
"l.	c #6A9AC6",
"m.	c #6CA181",
"n.	c #5AA872",
"o.	c #729ABE",
"p.	c #57A0D5",
"q.	c #5E9FCF",
"r.	c #55A2D0",
"s.	c #6D9CC8",
"t.	c #809BA5",
"u.	c #64A68B",
"v.	c #59AB7B",
"w.	c #839AAB",
"x.	c #709EBD",
"y.	c #6FA485",
"z.	c #809BB1",
"A.	c #58A5D3",
"B.	c #78A19F",
"C.	c #7D9DB9",
"D.	c #7F9FA1",
"E.	c #7A9EC0",
"F.	c #759FC5",
"G.	c #7AA391",
"H.	c #7BA398",
"I.	c #78A1BB",
"J.	c #64AC89",
"K.	c #5CA8D7",
"L.	c #69AE79",
"M.	c #7FA2B1",
"N.	c #57AEB8",
"O.	c #63B086",
"P.	c #62AEA3",
"Q.	c #5FABD9",
"R.	c #73AD92",
"S.	c #5FB1AB",
"T.	c #6AB095",
"U.	c #75AEA0",
"V.	c #6BB484",
"W.	c #63AEDD",
"X.	c #5EB1D1",
"Y.	c #70B48B",
"Z.	c #6DB592",
"`.	c #6CB1C7",
" +	c #66B1E0",
".+	c #74B687",
"++	c #6DB0DA",
"@+	c #76B49E",
"#+	c #93AABB",
"$+	c #66B5DD",
"%+	c #78B795",
"&+	c #8EACC5",
"*+	c #69B4E3",
"=+	c #83B3A6",
"-+	c #82B2BF",
";+	c #7CB89D",
">+	c #76B9A9",
",+	c #7FBA92",
"'+	c #7CBC8D",
")+	c #78BAB7",
"!+	c #6CBAE2",
"~+	c #75B8E2",
"{+	c #74BEC3",
"]+	c #89BCA3",
"^+	c #85C098",
"/+	c #8BBCBC",
"(+	c #72BFE8",
"_+	c #9BB7C9",
":+	c #7BC0D6",
"<+	c #7EBEE5",
"[+	c #98B8D4",
"}+	c #8AC395",
"|+	c #8ABFC5",
"1+	c #75C2EB",
"2+	c #8BC3A1",
"3+	c #8EC4B6",
"4+	c #85C2E7",
"5+	c #91C5AC",
"6+	c #93C7A0",
"7+	c #7FC6E9",
"8+	c #A4BED2",
"9+	c #9EC2C4",
"0+	c #82C9EC",
"a+	c #89C9D9",
"b+	c #9AC9A9",
"c+	c #9DC9A3",
"d+	c #A0C6D2",
"e+	c #85CCEF",
"f+	c #9CC9D0",
"g+	c #9DCAC4",
"h+	c #A0CABE",
"i+	c #AEC6D9",
"j+	c #8ECEEC",
"k+	c #96CDED",
"l+	c #A3CFB6",
"m+	c #A8CFB0",
"n+	c #9DD3D8",
"o+	c #9BD2F1",
"p+	c #ADD3C2",
"q+	c #B3CFE7",
"r+	c #A1D4EE",
"s+	c #9FD7E6",
"t+	c #B3D5D5",
"u+	c #B2D8CD",
"v+	c #ABD8EC",
"w+	c #AED7F2",
"x+	c #BDD4E6",
"y+	c #B2D7ED",
"z+	c #C1D5E2",
"A+	c #B5DAE3",
"B+	c #C2DAEC",
"C+	c #CDD9E7",
"D+	c #C2DEE9",
"E+	c #BEDFEF",
"F+	c #C7DFF2",
"G+	c #CBDFEC",
"                                    ; 1 B T T j { #                                     ",
"                              j #+i+x+x+x+x+q+q+i+i+_+6.;                               ",
"                          U i+G+G+F+F+D+t+t+g+h+g+9+d+8+_+6.{                           ",
"                      [ i+C+F+F+D+u+p+l+l+5+5+5+5+5+]+]+/+[+&+U @                       ",
"                    k C+G+F+F+D+p+l+m+b+c+c+b+2+2+2+;+;+;+@+-+&+X $                     ",
"                  U C+F+B+E+E+u+l+b+6+6+6+6+6+^+2+%+%+%+%+T.T.U.I.u %                   ",
"                z.z+x+x+y+y+A+b+2+^+^+}+}+}+^+^+,+,+Z.Z.J.J.J.d.7.I.0 %                 ",
"              U i+x+q+y+y+w+n+,+Y.'+'+'+'+'+'+'+.+Y.Z.>+)+S.P.a.}.3.%.! $               ",
"              8+d+h+3+f+r+r+v+3+Y.V.V..+.+.+V.V.V.;+r+k+0+4+~+++q.g.[.4 - @             ",
"            #+9+]+]+;+|+k+k+k+r+v+5+L.L.L.L.L.L.v.s+o+k+7+<+~+Q.A.(.,.s _ *             ",
"          U _+]+;+T.U.4+4+7+j+o+r+v+O.n.n.n.f.f.O.r+j+0+1+~+ +Q.r.(.I s 4 ) @           ",
"          6.=+R.u.d.`.~+!+1+0+j+o+r+J._._._._.).>+o+j+7+(+!+ +K.i.Q 7 a c _ *           ",
"          M.R.u.d.a.++ +!+(+7+e+j+r+8.).).).).).a+k+e+7+(+!+ +Q.r.-.A i 6 | - @         ",
"        f B.e.*.O |.Q.W.!+(+7+0+j+T.@.).).).).)+j+e+0+1+(+!+W.Q.i.(...w 6 < ~ %         ",
"        u <.*.O y /.A.W.$+!+1+7+{+@.@.@.@.@.{+j+e+0+7+(+!+*+W.K.r.(...M 6 3 ] *         ",
"        l &.G n i c.A.Q. +!+(+1+S.@.@.@.@.P.e+e+0+7+1+(+!+ +Q.K.i.(...H a 3 < = @       ",
"        9 z n e t 4.A.Q.W.*+!+(+N.P P P @.:+0+7+7+1+(+!+$+ +Q.A.i.(...H g 3 < ' @       ",
"        9 h 6 7 n (.r.K.Q. +!+!+`.P P P P 7+7+1+(+(+!+!+ +W.Q.A.c.(...H a 6 3 > $       ",
"        } 2 6 7 7 Y c.A.Q.W. +*+!+'.P P =.(+(+(+!+!+!+ +W.Q.A.i.4.;.M H w g b ( $       ",
"        _ 2 6 7 7 v 4.r.A.Q.W. +*+X.J E '.!+!+!+!+*+ +W.Q.K.A.c.(.;...H I r 9 ( $       ",
"        / 2 6 7 e v (.c.r.K.Q.W. + +X.O J N.$+$+ + +W.Q.K.A.i.4.;.....H I r 9 ( $       ",
"        ! 2 6 6 7 Q ;.4.i.A.K.Q.Q.W.W.$+S E E S X.Q.Q.K.A.i.4.(.;.....+.I r 9 ( $       ",
"        ! | 3 6 m M ;.(.4.i.r.A.K.Q.Q.Q.Q.|.S S Q.K.A.A.i.c.(.;.;. .+.+.K x 0 [         ",
"        - } d p H H ..;.(.4.c.r.A.A.K.K.K.K.K.K.A.A.r.i.4.(.;.;.;...+.+.K x 0 ^         ",
"        > / 4 s I  ...;.;.(.4.c.r.p.A.A.A.A.A.r.i.i.c.{.t -.;.;.Q R +.$.L l f ^         ",
"          ! } 8 I +.+.;.;.(.4.g.c.q.p.r.r.r.p.r.r.{.Y i e Q ;.V D N $.K x l f ,         ",
"          - / 4 s +.+.~.~.(.g.4.g.g.g.g.q.q.g.g.Z y n n n q F G y W $.L u k 5           ",
"            ! } r $.$.,.~.~.g.4.g.g.g.g.g.g.g./.y n y y y G G G D #.%.` u f :           ",
"            - ! 8 L $.[.[.h.g.g.g.g.g.g.g.g.g.3.y y D O G G O *.*.W ` X k 5             ",
"              - / x %.1.[.[.[.h.g.g.g.g.g.g.g.h.O O O Z #.*.*.*.&.:.X C f %             ",
"              $ ) 9 ` %.1.1.l.l.l.l.l.h.h.h.l.h.k.2.k.F.F.x.b.5.:.:.X B {               ",
"                % ) l ` ` 1.1.o.o.s.s.s.l.l.s.F.F.F.F.F.E.E.E.j.:.6.B 1                 ",
"                  * ) u X #.<.<.^.^.<.<.}.x.F.F.F.E.E.E.E.C.j.9.6.U :                   ",
"                    @ ) C ].!.!.].].].].].7.M.E.E.C.C.C.C.z.z.6.U ,                     ",
"                      . > b ].!.!.].].].e.m.m.D.C.C.z.z.z.w.0.B #                       ",
"                          @ > o 9.<.7.m.m.y.y.y.D.z.z.w.w.B ;                           ",
"                              + , f B >.9.G.G.H.t.0.U j &                               ",
"                                    . @ % { ^ ; # +                                     ",
"                                                                                        ",
"                                                                                        ",
"                                                                                        "};
