/* XPM */
static char * txaneighbor_xpm[] = {
"24 24 203 2",
"  	c None",
". 	c #AA8800",
"+ 	c #AA8901",
"@ 	c #AB8900",
"# 	c #AB8902",
"$ 	c #AC8900",
"% 	c #AC8A00",
"& 	c #AC8A01",
"* 	c #AB8A05",
"= 	c #AB8A06",
"- 	c #AC8B07",
"; 	c #AE8B02",
"> 	c #AC8B08",
", 	c #AD8C05",
"' 	c #AF8D06",
") 	c #AE8D09",
"! 	c #AE8D0A",
"~ 	c #AD8D0D",
"{ 	c #B08E0B",
"] 	c #B08F08",
"^ 	c #B08F09",
"/ 	c #AE8F13",
"( 	c #B19009",
"_ 	c #B1900B",
": 	c #B49104",
"< 	c #B2910B",
"[ 	c #B2910F",
"} 	c #B2920F",
"| 	c #B59410",
"1 	c #B59513",
"2 	c #B49516",
"3 	c #B8950B",
"4 	c #B59514",
"5 	c #B69617",
"6 	c #B39726",
"7 	c #B8981A",
"8 	c #BA9917",
"9 	c #BA9A17",
"0 	c #BA9A1B",
"a 	c #BB9A1B",
"b 	c #BD9D1C",
"c 	c #BA9D2A",
"d 	c #C19E14",
"e 	c #BC9E28",
"f 	c #BD9F25",
"g 	c #C0A021",
"h 	c #BFA128",
"i 	c #CAA308",
"j 	c #C7A311",
"k 	c #C2A324",
"l 	c #C3A426",
"m 	c #C2A429",
"n 	c #C9A515",
"o 	c #C3A529",
"p 	c #C3A52B",
"q 	c #C1A63A",
"r 	c #BDA649",
"s 	c #C6A931",
"t 	c #D4AA00",
"u 	c #C9AB32",
"v 	c #D6AC02",
"w 	c #D5AC05",
"x 	c #D4AC0A",
"y 	c #D5AC0B",
"z 	c #D7AD03",
"A 	c #C5AC46",
"B 	c #CCAD31",
"C 	c #D8AE04",
"D 	c #D9AF05",
"E 	c #D7AF11",
"F 	c #CDAF35",
"G 	c #CEAF36",
"H 	c #DBB006",
"I 	c #DBB109",
"J 	c #D9B110",
"K 	c #DCB208",
"L 	c #DDB208",
"M 	c #CEB240",
"N 	c #DFB40A",
"O 	c #E0B60C",
"P 	c #E1B60C",
"Q 	c #D5B639",
"R 	c #D5B73A",
"S 	c #D4B740",
"T 	c #E2B80E",
"U 	c #C6B779",
"V 	c #D6B840",
"W 	c #E0B91F",
"X 	c #E4BA10",
"Y 	c #C7B87E",
"Z 	c #DEBA2A",
"` 	c #CAB974",
" .	c #E6BB11",
"..	c #E4BC1B",
"+.	c #E1BC28",
"@.	c #E7BD13",
"#.	c #D9BC48",
"$.	c #D7BC4E",
"%.	c #E8BD13",
"&.	c #E0BD2E",
"*.	c #DBBD43",
"=.	c #E2BE2F",
"-.	c #E9BF16",
";.	c #EABF15",
">.	c #DCBF4A",
",.	c #E7C024",
"'.	c #E1C03C",
").	c #EBC117",
"!.	c #CDBF86",
"~.	c #E2C13D",
"{.	c #DEC14E",
"].	c #E2C243",
"^.	c #EDC319",
"/.	c #DFC34F",
"(.	c #D2C282",
"_.	c #CDC296",
":.	c #F0C51B",
"<.	c #EAC52E",
"[.	c #E1C54E",
"}.	c #F1C61C",
"|.	c #D8C57A",
"1.	c #E2C655",
"2.	c #F2C71D",
"3.	c #E1C659",
"4.	c #E1C65D",
"5.	c #F3C81E",
"6.	c #F2C822",
"7.	c #E3C858",
"8.	c #D3C797",
"9.	c #D2C79A",
"0.	c #F4CA20",
"a.	c #E5C958",
"b.	c #D6C995",
"c.	c #D5C999",
"d.	c #F6CC22",
"e.	c #D4CAA3",
"f.	c #F0CC3F",
"g.	c #E5CC61",
"h.	c #F5CE2E",
"i.	c #D9CC96",
"j.	c #D5CCA8",
"k.	c #E9CE5F",
"l.	c #E8CE64",
"m.	c #F0CF4F",
"n.	c #FBD026",
"o.	c #EBCF60",
"p.	c #FCD127",
"q.	c #FDD228",
"r.	c #DCD09F",
"s.	c #F1D251",
"t.	c #D6D0B7",
"u.	c #FED329",
"v.	c #EDD265",
"w.	c #FFD42B",
"x.	c #F8D447",
"y.	c #F1D45C",
"z.	c #DAD2B4",
"A.	c #F8D448",
"B.	c #EFD466",
"C.	c #FFD52E",
"D.	c #D9D3BA",
"E.	c #EDD570",
"F.	c #F0D569",
"G.	c #E9D581",
"H.	c #D9D4BE",
"I.	c #FFD736",
"J.	c #FFD737",
"K.	c #FFD73A",
"L.	c #D9D5C1",
"M.	c #FFD83D",
"N.	c #FDD848",
"O.	c #FAD954",
"P.	c #FFDA46",
"Q.	c #FFDA47",
"R.	c #DED8BE",
"S.	c #E1D8B6",
"T.	c #F7DA64",
"U.	c #F4DA6E",
"V.	c #F4DA70",
"W.	c #FFDB49",
"X.	c #E6DAA5",
"Y.	c #E6DAAA",
"Z.	c #FBDC61",
"`.	c #DBDAD6",
" +	c #F8DD6E",
".+	c #DCDBD6",
"++	c #FFDE58",
"@+	c #DDDCD7",
"#+	c #DDDCD8",
"$+	c #DEDCD7",
"%+	c #DDDCDB",
"&+	c #DEDDD9",
"*+	c #DDDDDC",
"=+	c #DFDDD7",
"-+	c #DEDDDA",
";+	c #DDDDDD",
">+	c #EDDFA3",
",+	c #EADFB2",
"'+	c #FAE179",
")+	c #FCE480",
"!+	c #FCE483",
"~+	c #FFE57B",
"{+	c #FFE57D",
"                  [                             ",
"                s 0                             ",
"                M 8.5                           ",
"              3.i.*+q                           ",
"              l.@+;+j.7   _                     ",
"            )+X.;+;+;+A 1 < #                   ",
"{ f u S 4.G.>+=+;+;+;+H.` r 6 ~ . * +           ",
"> 4 e..+;+;+;+;+;+;+;+;+;+;+;+;+U *             ",
"  ! e L.;+;+;+;+;+;+;+;+;+;+;+Y =               ",
"    } h D.;+;+;+;+;+;+;+;+;+!.) ^               ",
"        p z.;+;+;+;+;+;+;+b.o '.8 ,             ",
"        a (.;+;+;+;+;+;+;+|.].Q.Z n : % . . $ @ ",
"      . 2 9.;+;+;+;+;+;+;+r.*.J.p.}. .H w i . @ ",
"        > t.;+;+#+S.-+;+;+R.#.u.5.%.L z x & @   ",
"        . `.%+c.$.7.E.,+&+$+{.6.;.N t y & @     ",
"        / _.c m [.~+T.U.!+Y.g.,.P v E 9 '       ",
"        . -     l y.++P.N. +v.=.C I B g         ",
"                b m.W.I.n.:.<.&.D X Q           ",
"                | A.K.q.2.@.K z T ^.~.G         ",
"                ] M.w.0.-.+.J O ).d.f.V         ",
"                3 C.d.W R /.o.s.h.w.x.>.        ",
"              . j ..d k F     B.'+Z.O.1.        ",
"              ; ; . (             {+V.k.        ",
"              @ &                     F.a.      "};
