<?xml version="1.0" encoding="UTF-8" standalone="no"?>
<svg
   xmlns:dc="http://purl.org/dc/elements/1.1/"
   xmlns:cc="http://creativecommons.org/ns#"
   xmlns:rdf="http://www.w3.org/1999/02/22-rdf-syntax-ns#"
   xmlns:svg="http://www.w3.org/2000/svg"
   xmlns="http://www.w3.org/2000/svg"
   xmlns:sodipodi="http://sodipodi.sourceforge.net/DTD/sodipodi-0.dtd"
   xmlns:inkscape="http://www.inkscape.org/namespaces/inkscape"
   id="svg1569"
   viewBox="0 0 432.63 399.04"
   version="1.1"
   inkscape:version="0.48.4 r9939"
   width="100%"
   height="100%"
   sodipodi:docname="Anonymous_aiga_toilets.svg">
  <defs
     id="defs21" />
  <sodipodi:namedview
     pagecolor="#ffffff"
     bordercolor="#666666"
     borderopacity="1"
     objecttolerance="10"
     gridtolerance="10"
     guidetolerance="10"
     inkscape:pageopacity="0"
     inkscape:pageshadow="2"
     inkscape:window-width="1400"
     inkscape:window-height="972"
     id="namedview19"
     showgrid="false"
     inkscape:zoom="0.59141941"
     inkscape:cx="216.315"
     inkscape:cy="199.52"
     inkscape:window-x="-4"
     inkscape:window-y="-4"
     inkscape:window-maximized="1"
     inkscape:current-layer="svg1569" />
  <g
     id="g1587"
     transform="translate(-8.4542372,8.4542372)">
    <g
       id="g1589">
      <path
         inkscape:connector-curvature="0"
         d="m 91.634,64.828 c 17.906,0 32.416,-14.511 32.416,-32.414 C 124.05,14.514 109.54,0 91.634,0 73.735,0 59.221,14.514 59.221,32.414 c 0,17.903 14.514,32.414 32.413,32.414 z"
         id="path1591" />
      <path
         inkscape:connector-curvature="0"
         d="M 91.634,32.414"
         id="path1593" />
    </g>
    <path
       inkscape:connector-curvature="0"
       d="m 86.842,270.35 0.013,113.39 c 0,20.4 -30.565,20.4 -30.565,0 L 56.277,270.35 H 15.773 L 59.112,120.01 H 52.3 L 26.777,205.89 C 20.702,224.62 -5.015,216.92 0.869,196.87 L 29.207,103.56 C 32.245,92.924 45.701,74.061 68.993,74.061 h 44.587 c 23.09,0 36.61,19.022 40.1,29.499 l 28.35,93.22 c 5.67,20.04 -19.85,28.35 -25.92,8.8 L 130.6,120.01 h -7.38 l 43.8,150.34 h -40.68 v 113.53 c 0,20.26 -30.435,20.15 -30.435,0 V 270.35 h -9.063 z"
       id="path1595" />
  </g>
  <g
     id="g1597"
     transform="translate(-8.4542372,8.4542372)">
    <path
       inkscape:connector-curvature="0"
       d="m 322.95,73.94 c -22.81,0 -41.15,18.867 -41.15,42.4 v 100.3 c 0,19.5 28.13,19.5 28.13,0 v -91.71 h 6.66 v 254.12 c 0,26.07 37.47,25.31 37.47,0 V 230.28 h 6.45 v 148.77 c 0,25.31 37.68,26.07 37.68,0 V 124.93 h 6.5 v 91.71 c 0,19.65 27.99,19.65 27.94,0 v -99.7 c 0,-21.7 -16.61,-42.955 -41.65,-42.955 L 322.95,73.94 z"
       id="path1599" />
    <g
       id="g1601">
      <path
         inkscape:connector-curvature="0"
         d="m 357.13,64.828 c 17.91,0 32.42,-14.511 32.42,-32.414 C 389.55,14.514 375.04,0 357.13,0 c -17.9,0 -32.41,14.514 -32.41,32.414 0,17.903 14.51,32.414 32.41,32.414 z"
         id="path1603" />
      <path
         inkscape:connector-curvature="0"
         d="M 357.13,32.414"
         id="path1605" />
    </g>
  </g>
  <metadata
     id="metadata17">
    <rdf:RDF>
      <cc:Work>
        <dc:format>image/svg+xml</dc:format>
        <dc:type
           rdf:resource="http://purl.org/dc/dcmitype/StillImage" />
        <cc:license
           rdf:resource="http://creativecommons.org/licenses/publicdomain/" />
        <dc:publisher>
          <cc:Agent
             rdf:about="http://openclipart.org/">
            <dc:title>Openclipart</dc:title>
          </cc:Agent>
        </dc:publisher>
        <dc:title></dc:title>
        <dc:date>2009-04-20T08:27:04</dc:date>
        <dc:description>Set of international airport symbols.\n\nSource: http://www.aiga.org/content.cfm/symbol-signs\n\nConverted to SVG by Jean-Victor Balin.</dc:description>
        <dc:source>http://openclipart.org/detail/25158/aiga-toilets-by-anonymous-25158</dc:source>
        <dc:creator>
          <cc:Agent>
            <dc:title>Anonymous</dc:title>
          </cc:Agent>
        </dc:creator>
        <dc:subject>
          <rdf:Bag>
            <rdf:li>aiga</rdf:li>
            <rdf:li>aiga no bg</rdf:li>
            <rdf:li>black and white</rdf:li>
            <rdf:li>clip art</rdf:li>
            <rdf:li>clipart</rdf:li>
            <rdf:li>externalsource</rdf:li>
            <rdf:li>icon</rdf:li>
            <rdf:li>image</rdf:li>
            <rdf:li>man</rdf:li>
            <rdf:li>map symbol</rdf:li>
            <rdf:li>media</rdf:li>
            <rdf:li>png</rdf:li>
            <rdf:li>public domain</rdf:li>
            <rdf:li>sign</rdf:li>
            <rdf:li>silhouette</rdf:li>
            <rdf:li>svg</rdf:li>
            <rdf:li>symbol</rdf:li>
            <rdf:li>toilet</rdf:li>
            <rdf:li>woman</rdf:li>
          </rdf:Bag>
        </dc:subject>
      </cc:Work>
      <cc:License
         rdf:about="http://creativecommons.org/licenses/publicdomain/">
        <cc:permits
           rdf:resource="http://creativecommons.org/ns#Reproduction" />
        <cc:permits
           rdf:resource="http://creativecommons.org/ns#Distribution" />
        <cc:permits
           rdf:resource="http://creativecommons.org/ns#DerivativeWorks" />
      </cc:License>
    </rdf:RDF>
  </metadata>
</svg>
