/* XPM */
static char * txafavorite_xpm[] = {
"24 23 180 2",
"  	c None",
". 	c #AA8800",
"+ 	c #AB8800",
"@ 	c #AB8900",
"# 	c #AB8901",
"$ 	c #AC8A02",
"% 	c #AD8C05",
"& 	c #AF8E08",
"* 	c #B08F08",
"= 	c #B39003",
"- 	c #B19009",
"; 	c #B1900B",
"> 	c #B3920E",
", 	c #B4930E",
"' 	c #B59411",
") 	c #B59412",
"! 	c #B79511",
"~ 	c #BA9608",
"{ 	c #B79614",
"] 	c #B89614",
"^ 	c #B99816",
"/ 	c #BF9A06",
"( 	c #BA9A17",
"_ 	c #BF9A09",
": 	c #BB9B1A",
"< 	c #BD9B19",
"[ 	c #BD9D1C",
"} 	c #BF9F1F",
"| 	c #BFA01F",
"1 	c #C0A020",
"2 	c #C1A122",
"3 	c #C8A208",
"4 	c #C2A21F",
"5 	c #C2A221",
"6 	c #C9A309",
"7 	c #C8A519",
"8 	c #C5A528",
"9 	c #CEA811",
"0 	c #CAA821",
"a 	c #CAA825",
"b 	c #D4AA00",
"c 	c #D6AC02",
"d 	c #CCAC29",
"e 	c #D2AC19",
"f 	c #CBAC31",
"g 	c #D8AE04",
"h 	c #CDAE34",
"i 	c #DAAF08",
"j 	c #D6AF15",
"k 	c #D3AF20",
"l 	c #DAB006",
"m 	c #D5B01B",
"n 	c #CEB037",
"o 	c #CFB136",
"p 	c #DCB208",
"q 	c #DEB309",
"r 	c #D1B33A",
"s 	c #DCB411",
"t 	c #D2B43D",
"u 	c #E0B50B",
"v 	c #E1B70D",
"w 	c #E2B70D",
"x 	c #D4B740",
"y 	c #DFB81B",
"z 	c #DEB81F",
"A 	c #E3B90F",
"B 	c #DEB925",
"C 	c #E3BA12",
"D 	c #D6B943",
"E 	c #DABA38",
"F 	c #E5BB11",
"G 	c #D8BB46",
"H 	c #E7BD13",
"I 	c #E2BD28",
"J 	c #E4BD23",
"K 	c #E9BF15",
"L 	c #DDBF46",
"M 	c #DCBF4B",
"N 	c #E0C03F",
"O 	c #EBC117",
"P 	c #DEC149",
"Q 	c #DEC14E",
"R 	c #EDC218",
"S 	c #E4C23B",
"T 	c #DEC24E",
"U 	c #EDC319",
"V 	c #EBC321",
"W 	c #EBC325",
"X 	c #E6C339",
"Y 	c #EEC41A",
"Z 	c #EFC41A",
"` 	c #E2C54F",
" .	c #F1C61C",
"..	c #E2C654",
"+.	c #EBC73A",
"@.	c #F3C81E",
"#.	c #EAC945",
"$.	c #E5C958",
"%.	c #F5CA20",
"&.	c #E9CA4C",
"*.	c #EDCB43",
"=.	c #F7CC22",
"-.	c #E8CC5C",
";.	c #E8CC5D",
">.	c #F5CD2D",
",.	c #F2CD39",
"'.	c #EACD5A",
").	c #F9CE24",
"!.	c #EACD5D",
"~.	c #EACE60",
"{.	c #FBD026",
"].	c #FCD127",
"^.	c #ECD162",
"/.	c #FDD228",
"(.	c #FED329",
"_.	c #F9D33E",
":.	c #F2D354",
"<.	c #EED366",
"[.	c #FFD42C",
"}.	c #F0D464",
"|.	c #FFD530",
"1.	c #EFD569",
"2.	c #FFD633",
"3.	c #FDD63A",
"4.	c #FFD736",
"5.	c #FFD737",
"6.	c #FED73A",
"7.	c #FFD739",
"8.	c #FDD73F",
"9.	c #FFD83D",
"0.	c #F5D863",
"a.	c #FFD940",
"b.	c #FED945",
"c.	c #FFD943",
"d.	c #F7D95F",
"e.	c #F3D96E",
"f.	c #FFDA46",
"g.	c #FFDA47",
"h.	c #F9DA5E",
"i.	c #FFDB4A",
"j.	c #FFDB4B",
"k.	c #FFDB4D",
"l.	c #F5DB70",
"m.	c #FFDC50",
"n.	c #FEDC56",
"o.	c #FFDD53",
"p.	c #FFDD54",
"q.	c #FDDD5B",
"r.	c #FFDD57",
"s.	c #FADD67",
"t.	c #F7DD74",
"u.	c #FFDE58",
"v.	c #FFDE5A",
"w.	c #FFDE5B",
"x.	c #F7DE74",
"y.	c #FFDF5D",
"z.	c #FCDF68",
"A.	c #FFDF60",
"B.	c #FDDF67",
"C.	c #FEE065",
"D.	c #FFE064",
"E.	c #F9E076",
"F.	c #FFE065",
"G.	c #FFE167",
"H.	c #FDE16D",
"I.	c #FFE168",
"J.	c #FFE16A",
"K.	c #FFE26B",
"L.	c #FBE279",
"M.	c #FFE26E",
"N.	c #FFE371",
"O.	c #FFE372",
"P.	c #FFE374",
"Q.	c #FFE475",
"R.	c #FFE477",
"S.	c #FDE47D",
"T.	c #FFE478",
"U.	c #FFE57B",
"V.	c #FFE67E",
"W.	c #FFE67F",
"                      ] %                       ",
"                      [ ,                       ",
"                    h d < &                     ",
"                    t *.N )                     ",
"                  ..L w.z.| ;                   ",
"                  ;.:.I.T.` {                   ",
"                t.}.C.Q.U.B.5 >                 ",
"            <.x.S.s.O.V.M.y.S ^ - @ .           ",
"% { 2 f x T '.0.H.M.W.N.A.m.8.I e _ = @ . . . . ",
". ; 7 J >.3.j.w.K.U.P.D.o.c.2.{. .H q b i / . . ",
"  $ ! W 5.g.u.I.T.R.G.r.f.4./.@.K u c p 6 . .   ",
"    * ( +.p.F.Q.U.J.v.i.7.(.%.O w g l 3 . .     ",
"      , [ &.O.V.M.y.k.9.[.=.U A l g 9 & .       ",
"        { 2 -.N.A.m.a.|.).Z F p c m } '         ",
"          : 8 h.o.c.2.{. .H q b q o 8           ",
"            1 n.f.4./.@.K u c p F E f           ",
"          & 4 i.7.(.%.O w g l A R X r           ",
"          # 0 9.[.=.U C s g v O %.,.D           ",
"          $ k |.).Y B P -.#.V @.]._.M           ",
"          . z {.y a n G ..^.l.q.6.b...          ",
"          . j ~ ' }         1.E.L.d.!.Q         ",
"          . . @                 S.t.<.$.        ",
"        . +                         e.~.        "};
