/* XPM */
static char * txahistory_xpm[] = {
"15 16 120 2",
"  	c None",
". 	c #4B4F37",
"+ 	c #545D30",
"@ 	c #5D6834",
"# 	c #656B4B",
"$ 	c #656C4A",
"% 	c #6D7843",
"& 	c #6F774A",
"* 	c #707D3F",
"= 	c #7A8158",
"- 	c #788743",
"; 	c #7F875A",
"> 	c #80885C",
", 	c #7F8C47",
"' 	c #7E8D47",
") 	c #85944A",
"! 	c #88974C",
"~ 	c #8B9465",
"{ 	c #8C9C4F",
"] 	c #92A352",
"^ 	c #94A552",
"/ 	c #95A653",
"( 	c #97A854",
"_ 	c #98A955",
": 	c #9BA671",
"< 	c #9AAC56",
"[ 	c #A3B55B",
"} 	c #A9B285",
"| 	c #A5B85C",
"1 	c #A8B576",
"2 	c #A6B95D",
"3 	c #ABBF60",
"4 	c #ACBF60",
"5 	c #B1BA8D",
"6 	c #B5BB9C",
"7 	c #B1C562",
"8 	c #B2C763",
"9 	c #B3C764",
"0 	c #B9C09F",
"a 	c #B8C294",
"b 	c #B7C582",
"c 	c #BBC2A2",
"d 	c #B9CD67",
"e 	c #B8CE67",
"f 	c #B9CE67",
"g 	c #BEC993",
"h 	c #BBCF68",
"i 	c #BBD068",
"j 	c #BCD06E",
"k 	c #BCD169",
"l 	c #BDD269",
"m 	c #BDD36A",
"n 	c #BDD36B",
"o 	c #C3CE99",
"p 	c #BFD56B",
"q 	c #C0D66B",
"r 	c #C1D76C",
"s 	c #C2D86C",
"t 	c #C3D96D",
"u 	c #CAD4A4",
"v 	c #C5DB6E",
"w 	c #C6DC6E",
"x 	c #C6DD6F",
"y 	c #CED7A5",
"z 	c #CDD8A4",
"A 	c #C9E070",
"B 	c #CFD9A7",
"C 	c #CBE271",
"D 	c #CCE372",
"E 	c #CDE373",
"F 	c #CEE573",
"G 	c #D4DFA9",
"H 	c #D0E57F",
"I 	c #CFE774",
"J 	c #D1E975",
"K 	c #D7E2AB",
"L 	c #D2EA75",
"M 	c #D3EB76",
"N 	c #D4EC76",
"O 	c #D5ED77",
"P 	c #D7ED80",
"Q 	c #D8F078",
"R 	c #D8F179",
"S 	c #D9F279",
"T 	c #DAF37A",
"U 	c #DBF47A",
"V 	c #DCF57B",
"W 	c #DDF67B",
"X 	c #DEF77C",
"Y 	c #E1F593",
"Z 	c #DFF87E",
"` 	c #E0F97D",
" .	c #E6F3B2",
"..	c #E1FA7D",
"+.	c #E1FA7E",
"@.	c #E1FB7E",
"#.	c #E2FC7E",
"$.	c #E3FB88",
"%.	c #E3FD7F",
"&.	c #E4FE7F",
"*.	c #E4FE80",
"=.	c #E5FF80",
"-.	c #E5FF81",
";.	c #E5FF82",
">.	c #E6FF84",
",.	c #E6FF85",
"'.	c #E6FF86",
").	c #EBF9B5",
"!.	c #E8FE90",
"~.	c #E8FF8D",
"{.	c #E8FF8F",
"].	c #EAFF98",
"^.	c #EAFF99",
"/.	c #EDFCB4",
"(.	c #EBFF9D",
"_.	c #EBFF9E",
":.	c #EDFFA5",
"<.	c #EDFFA7",
"[.	c #EEFFAA",
"}.	c #EEFFAC",
"      ; : 6 0 0 0 0 0 c o +   ",
"    & 1 H E i L M J d $.}.z   ",
"    % j +., { _ ! @ ) ;._.B   ",
"    * I R x U D &.=.U >.:.a   ",
"    ] T =.X F M f t n ~./.    ",
"    [ ..&.^ w r i C -.].K     ",
"    l %.h 7 l k t =.;.(.y     ",
"  - L &.< O Q p x =.,.<.5     ",
"  / V =.X Q D ` =.=.{.).      ",
"  | X A k 9 D S v +.^.G       ",
"  q %.w T W #.q L Z (.u       ",
"' N =.3 X r m p =.'.[.}       ",
"( W &.( s p i ` =.!. .        ",
"2 @.e 8 l p t W -.Y g         ",
"4 V =.=.%.=.=.*.P b =         ",
"  . $ $ $ $ $ # ~ >           "};
