/* XPM */
static char * txainfo_xpm[] = {
"44 44 256 2",
"  	c None",
". 	c #001B23",
"+ 	c #041F27",
"@ 	c #00222E",
"# 	c #002B36",
"$ 	c #01303B",
"% 	c #003646",
"& 	c #10343B",
"* 	c #003949",
"= 	c #1C363E",
"- 	c #1E3740",
"; 	c #093F4F",
"> 	c #203A42",
", 	c #0B4050",
"' 	c #004358",
") 	c #223C44",
"! 	c #0D4151",
"~ 	c #233D45",
"{ 	c #00465A",
"] 	c #104353",
"^ 	c #253E47",
"/ 	c #034757",
"( 	c #124455",
"_ 	c #264048",
": 	c #064959",
"< 	c #28424A",
"[ 	c #0C4C5C",
"} 	c #004F63",
"| 	c #2C454E",
"1 	c #015165",
"2 	c #104E5E",
"3 	c #055267",
"4 	c #00546D",
"5 	c #294B53",
"6 	c #135160",
"7 	c #165262",
"8 	c #005872",
"9 	c #185363",
"0 	c #005973",
"a 	c #005A74",
"b 	c #195565",
"c 	c #045C76",
"d 	c #155A6F",
"e 	c #1E5869",
"f 	c #2D5561",
"g 	c #00617A",
"h 	c #006180",
"i 	c #205A6A",
"j 	c #006281",
"k 	c #00637C",
"l 	c #006382",
"m 	c #0E607A",
"n 	c #006483",
"o 	c #006584",
"p 	c #00667F",
"q 	c #006684",
"r 	c #12627C",
"s 	c #026685",
"t 	c #255E6E",
"u 	c #2C5D69",
"v 	c #006886",
"w 	c #056786",
"x 	c #016982",
"y 	c #006987",
"z 	c #276070",
"A 	c #1D6372",
"B 	c #13667A",
"C 	c #086888",
"D 	c #006B89",
"E 	c #296272",
"F 	c #006C8B",
"G 	c #236479",
"H 	c #0E6A8A",
"I 	c #006E8D",
"J 	c #006F8E",
"K 	c #0D6D86",
"L 	c #00708F",
"M 	c #2E6576",
"N 	c #007190",
"O 	c #007291",
"P 	c #156D8D",
"Q 	c #1D6C80",
"R 	c #007392",
"S 	c #027493",
"T 	c #057594",
"U 	c #16718A",
"V 	c #097695",
"W 	c #1A738C",
"X 	c #0C7796",
"Y 	c #376E7F",
"Z 	c #0F7897",
"` 	c #1D758E",
" .	c #277387",
"..	c #127998",
"+.	c #007E9C",
"@.	c #007F9D",
"#.	c #207790",
"$.	c #147A99",
"%.	c #00809E",
"&.	c #00819F",
"*.	c #167B9A",
"=.	c #2D778B",
"-.	c #247992",
";.	c #0182A0",
">.	c #197C9B",
",.	c #2F788D",
"'.	c #267A94",
").	c #0583A1",
"!.	c #1B7D9C",
"~.	c #177F97",
"{.	c #1D7E9D",
"].	c #307A8F",
"^.	c #0984A2",
"/.	c #1A8099",
"(.	c #1F7F9F",
"_.	c #297D97",
":.	c #1C819A",
"<.	c #0D85A3",
"[.	c #1086A4",
"}.	c #2C7F99",
"|.	c #20839C",
"1.	c #367E93",
"2.	c #2482A1",
"3.	c #1387A5",
"4.	c #1688A6",
"5.	c #23859E",
"6.	c #1889A7",
"7.	c #2687A0",
"8.	c #3B8297",
"9.	c #1A8AA9",
"0.	c #1C8BAA",
"a.	c #2889A1",
"b.	c #1E8CAB",
"c.	c #208DAC",
"d.	c #228EAD",
"e.	c #2D8CA5",
"f.	c #3989A3",
"g.	c #248FAE",
"h.	c #41899E",
"i.	c #2691AF",
"j.	c #1496B3",
"k.	c #2892B0",
"l.	c #2993B1",
"m.	c #3491AA",
"n.	c #2B94B2",
"o.	c #1C99B6",
"p.	c #2C95B3",
"q.	c #3793AD",
"r.	c #1E9AB7",
"s.	c #2E96B4",
"t.	c #209BB8",
"u.	c #3097B5",
"v.	c #3A95AF",
"w.	c #229CBA",
"x.	c #3198B6",
"y.	c #249DBB",
"z.	c #3399B7",
"A.	c #349AB9",
"B.	c #269EBC",
"C.	c #369BBA",
"D.	c #289FBD",
"E.	c #379CBB",
"F.	c #2AA0BE",
"G.	c #2BA1BF",
"H.	c #2DA2C0",
"I.	c #2FA3C1",
"J.	c #449EB7",
"K.	c #31A5C2",
"L.	c #6499AB",
"M.	c #32A6C3",
"N.	c #48A1BA",
"O.	c #34A7C4",
"P.	c #35A8C5",
"Q.	c #37A9C6",
"R.	c #41A7C0",
"S.	c #38AAC8",
"T.	c #4DA5BF",
"U.	c #749CAA",
"V.	c #699FB0",
"W.	c #3AABC9",
"X.	c #3BACCA",
"Y.	c #769EAC",
"Z.	c #50A8C2",
"`.	c #3DADCB",
" +	c #6CA2B3",
".+	c #3EAECC",
"++	c #40AFCD",
"@+	c #7AA1AF",
"#+	c #41B0CE",
"$+	c #4AAFC7",
"%+	c #43B1CF",
"&+	c #44B2D0",
"*+	c #45B3D1",
"=+	c #4EB2CB",
"-+	c #47B4D3",
";+	c #50B4CD",
">+	c #8AA6B0",
",+	c #48B6D4",
"'+	c #49B7D5",
")+	c #55B4D4",
"!+	c #7CACB8",
"~+	c #4BB8D6",
"{+	c #4DBAD8",
"]+	c #4FBBD9",
"^+	c #50BCDA",
"/+	c #58BBD3",
"(+	c #51BDDB",
"_+	c #8CB0B8",
":+	c #53BEDC",
"<+	c #54BFDE",
"[+	c #84B5C1",
"}+	c #55C0DF",
"|+	c #5DBFD8",
"1+	c #56C1E0",
"2+	c #A2B1B8",
"3+	c #59C3E2",
"4+	c #5AC5E3",
"5+	c #5BC6E4",
"6+	c #5DC7E5",
"7+	c #5EC8E6",
"8+	c #5FC9E8",
"9+	c #60CAE9",
"0+	c #56CEEB",
"a+	c #63CCEB",
"b+	c #64CDEC",
"c+	c #9CC0C8",
"d+	c #AFBCBD",
"e+	c #B6BBBE",
"f+	c #B7BCBF",
"g+	c #B8BEC0",
"h+	c #BBC0C2",
"i+	c #A9C5CF",
"j+	c #AEC6CB",
"k+	c #B0C9CD",
"l+	c #B7C7CD",
"m+	c #A8CDD5",
"n+	c #B3CBCF",
"o+	c #B5CDD2",
"p+	c #AED3DB",
"q+	c #BBD3D8",
"r+	c #C1E6EF",
"s+	c #DEEBEC",
"t+	c #DFECED",
"u+	c #E1EEEF",
"v+	c #EBF0F2",
"w+	c #E5F2F3",
"x+	c #ECF1F4",
"y+	c #EDF2F5",
"z+	c #EEF3F6",
"A+	c #E8F5F6",
"B+	c #EFF5F7",
"C+	c #F0F6F8",
"D+	c #F3F8FB",
"E+	c #F5FAFD",
"F+	c #F7FDFF",
"G+	c #FEFFFC",
"                                  h h h h h h h h h h                                   ",
"                            h j h l H L O X V N I C j h h h                             ",
"                        h h l S ^.k.k.k.k.g.d.c.0.9.<.$.I l h h                         ",
"                    j h C 2.s.u.u.o.u.s.p.n.l.k.d.b.0.4.<.;.T l h h                     ",
"                  j l (.s.z.t.w.z.w.w.z.z.x.s.j.k.g.c.0.4.[.;.(.L l h                   ",
"                h P n.z.E.B.F.F.F.B.w.x.s.n.l.k.g.c.b.0.9.4.[.;.(.Z s h                 ",
"            j h V x.w.B.G.K.M.M.H.w.m.a.5.|.|.~._.~.~.<.9.9.4.<.%.!...C h j             ",
"            h !.t.y.F.K.M.P.Q.Q.G.p+q+n+n+k+k+k+k+k+ .#.).0.0.9.^.(.>.X H h             ",
"          h V t.y.G.K.P.Q.X.`.Q.F.z+G+G+G+G+G+G+G+G+u B ~.9.c.b.3.).(.$.T C h           ",
"        j P o.y.G.M.Q.Q..+%+&+++J.y+G+G+G+G+G+G+G+G+5 e #.9.g.d.9.<.%.>.X O l h         ",
"      j l l.w.F.K.Q.X.++-+-+'+-+N.y+G+G+G+G+G+G+G+G+< 9 #.b.k.k.b.3.).(...S O l h       ",
"      h (.t.B.K.P.Q.++-+'+{+]+~+R.z+G+G+G+G+G+G+G+G+5 i -.g.p.l.d.9.<.%.*.V O D h       ",
"    h C s.w.F.M.Q..+&+-+{+:+<+:+#+p+j+_+@+U.Y.>+2+d+e Q 5.l.o.p.g.0.[.%.>.Z O O l h     ",
"    h 2.r.B.K.P.X.%+-+{+:+1+3+3+]+T.h. .M E z t t A Q ~.g.x.z.s.k.b.4.).(...S O P h     ",
"  h l p.z.D.K.Q..+-+'+^+}+5+7+7+3+;+J.f.1.].,.=.=.,.}.e.u.w.w.x.l.d.9.^.(.$.T O O l h   ",
"  j S s.z.F.M.Q.++-+~+:+1+6+7+0+5+r+m+[+ +L.V.!+c+q+8.a.v.y.w.r.n.d.9.^.(.$.T O O C h   ",
"  h ^.u.w.G.O.Q.#+-+{+<+3+7+a+b+5+A+G+G+G+G+G+G+G+E+Y =.e.t.w.z.n.d.9.<.%.*.V O O I h   ",
"h l k.u.E.G.O.Q.#+-+]+<+5+7+a+a+|+w+G+G+G+G+G+G+G+D+f G 5.s.w.t.p.d.9.<.%.*.V O O O j h ",
"h H k.u.w.G.O.Q.#+-+{+<+5+7+a+0+/+u+G+G+G+G+G+G+G+C+| i }.p.w.t.n.d.9.<.%.*.V O O O l h ",
"h P k.s.z.F.O.Q.#+-+{+:+1+7+7+7+)+t+G+G+G+G+G+G+G+B+_ b _.l.z.z.n.d.9.<.%.$.T O O O C h ",
"h O g.p.z.D.K.Q..+-+~+(+}+5+7+5+=+s+G+G+G+G+G+G+G+z+_ 9 -.k.z.x.l.d.9.^.(.$.T O O O C h ",
"h V d.n.z.B.K.P.`.%+-+{+:+1+3+1+$+s+G+G+G+G+G+G+G+z+_ 9 -.k.x.u.k.c.4.).(...S O O O H h ",
"h V d.l.o.E.G.O.Q.++-+'+]+<+<+(+Z.s+G+G+G+G+G+G+G+z+_ 6 -.g.s.p.k.b.3.;.!.Z O O O O H h ",
"h N b.k.s.z.D.K.P.X.#+-+~+]+(+~+T.s+G+G+G+G+G+G+G+B+^ 6 #.d.n.l.d.9.<.(.*.X O O O O C h ",
"h I 9.d.l.x.E.G.M.Q.`.#+-+'+~+-+N.t+G+G+G+G+G+G+G+C+~ 6 ` 0.k.k.c.4.).(.$.T O O O O C h ",
"h C 4.b.k.p.t.B.H.O.Q.X.#+&+-+++E.u+G+G+G+G+G+G+G+D+~ 6 W 9.g.d.9.[.%.!.Z O O O O O l h ",
"h j <.9.d.k.u.t.B.H.M.Q.Q..+++Q.x.v+G+G+G+G+G+G+G+E+) 2 U [.c.b.4.^.(.$.V O O O O O j h ",
"  h ..3.0.d.l.u.t.B.G.K.P.Q.Q.M.q.y+G+G+G+G+G+G+G+F+> [ K ).0.9.<.%.>.Z S O O O O I h   ",
"  h P ^.4.b.g.l.u.z.y.F.H.K.M.F.m.x+G+G+G+G+G+G+G+G+> : K %.3.[.;.(.$.T O O O O O C h   ",
"  h l %.<.9.b.g.l.s.r.z.B.D.F.y.a.x+G+G+G+G+G+G+G+G+> / x +.^.).(.*.X O O O O O O l h   ",
"    h S %.<.4.b.d.k.n.u.r.t.z.u.7.x+G+G+G+G+G+G+G+G+> ] p $.%.%.>.Z S O O O O O P h     ",
"    h l (.%.^.4.0.c.g.k.n.s.s.k.|.v+G+G+G+G+G+G+G+G+- ] k V +.>.Z T O O O O O O l h     ",
"      h L !.(.).[.9.0.c.d.k.k.c.~.v+G+G+G+G+G+G+G+G+= ! g O ..Z T O O O O O O D h       ",
"      h l X >.(.;.^.3.9.9.b.b.4...v+G+G+G+G+G+G+G+G+= ; c L T S O O O O O O O l h       ",
"        h l Z *.!.%.;.^.[.3.3.^.` v+G+G+G+G+G+G+G+G+= ; 0 D N O O O O O O O l h         ",
"          h C V ..*.!.(.%.;.;.@.O i+l+h+f+e+e+e+e+g+& , 8 D L O O O O O O C h           ",
"            h H S X Z $.>.!.+.*.N d , # + . . . . @ $ { 0 D N O O O O O H h             ",
"            j h C O S T X Z ..X L k } ! * % % % % * ' 1 r D O O O O O C h j             ",
"                h l O O O O S O L D m 8 1 1 1 1 1 4 0 m D L O O O O l h                 ",
"                  h l D O O O O N I D D s q q q s s D D L O O O D l h                   ",
"                    h h l P O O O O N L L L L L L L L N O O P l h h                     ",
"                        h h l C I O O O O O O O O O O I C l h h                         ",
"                            h h h j l C C H H C C l j h h h                             ",
"                                  h h h h h h h h h h                                   "};
