/* XPM */
static char * txapeople_xpm[] = {
"48 44 256 2",
"  	c None",
". 	c #000100",
"+ 	c #030005",
"@ 	c #080100",
"# 	c #020021",
"$ 	c #010218",
"% 	c #03011D",
"& 	c #000227",
"* 	c #010130",
"= 	c #0C011A",
"- 	c #10001F",
"; 	c #12001B",
"> 	c #03004C",
", 	c #130024",
"' 	c #160020",
") 	c #000B05",
"! 	c #180125",
"~ 	c #17012A",
"{ 	c #00035D",
"] 	c #030C00",
"^ 	c #1F0030",
"/ 	c #090B05",
"( 	c #120900",
"_ 	c #000749",
": 	c #19004A",
"< 	c #210037",
"[ 	c #001001",
"} 	c #0000B4",
"| 	c #130D03",
"1 	c #0C0099",
"2 	c #000591",
"3 	c #1E054A",
"4 	c #0000D5",
"5 	c #2A0248",
"6 	c #0B0E31",
"7 	c #140F0D",
"8 	c #011600",
"9 	c #0F110E",
"0 	c #191000",
"a 	c #240A33",
"b 	c #0006CE",
"c 	c #230C2E",
"d 	c #1800CF",
"e 	c #131042",
"f 	c #410067",
"g 	c #221502",
"h 	c #121630",
"i 	c #1F1701",
"j 	c #091D0B",
"k 	c #171816",
"l 	c #291044",
"m 	c #151364",
"n 	c #4E007C",
"o 	c #1B191C",
"p 	c #0B2009",
"q 	c #141652",
"r 	c #1C1C16",
"s 	c #540089",
"t 	c #261C06",
"u 	c #211C17",
"v 	c #291C00",
"w 	c #211D1C",
"x 	c #5B0091",
"y 	c #1D1F1D",
"z 	c #2E1554",
"A 	c #1511D6",
"B 	c #201C49",
"C 	c #62009D",
"D 	c #11261A",
"E 	c #351F01",
"F 	c #282118",
"G 	c #152814",
"H 	c #0D2B15",
"I 	c #2D2309",
"J 	c #2B2311",
"K 	c #252422",
"L 	c #27241E",
"M 	c #392200",
"N 	c #322311",
"O 	c #262431",
"P 	c #362507",
"Q 	c #1A2D19",
"R 	c #7601BF",
"S 	c #352802",
"T 	c #8000CB",
"U 	c #292B28",
"V 	c #053909",
"W 	c #8100D3",
"X 	c #1321D9",
"Y 	c #442804",
"Z 	c #252C3D",
"` 	c #342C22",
" .	c #2D2B43",
"..	c #3C2E02",
"+.	c #3A2F1C",
"@.	c #343126",
"#.	c #31322F",
"$.	c #21391D",
"%.	c #3C302C",
"&.	c #503000",
"*.	c #38332D",
"=.	c #3F3517",
"-.	c #323080",
";.	c #8E0CD6",
">.	c #383636",
",.	c #48361F",
"'.	c #473916",
").	c #005200",
"!.	c #523909",
"~.	c #312EDB",
"{.	c #5D3805",
"].	c #433C2B",
"^.	c #3E3D36",
"/.	c #433D32",
"(.	c #463E21",
"_.	c #553B15",
":.	c #3E403D",
"<.	c #065900",
"[.	c #463E50",
"}.	c #663D00",
"|.	c #324B2E",
"1.	c #504239",
"2.	c #4B443E",
"3.	c #444643",
"4.	c #6E4200",
"5.	c #464469",
"6.	c #0E5F0E",
"7.	c #4D4942",
"8.	c #56473E",
"9.	c #58492A",
"0.	c #453DDB",
"a.	c #4043B2",
"b.	c #434A79",
"c.	c #784704",
"d.	c #674A1E",
"e.	c #5C4F17",
"f.	c #504E4C",
"g.	c #544F3E",
"h.	c #565044",
"i.	c #7E4B00",
"j.	c #793D9A",
"k.	c #614F30",
"l.	c #992DDC",
"m.	c #5D4F45",
"n.	c #604F41",
"o.	c #54534C",
"p.	c #615529",
"q.	c #494ADF",
"r.	c #6E5419",
"s.	c #3D623D",
"t.	c #745802",
"u.	c #5F5842",
"v.	c #8C5200",
"w.	c #675648",
"x.	c #8E41B2",
"y.	c #75590F",
"z.	c #6C5834",
"A.	c #895506",
"B.	c #8346B1",
"C.	c #615B4F",
"D.	c #257126",
"E.	c #5F5B56",
"F.	c #8C45BB",
"G.	c #A33EDC",
"H.	c #7D5F07",
"I.	c #955900",
"J.	c #5A5DA7",
"K.	c #715E5B",
"L.	c #866600",
"M.	c #964FBE",
"N.	c #347C35",
"O.	c #6A6863",
"P.	c #5C61D3",
"Q.	c #AA49DF",
"R.	c #4B7648",
"S.	c #6166BE",
"T.	c #7E6D2E",
"U.	c #716E61",
"V.	c #776E57",
"W.	c #3E823E",
"X.	c #6767E5",
"Y.	c #9E5BC2",
"Z.	c #806E5F",
"`.	c #9A7205",
" +	c #837162",
".+	c #947240",
"++	c #797668",
"@+	c #756FCA",
"#+	c #B05EE4",
"$+	c #94792F",
"%+	c #AD61DA",
"&+	c #7273E8",
"*+	c #7A7C79",
"=+	c #887C62",
"-+	c #917B61",
";+	c #B067D9",
">+	c #947E4C",
",+	c #539152",
"'+	c #A97B30",
")+	c #7679DE",
"!+	c #7679E7",
"~+	c #917E6F",
"{+	c #997E6B",
"]+	c #5C955D",
"^+	c #B96CE6",
"/+	c #AF813D",
"(+	c #9F8648",
"_+	c #837FE9",
":+	c #A3873D",
"<+	c #B372E1",
"[+	c #9E8477",
"}+	c #898B88",
"|+	c #BC73E5",
"1+	c #978D6F",
"2+	c #A48976",
"3+	c #938E7A",
"4+	c #AD8E2F",
"5+	c #988E82",
"6+	c #B89022",
"7+	c #6DA16F",
"8+	c #C17CE8",
"9+	c #BF81E9",
"0+	c #A39876",
"a+	c #CE9C00",
"b+	c #7DA978",
"c+	c #7DAC81",
"d+	c #ACA07C",
"e+	c #BC9D84",
"f+	c #B5A882",
"g+	c #CFAA33",
"h+	c #E6AA00",
"i+	c #AEACAA",
"j+	c #C7A88F",
"k+	c #EFB204",
"l+	c #B3B5B2",
"m+	c #F8BA00",
"n+	c #DBB49C",
"o+	c #D5B69E",
"p+	c #CDBE92",
"q+	c #E7BF41",
"r+	c #FFBF00",
"s+	c #E4C2AB",
"t+	c #F6C83F",
"u+	c #D4C9A9",
"v+	c #EDC4A6",
"w+	c #FFCE39",
"x+	c #E0CF9D",
"y+	c #F5CCAD",
"z+	c #E2D6B6",
"A+	c #FFD5B7",
"B+	c #EFDDAA",
"C+	c #FEDFC9",
"D+	c #F8E5B0",
"E+	c #FFEDB4",
"F+	c #FFF0C3",
"G+	c #FFF2CB",
"                                            9 9   . . .                                         ",
"                                      / K :.U L d.Y @ . . . .                                   ",
"                                    k :.:.K g I.I.I.A.( . . . .                                 ",
"                                  y :.:.:.| v.I.I.I.I.4./ . . . .                               ",
"                                9 :.:.:.*.Y {.v.I.A.,.].t . . . . .                             ",
"                                #.:.:.:./.O.i++.I.!.*+*+` ( . . . .                             ",
"                                :.:.:.2.z.k #.F I.c./ k N Y . . . . .                           ",
"                              / :.:.:.g.'+P i 4.I.I.v.c.I.v.( . . . .                           ",
"                                #.:.2..+'+I.I.I.I.I.I.I.I.I.M . . @ .                           ",
"                                k :.h./+/+I.I.I.I.I.I.I.I.I.v.( . . .                           ",
"                I J   i i       . y .+/+.+&.I.I.I.I.I.&.&.I.I.v . . .                           ",
"          =.z.:+(.C. +J H.t.S t . . _./+/+4.E E M E M }.I.I.v.0 . . .                           ",
"      I $+t+w+r.e+A+A+A+9.a+r+h+..  ( M A.I.I.I.I.I.I.I.I.c.0 . .                               ",
"    I g+w+w+6+-+A+A+A+A+y+'.m+r+r+!.    | M }.i.I.v.i.{.g | . . / k 9   . .                     ",
"    4+w+w+t+9.2+n+A+A+2+7.m.H.r+r+m+v       . ( ( ( ( @ . . / U :.U *.0+V./ . . . .             ",
"  (.t+w+w+>+2.i+f.n+v+f.}+O.].h+r+r+L.. % & * e _ _ * & $ o :.:.y ].E+E+E+x+r . . . .           ",
"  p.w+w+q+=+>.3.#.e+A+w K 9 j+y.r+r+a+ .P.&+_+X.4 4 4 1 O :.:.:.L D+E+E+E+E+0+7 . . . .         ",
"  T.w+w+>+s+~+w m.A+A+y+{+s+A+k.k+r+k+[._+_+&+b 4 4 4 h :.:.:.:.=+1+B+E+x+h.7.@.. . . . .       ",
"  e.w+q+=+C+A+A+A+A+A+A+A+A+A+o+y.r+a+5._+_+X 4 4 4 1 >.:.:.:.o.*+l+C.E+V.*+*+^.r . . . .       ",
"  S w+(+s+C+A+A+A+A+A+A+A+A+A+A+9.k+`.J._+0.4 4 4 4 { :.:.:.o.3+y U ^.E+f+9 k g.u.. . . . .     ",
"  v a+V.C+C+ +v+A+A+A+A+n+1.y+A+j+t.=.)+&+4 4 4 4 4 _ :.:.:.++F+g./.p+E+E+x+p+E+B+r . . . .     ",
"    | *.C+C+o+8.8.m.n.1.w.v+A+A+[+J [._+q.4 4 4 4 4 { #.:.f.z+F+E+E+E+E+E+E+E+E+E+g.. . . .     ",
"        %.o+A+A+A+y+y+A+A+A+y+K.5.@+)+_+X 4 4 4 4 4 2 o :.U.G+F+E+E+E+E+E+E+E+D+E+x+r . . .     ",
"          u 1.e+s+A+A+y+j+Z.u -._+_+_+_+b 4 4 4 4 4 b $ K u+G+u+=+E+E+E+E+D+V.0+E+E+].. . .     ",
"              @ u F L u 7 . + a._+_+_+_+~.4 4 4 4 4 4 > $ 5+F+F+d+g.g.g.g.u.f+E+E+B+r . . .     ",
"            [ [ 8 p 8 8 8 [ ) -.)+_+_+_+X.A 4 4 4 4 4 b } m E.B+E+E+E+E+E+E+E+E+d+L . .         ",
"      [ $.R.]+7+b+D.<.<.<.<.).V D Z @+_+_+&+~.4 4 4 4 4 4 4 } B E.f+x+E+B+p+1+@.9 . .           ",
"  ] |.7+c+c+c+c+W.<.<.<.<.<.<.<.<.).D b._+_+_+!+q.A 4 4 4 4 4 4 } 2 q w r 7 . . . .             ",
"  s.c+c+c+c+c+]+<.<.<.<.<.<.<.<.<.<.<.H S._+_+_+_+&+d 4 4 d 1 { : 3 z 5 5 < ^ ~ -               ",
"[ c+c+c+c+c+7+6.<.<.<.<.<.<.<.<.<.<.<.).) # & 6 6 6 & # % l j.%+|+8+#+W W W W W R n < ;         ",
"8 c+c+c+c+c+D.<.<.<.<.<.<.<.<.<.<.<.<.<.[ .         + c Y.8+9+9+9+^+;.W W W W W W W W C !       ",
"j c+c+c+c+b+<.<.<.<.<.<.<.<.<.<.<.<.<.<.[ .         c <+9+9+9+9+8+;.W W W W W W W W W W T -     ",
"p c+c+c+c+,+<.<.<.<.<.<.<.<.<.<.<.<.<.<.[ .         j.9+9+9+9+9+l.W W W W W W W W W W W W f .   ",
"p c+c+c+c+W.<.<.<.<.<.<.<.<.<.<.<.<.<.<.[ .         F.9+9+9+9+^+W W W W W W W W W W W W W s .   ",
"G c+c+c+c+]+<.<.<.<.<.<.<.<.<.<.<.<.<.<.[ .         x.9+9+9+9+G.W W W W W W W W W W W W W s .   ",
"H c+c+c+c+c+D.<.<.<.<.<.<.<.<.<.<.<.<.<.[ .         F.9+9+9+9+;.W W W W W W W W W W W W W x .   ",
"Q c+c+c+c+c+c+W.6.<.<.<.<.<.<.<.<.<.<.<.[ .         M.9+9+9+8+W W W W W W W W W W W W W W x .   ",
"Q c+c+c+c+c+c+c+b+,+D.<.<.<.<.<.<.<.<.<.[ .         F.9+9+9+9+l.W W W W W W W W W W W W W x .   ",
"Q 7+b+b+c+c+c+c+c+c+c+N.<.<.<.<.<.<.<.<.[ .         M.9+9+9+9+#+;.W W W W W W W W W W W W x @   ",
"] [ ] ] ] [ 8 j D G Q 8 8 [ [ [ [ [ ] ] ) .       ; M.9+9+9+9+9+|+l.W W W W W W W W W W W x @   ",
"                  . . . . . . .                   - M.9+9+9+9+9+9+9+8+Q.;.W W W W W W W W x +   ",
"                                                  - B.;+<+|+|+8+8+9+9+9+^+W W W W W T T R s +   ",
"                                                    , ' ; ; ; - , ! c a a ~ ! ' - ; = ; = = + . ",
"                                                                                                "};
