/* XPM */
static char * txapostcard_xpm[] = {
"44 34 112 2",
"  	c None",
". 	c #000000",
"+ 	c #010100",
"@ 	c #020101",
"# 	c #020201",
"$ 	c #030201",
"% 	c #030301",
"& 	c #040301",
"* 	c #050401",
"= 	c #060502",
"- 	c #0A0802",
"; 	c #0D0B03",
"> 	c #0D0B04",
", 	c #100D05",
"' 	c #110F04",
") 	c #141006",
"! 	c #161305",
"~ 	c #191508",
"{ 	c #1C1806",
"] 	c #1E1A09",
"^ 	c #28210D",
"/ 	c #28220B",
"( 	c #2F260F",
"_ 	c #30290C",
": 	c #332911",
"< 	c #362B12",
"[ 	c #39310E",
"} 	c #3C3113",
"| 	c #3D3114",
"1 	c #413814",
"2 	c #423914",
"3 	c #443910",
"4 	c #433914",
"5 	c #433A14",
"6 	c #443B14",
"7 	c #453B14",
"8 	c #453B15",
"9 	c #463C14",
"0 	c #473D14",
"a 	c #483D14",
"b 	c #483E14",
"c 	c #493F14",
"d 	c #4A3F14",
"e 	c #4B4014",
"f 	c #4C4014",
"g 	c #4E4019",
"h 	c #4D4114",
"i 	c #4D4214",
"j 	c #4E4212",
"k 	c #4E4314",
"l 	c #4F4314",
"m 	c #504312",
"n 	c #504414",
"o 	c #514414",
"p 	c #514514",
"q 	c #524614",
"r 	c #55451C",
"s 	c #534714",
"t 	c #544714",
"u 	c #554814",
"v 	c #564914",
"w 	c #574914",
"x 	c #574A17",
"y 	c #5A4A1D",
"z 	c #604E1F",
"A 	c #665321",
"B 	c #645518",
"C 	c #6E5D1B",
"D 	c #715C25",
"E 	c #756026",
"F 	c #786227",
"G 	c #7A6428",
"H 	c #7A671C",
"I 	c #7F6829",
"J 	c #80692A",
"K 	c #816A2A",
"L 	c #826A2A",
"M 	c #86711F",
"N 	c #917B24",
"O 	c #95802E",
"P 	c #97822E",
"Q 	c #9B8325",
"R 	c #99832E",
"S 	c #9B852E",
"T 	c #9D872E",
"U 	c #9F882E",
"V 	c #A18A2E",
"W 	c #A48B27",
"X 	c #A38B2E",
"Y 	c #A58D2E",
"Z 	c #A68E2E",
"` 	c #A88F2B",
" .	c #A8902E",
"..	c #AA912E",
"+.	c #AC932E",
"@.	c #AE9428",
"#.	c #AE942E",
"$.	c #B0952B",
"%.	c #B0962D",
"&.	c #B2972D",
"*.	c #B4992D",
"=.	c #B69A2D",
"-.	c #B79B2C",
";.	c #B89C2D",
">.	c #B99D2D",
",.	c #BB9F2D",
"'.	c #BDA02D",
").	c #BEA02C",
"!.	c #BFA22D",
"~.	c #C1A32D",
"{.	c #C3A52D",
"].	c #C5A72D",
". . . . . . . . . . . . . . . . . . . . . . . . . . . . . . . . . . . . . . . . . . . . ",
". . . . . . . . . . . . . . . . . . . . . . . . . . . . . . . . . . . . . . . . . . . . ",
". . + * : | | | | | | | | | | | | | | | | | | | | | | | | | | | | | | | | | | : * + . . ",
". . m { @ g L L L L L L L L L L L L L L L L L L L L L L L L L L L L L L L L g @ { m . . ",
". . w ].j . ^ I L L L L L L L L L L L L L L L L L L L L L L L L L L L L I ^ . j ].w . . ",
". . v ].].M & > D L L L L L L L L L L L L L L L L L L L L L L L L L L D > & M ].].v . . ",
". . u {.{.{.@.! # r L L L L L L L L L L L L L L L L L L L L L L L L r # ! @.{.{.{.u . . ",
". . t ~.~.~.~.).3 . ( J L L L L L L L L L L L L L L L L L L L L J ( . 3 ).~.~.~.~.t . . ",
". . s !.!.!.!.!.!.H $ , E L L L L L L L L L L L L L L L L L L E , $ H !.!.!.!.!.!.s . . ",
". . q '.'.'.'.'.'.'.W ' % y L L L L L L L L L L L L L L L L y % ' W '.'.'.'.'.'.'.q . . ",
". . p ,.,.,.,.,.,.,.,.-.[ . < K L L L L L L L L L L L L K < . [ -.,.,.,.,.,.,.,.,.p . . ",
". . o >.>.>.>.>.>.>.>.>.>.C # ) F L L L L L L L L L L F ) # C >.>.>.>.>.>.>.>.>.>.o . . ",
". . n ;.;.;.;.;.;.;.;.;.;.;.Q ; & z L L L L L L L L z & ; Q ;.;.;.;.;.;.;.;.;.;.;.n . . ",
". . l =.=.=.=.=.=.=.=.=.=.=.=.$._ . } L L L L L L } . _ $.=.=.=.=.=.=.=.=.=.=.=.=.l . . ",
". . k *.*.*.*.*.*.*.*.*.*.*.*.*.*.B + ~ G L L G ~ + B *.*.*.*.*.*.*.*.*.*.*.*.*.*.k . . ",
". . i &.&.&.&.&.&.&.&.&.&.&.&.&.&.&.N - = A A = - N &.&.&.&.&.&.&.&.&.&.&.&.&.&.&.i . . ",
". . h %.%.%.%.%.%.%.%.%.%.%.%.%.%.%.%.` / + + / ` %.%.%.%.%.%.%.%.%.%.%.%.%.%.%.%.h . . ",
". . f #.#.#.#.#.#.#.#.#.#.#.#.#.#.#.#.#.#.x x #.#.#.#.#.#.#.#.#.#.#.#.#.#.#.#.#.#.f . . ",
". . e +.+.+.+.+.+.+.+.+.+.+.+.+.+.+.+.+.+.+.+.+.+.+.+.+.+.+.+.+.+.+.+.+.+.+.+.+.+.e . . ",
". . d ............................................................................d . . ",
". . c  . . . . . . . . . . . . . . . . . . . . . . . . . . . . . . . . . . . . . .c . . ",
". . b Z Z Z Z Z Z Z Z Z Z Z Z Z Z Z Z Z Z Z Z Z Z Z Z Z Z Z Z Z Z Z Z Z Z Z Z Z Z b . . ",
". . a Y Y Y Y Y Y Y Y Y Y Y Y Y Y Y Y Y Y Y Y Y Y Y Y Y Y Y Y Y Y Y Y Y Y Y Y Y Y a . . ",
". . 0 X X X X X X X X X X X X X X X X X X X X X X X X X X X X X X X X X X X X X X 0 . . ",
". . 9 V V V V V V V V V V V V V V V V V V V V V V V V V V V V V V V V V V V V V V 9 . . ",
". . 7 U U U U U U U U U U U U U U U U U U U U U U U U U U U U U U U U U U U U U U 7 . . ",
". . 6 T T T T T T T T T T T T T T T T T T T T T T T T T T T T T T T T T T T T T T 6 . . ",
". . 5 S S S S S S S S S S S S S S S S S S S S S S S S S S S S S S S S S S S S S S 5 . . ",
". . 4 R R R R R R R R R R R R R R R R R R R R R R R R R R R R R R R R R R R R R R 4 . . ",
". . 2 P P P P P P P P P P P P P P P P P P P P P P P P P P P P P P P P P P P P P P 2 . . ",
". . 1 O O O O O O O O O O O O O O O O O O O O O O O O O O O O O O O O O O O O O O 1 . . ",
". . ] 8 8 8 8 8 8 8 8 8 8 8 8 8 8 8 8 8 8 8 8 8 8 8 8 8 8 8 8 8 8 8 8 8 8 8 8 8 8 ] . . ",
". . . . . . . . . . . . . . . . . . . . . . . . . . . . . . . . . . . . . . . . . . . . ",
". . . . . . . . . . . . . . . . . . . . . . . . . . . . . . . . . . . . . . . . . . . . "};
