/* XPM */
static char * ArrowIndi_xpm[] = {
"18 18 117 2",
"  	c None",
". 	c #0A930A",
"+ 	c #119611",
"@ 	c #129912",
"# 	c #139913",
"$ 	c #129A12",
"% 	c #149B14",
"& 	c #169B16",
"* 	c #179C15",
"= 	c #179C17",
"- 	c #159D15",
"; 	c #1B9D1A",
"> 	c #1DA01D",
", 	c #299F27",
"' 	c #1FA31F",
") 	c #21A421",
"! 	c #22A521",
"~ 	c #2DA228",
"{ 	c #2CA42A",
"] 	c #24A724",
"^ 	c #2CA42B",
"/ 	c #25A725",
"( 	c #2EA62C",
"_ 	c #2DA82D",
": 	c #37A635",
"< 	c #33B132",
"[ 	c #4FAF00",
"} 	c #38B537",
"| 	c #49B246",
"1 	c #48B345",
"2 	c #56B800",
"3 	c #57B801",
"4 	c #58B902",
"5 	c #5CC200",
"6 	c #5EB958",
"7 	c #5DBF22",
"8 	c #5DC300",
"9 	c #48C248",
"0 	c #5FC132",
"a 	c #65BE5F",
"b 	c #69C042",
"c 	c #7BBC42",
"d 	c #63C914",
"e 	c #63CC00",
"f 	c #63CD00",
"g 	c #53CB50",
"h 	c #65CE07",
"i 	c #67CA2C",
"j 	c #6AC866",
"k 	c #6FCF13",
"l 	c #6AD500",
"m 	c #7DCC31",
"n 	c #88C64D",
"o 	c #64D45E",
"p 	c #63D55A",
"q 	c #6EDB04",
"r 	c #8BC96D",
"s 	c #A2C185",
"t 	c #A3C186",
"u 	c #A3C286",
"v 	c #83CD7C",
"w 	c #91CD54",
"x 	c #71DF00",
"y 	c #83CE7C",
"z 	c #72E001",
"A 	c #70D957",
"B 	c #A6C585",
"C 	c #73E202",
"D 	c #A6C685",
"E 	c #73DA59",
"F 	c #82DC27",
"G 	c #8ED085",
"H 	c #A8CA85",
"I 	c #A9CA86",
"J 	c #6EE062",
"K 	c #8ED487",
"L 	c #AACB91",
"M 	c #78E900",
"N 	c #79E901",
"O 	c #79E52E",
"P 	c #76E164",
"Q 	c #ACCE85",
"R 	c #ACCD90",
"S 	c #7BE815",
"T 	c #7BE73C",
"U 	c #7BEB22",
"V 	c #AAD291",
"W 	c #AFD285",
"X 	c #AFD190",
"Y 	c #7DE757",
"Z 	c #B0D19C",
"` 	c #80F106",
" .	c #B1D590",
"..	c #7AEA62",
"+.	c #B2D685",
"@.	c #B2D49C",
"#.	c #B2D786",
"$.	c #7CE977",
"%.	c #B3D78E",
"&.	c #80F30F",
"*.	c #B5DA85",
"=.	c #B5D8A3",
"-.	c #B2DD7E",
";.	c #80EF61",
">.	c #B2E179",
",.	c #B7DF85",
"'.	c #85F554",
").	c #B9E18C",
"!.	c #BADFAA",
"~.	c #BBE197",
"{.	c #BBE387",
"].	c #AEE5A2",
"^.	c #BCE39F",
"/.	c #C2E8AA",
"(.	c #BEECAA",
"_.	c #C4EDA6",
":.	c #C9F2BE",
"                  +                 ",
"                ] }                 ",
"              = ;.'.'               ",
"            $ J &.` ..&             ",
"            g U N M S p #           ",
"          < T C x x z O j           ",
"        > Y q l l l l F _.1         ",
"      % P h f e e e k >.{.(.{       ",
"    @ o d 8 5 5 5 m -.,.,.).].;     ",
"    9 i 4 3 2 3 w *.*.*.*.*.~.K     ",
"  / $.A E 7 [ n +.+.+.+.#.^./.:.a   ",
"  % - * ! 0 c W W W W W %.G ~ ( ^ . ",
"        ) b Q Q Q Q Q Q  .v         ",
"        ) r I H H H H H X y         ",
"        ) V D B B B B B R y         ",
"        _ @.u s s s s t L y         ",
"        | !.Z Z Z Z Z Z =.v         ",
"        , 6 6 6 6 6 6 6 6 :         "};
