/* XPM */
static char * Datasource_xpm[] = {
"12 14 11 1",
" 	c None",
".	c #A7C2E6",
"+	c #4276C4",
"@	c #D3E1F3",
"#	c #FFFFFF",
"$	c #BDD1EC",
"%	c #91B2DF",
"&	c #709BD6",
"*	c #7BA3D9",
"=	c #6493D2",
"-	c #4578C5",
"  .++++++.  ",
".++@#@$.%++.",
"+&%$@$.%*&=+",
"=++.$.%*&++=",
"=*%++++++*&=",
"+*%$#@$.%*&+",
"=-+$#@$.%++=",
"=*%++++++*&=",
"+*%$#@$.%*&+",
"=-+$#@$.%++=",
"=*%++++++*&=",
"-*%$#@$.%*&+",
".-+$#@$.%++.",
"  .++++++.  "};
