<?xml version="1.0" encoding="UTF-8" standalone="no"?>
<!-- Created with Inkscape (http://www.inkscape.org/) -->

<svg
   xmlns:dc="http://purl.org/dc/elements/1.1/"
   xmlns:cc="http://creativecommons.org/ns#"
   xmlns:rdf="http://www.w3.org/1999/02/22-rdf-syntax-ns#"
   xmlns:svg="http://www.w3.org/2000/svg"
   xmlns="http://www.w3.org/2000/svg"
   xmlns:xlink="http://www.w3.org/1999/xlink"
   xmlns:sodipodi="http://sodipodi.sourceforge.net/DTD/sodipodi-0.dtd"
   xmlns:inkscape="http://www.inkscape.org/namespaces/inkscape"
   width="128"
   height="128"
   id="svg2"
   sodipodi:version="0.32"
   inkscape:version="0.48.3.1 r9886"
   version="1.0"
   sodipodi:docname="nicubunu_Scroll.svg"
   inkscape:output_extension="org.inkscape.output.svg.inkscape"
   inkscape:export-filename="/home/matthieu/Bureau/Matthieu/Programmation/Lazarus Delphi/AncestroComponents/Resources/nicubunu_Scroll.png"
   inkscape:export-xdpi="30.9375"
   inkscape:export-ydpi="30.9375">
  <defs
     id="defs4">
    <linearGradient
       id="linearGradient15443">
      <stop
         style="stop-color:#ffffff;stop-opacity:1;"
         offset="0"
         id="stop15445" />
      <stop
         style="stop-color:#ffffff;stop-opacity:0;"
         offset="1"
         id="stop15447" />
    </linearGradient>
    <linearGradient
       id="linearGradient3203">
      <stop
         style="stop-color:#fff5ba;stop-opacity:1;"
         offset="0"
         id="stop3205" />
      <stop
         style="stop-color:#fff9d7;stop-opacity:1;"
         offset="1"
         id="stop3207" />
    </linearGradient>
    <linearGradient
       inkscape:collect="always"
       xlink:href="#linearGradient3203"
       id="linearGradient3209"
       x1="9.8691861"
       y1="63.179578"
       x2="113.33333"
       y2="63.179578"
       gradientUnits="userSpaceOnUse" />
    <linearGradient
       inkscape:collect="always"
       xlink:href="#linearGradient3203"
       id="linearGradient3217"
       x1="90.859901"
       y1="87.072472"
       x2="96.753624"
       y2="99.40097"
       gradientUnits="userSpaceOnUse" />
    <linearGradient
       inkscape:collect="always"
       xlink:href="#linearGradient3203"
       id="linearGradient3219"
       x1="53.111111"
       y1="120.88889"
       x2="43.333332"
       y2="86.222221"
       gradientUnits="userSpaceOnUse" />
    <linearGradient
       inkscape:collect="always"
       xlink:href="#linearGradient3203"
       id="linearGradient3227"
       x1="107.85001"
       y1="15.299929"
       x2="112.03712"
       y2="47.974014"
       gradientUnits="userSpaceOnUse" />
    <linearGradient
       inkscape:collect="always"
       xlink:href="#linearGradient3203"
       id="linearGradient3237"
       x1="100.76637"
       y1="53.079342"
       x2="99.426224"
       y2="29.977741"
       gradientUnits="userSpaceOnUse" />
    <linearGradient
       inkscape:collect="always"
       xlink:href="#linearGradient3203"
       id="linearGradient3245"
       x1="105.93551"
       y1="31.509338"
       x2="107.46712"
       y2="39.67786"
       gradientUnits="userSpaceOnUse" />
    <filter
       inkscape:collect="always"
       id="filter7270">
      <feGaussianBlur
         inkscape:collect="always"
         stdDeviation="2.4208637"
         id="feGaussianBlur7272" />
    </filter>
    <filter
       inkscape:collect="always"
       x="-0.14038171"
       width="1.2807634"
       y="-0.10107025"
       height="1.2021405"
       id="filter9307">
      <feGaussianBlur
         inkscape:collect="always"
         stdDeviation="1.4879786"
         id="feGaussianBlur9309" />
    </filter>
    <filter
       inkscape:collect="always"
       x="-0.18952365"
       width="1.3790473"
       y="-0.18035319"
       height="1.3607064"
       id="filter10368">
      <feGaussianBlur
         inkscape:collect="always"
         stdDeviation="1.0353609"
         id="feGaussianBlur10370" />
    </filter>
    <filter
       inkscape:collect="always"
       id="filter11419">
      <feGaussianBlur
         inkscape:collect="always"
         stdDeviation="0.5592783"
         id="feGaussianBlur11421" />
    </filter>
    <filter
       inkscape:collect="always"
       x="-0.21750046"
       width="1.4350009"
       y="-0.099016976"
       height="1.198034"
       id="filter12426">
      <feGaussianBlur
         inkscape:collect="always"
         stdDeviation="0.99933803"
         id="feGaussianBlur12428" />
    </filter>
    <filter
       inkscape:collect="always"
       x="-0.24007737"
       width="1.4801547"
       y="-0.12804122"
       height="1.2560824"
       id="filter13445">
      <feGaussianBlur
         inkscape:collect="always"
         stdDeviation="0.71134012"
         id="feGaussianBlur13447" />
    </filter>
    <filter
       inkscape:collect="always"
       id="filter15437">
      <feGaussianBlur
         inkscape:collect="always"
         stdDeviation="1.442267"
         id="feGaussianBlur15439" />
    </filter>
    <linearGradient
       inkscape:collect="always"
       xlink:href="#linearGradient15443"
       id="linearGradient15449"
       x1="16.345434"
       y1="85.444443"
       x2="31.444445"
       y2="90.444443"
       gradientUnits="userSpaceOnUse" />
    <linearGradient
       inkscape:collect="always"
       xlink:href="#linearGradient15443"
       id="linearGradient15456"
       gradientUnits="userSpaceOnUse"
       x1="16.345434"
       y1="85.444443"
       x2="31.444445"
       y2="90.444443" />
  </defs>
  <sodipodi:namedview
     id="base"
     pagecolor="#ffffff"
     bordercolor="#666666"
     borderopacity="1.0"
     gridtolerance="10000"
     guidetolerance="10"
     objecttolerance="10"
     inkscape:pageopacity="0.0"
     inkscape:pageshadow="2"
     inkscape:zoom="1"
     inkscape:cx="66"
     inkscape:cy="62"
     inkscape:document-units="px"
     inkscape:current-layer="layer1"
     width="128px"
     height="128px"
     showguides="true"
     inkscape:guide-bbox="true"
     inkscape:window-width="1152"
     inkscape:window-height="791"
     inkscape:window-x="0"
     inkscape:window-y="74"
     showgrid="false"
     inkscape:window-maximized="0" />
  <metadata
     id="metadata7">
    <rdf:RDF>
      <cc:Work
         rdf:about="">
        <dc:format>image/svg+xml</dc:format>
        <dc:type
           rdf:resource="http://purl.org/dc/dcmitype/StillImage" />
        <dc:title></dc:title>
      </cc:Work>
    </rdf:RDF>
  </metadata>
  <g
     inkscape:label="Layer 1"
     inkscape:groupmode="layer"
     id="layer1">
    <path
       style="fill:#000000;fill-rule:evenodd;stroke:none;stroke-width:1px;stroke-linecap:butt;stroke-linejoin:miter;stroke-opacity:1;filter:url(#filter7270);fill-opacity:0.66492146"
       d="M 46.121528,4.8645834 C 35.95207,4.9006223 25.825527,5.5226641 15.777778,7.0520834 L 14.777778,7.6458334 C 11.05021,15.173162 11.333967,23.887556 11.121528,32.083334 C 11.154901,42.582671 11.845884,53.135615 14.652778,63.302084 C 17.181016,72.037796 18.761597,78.863669 20.777778,87.645834 C 15.963001,88.146843 11.174801,88.94376 6.4027778,90.239584 C 4.4744625,94.11144 5.4800946,98.795261 6.3090278,102.86459 C 8.4017347,110.95981 11.082054,118.81852 18.340278,123.58334 C 18.391882,123.59053 18.445153,123.60803 18.496528,123.61459 L 18.371528,123.70834 C 39.878666,124.62593 62.447863,124.79899 82.902778,123.70834 C 84.762316,123.60919 86.611574,123.51637 88.434028,123.39584 C 95.723844,122.9137 102.6768,122.25202 109.18403,121.39584 L 110.87153,120.89584 C 112.04529,119.92117 112.99446,118.81145 113.77778,117.61459 C 114.03889,117.21564 114.30092,116.81488 114.52778,116.39584 C 115.43524,114.71969 116.07921,112.89506 116.62153,110.98959 C 113.52988,96.605394 102.42296,85.36936 98.934028,71.052084 C 97.543097,66.389194 96.915602,61.715308 96.809028,57.020834 C 101.71195,56.442176 106.54303,55.362239 111.46528,55.333334 C 117.97022,50.98806 120.96635,42.697313 120.46528,34.270834 C 119.17296,26.273575 119.0382,19.254464 113.12153,10.270833 C 91.034336,7.607224 68.494329,4.7852978 46.121528,4.8645834 z "
       id="path6250" />
    <path
       style="fill:url(#linearGradient3227);fill-rule:evenodd;stroke:none;stroke-width:1px;stroke-linecap:butt;stroke-linejoin:miter;stroke-opacity:1"
       d="M 110.78557,9.1735368 L 116.91197,26.148746 C 117.8628,32.892799 118.61281,39.600337 115.8909,45.676618 C 112.34811,53.04068 110.79742,52.436331 108.87108,53.334607 L 91.385336,55.632004 L 98.02226,18.873656 L 110.78557,9.1735368 z "
       id="path3221"
       sodipodi:nodetypes="ccccccc" />
    <path
       style="fill:url(#linearGradient3209);fill-rule:evenodd;stroke:none;stroke-width:1px;stroke-linecap:butt;stroke-linejoin:miter;stroke-opacity:1;fill-opacity:1.0"
       d="M 14.666667,6.2222222 C 32.171803,4.3137335 49.908485,4.0260589 67.777778,4.6666667 L 110.22222,9.3333333 L 100.88889,21.555556 C 96.205282,31.851852 95.3388,42.148148 93.777778,52.444444 C 93.527523,61.86431 96.123429,70.019217 99.111111,78 L 113.33333,109.33333 C 112.43446,112.58974 112.39254,116.09099 109.11111,118.66667 L 95.111111,120.66667 L 24.888889,122 L 19.111111,80.888889 L 10.444444,48.222222 C 10.805964,36.266826 7.9114327,25.062827 12.479049,12.136794 L 14.666667,6.2222222 z "
       id="path2230"
       sodipodi:nodetypes="cccccccccccccc" />
    <path
       style="fill:url(#linearGradient3219);fill-rule:evenodd;stroke:none;stroke-width:1px;stroke-linecap:butt;stroke-linejoin:miter;stroke-opacity:1;fill-opacity:1.0"
       d="M 5.1111111,89.555556 L 23.333333,86.444444 L 53.111111,85.555556 L 90.927536,84.859904 C 88.906815,90.489535 90.629272,96.119166 90.927536,101.7488 C 94.490792,110.78588 100.71961,115.38036 107.33333,119.33333 L 59.333333,122.66667 L 17.777778,122.22222 C 12.630117,119.11041 9.6692778,112.87457 6.2222222,107.33333 C 5.3759324,101.35453 3.7881856,95.293337 5.1111111,89.555556 z "
       id="path3213"
       sodipodi:nodetypes="cccccccccc" />
    <path
       style="fill:url(#linearGradient3217);fill-rule:evenodd;stroke:none;stroke-width:1px;stroke-linecap:butt;stroke-linejoin:miter;stroke-opacity:1"
       d="M 90.917871,84.521741 C 99.098011,89.424063 98.820922,93.958679 101.64251,98.62802 L 90.338161,99.400967 L 89.082123,88.386475 L 90.917871,84.521741 z "
       id="path3215"
       sodipodi:nodetypes="ccccc" />
    <path
       style="fill:url(#linearGradient3245);fill-rule:evenodd;stroke:none;stroke-width:1px;stroke-linecap:butt;stroke-linejoin:miter;stroke-opacity:1"
       d="M 109.89214,41.337091 L 102.61705,42.485789 L 106.19078,29.211941 C 110.05643,31.826367 110.46659,36.639741 110.65794,41.592357 L 109.89214,41.337091 z "
       id="path3225"
       sodipodi:nodetypes="ccccc" />
    <path
       style="fill:url(#linearGradient3237);fill-rule:evenodd;stroke:none;stroke-width:1px;stroke-linecap:butt;stroke-linejoin:miter;stroke-opacity:1"
       d="M 106.06315,29.084308 L 102.99995,43.251588 C 104.21364,48.363456 105.55178,53.039711 108.10528,53.46224 L 93.427466,54.866205 L 95.980129,35.976498 L 98.02226,29.211941 L 106.06315,29.084308 z "
       id="path3223"
       sodipodi:nodetypes="ccccccc" />
    <path
       style="fill:#000000;fill-opacity:1;stroke:none;stroke-width:10;stroke-linejoin:round;stroke-miterlimit:4;stroke-dasharray:none;stroke-opacity:1"
       d="M 44.342001,3.5208032 C 34.172545,3.5568421 24.047214,4.2003451 13.999465,5.7297644 L 12.987024,6.3126847 C 9.2594564,13.840013 9.5485414,22.56888 9.3361024,30.764658 C 9.3694754,41.263995 10.05741,51.799765 12.864304,61.966234 C 15.392542,70.701944 16.984126,77.544002 19.000307,86.326167 C 14.18553,86.827173 9.3834024,87.607464 4.6113799,88.903288 C 2.6830648,92.775146 3.6904067,97.474127 4.5193399,101.54345 C 6.6120469,109.63867 9.3183614,117.48764 16.576586,122.25246 C 16.62819,122.25965 16.678611,122.27658 16.729986,122.28314 L 16.607266,122.37519 C 47.890376,123.70986 81.391205,123.48173 107.42011,120.057 L 109.10751,119.55262 C 112.23754,116.95351 113.76003,113.45393 114.84467,109.64298 C 111.75302,95.258792 100.63124,84.045554 97.142309,69.728278 C 95.75138,65.065389 95.131961,60.371305 95.025387,55.676831 C 99.928314,55.098172 104.76818,54.018335 109.69043,53.98943 C 116.19537,49.644155 119.18075,41.369418 118.67968,32.942939 C 117.38736,24.945681 117.26382,17.934796 111.34715,8.9511661 C 89.259961,6.2875568 66.714802,3.4415176 44.342001,3.5208032 z M 38.850278,5.1468441 C 62.423841,5.1192416 86.273746,7.7294044 108.98479,10.209047 C 101.08061,16.136031 98.555804,24.647835 96.835508,31.408938 C 94.210026,44.286574 90.780282,57.51313 95.393548,70.341879 C 99.808674,84.287258 109.25791,96.149645 112.35959,110.44066 C 112.12376,114.11088 110.17068,116.92349 107.57351,118.72426 C 100.11378,114.1223 94.008808,108.36672 91.527866,99.825371 C 95.028498,99.795011 99.269744,99.648321 102.29655,98.935654 C 100.68711,92.756359 96.657322,87.698891 91.435825,84.239926 L 91.374465,84.301286 C 74.900018,84.989059 55.797279,84.638623 39.341158,85.283046 C 33.377547,85.444584 27.488797,85.591153 21.638789,86.080727 C 19.714517,77.071627 16.277409,70.242849 14.152865,61.260594 C 11.728539,51.046325 10.271874,40.684877 10.563303,30.151057 C 10.689885,22.083297 11.571392,13.473418 15.441425,6.1592846 C 23.186144,5.4638352 30.993624,5.1560435 38.850278,5.1468441 z M 110.73355,10.577207 C 114.27137,17.774998 116.72913,25.708703 117.115,33.740619 C 117.32216,40.685008 116.25985,49.503958 109.29159,52.608829 C 104.90133,50.756586 104.14891,46.994776 103.95327,42.791224 C 106.27981,42.161756 109.36977,41.51337 111.22443,42.576464 C 109.8039,37.835869 111.55891,33.295354 106.96285,28.35468 C 104.61922,28.386891 101.28292,28.445478 98.891074,28.310256 C 100.90899,21.965386 105.2528,15.272311 110.73355,10.577207 z M 104.84299,30.519217 C 102.85502,37.868023 100.20892,46.733336 105.91679,53.130389 C 102.19384,53.443117 97.333938,53.844563 94.994707,53.98943 C 95.23014,45.853169 96.283616,37.635746 98.492234,29.782897 C 100.69024,29.577814 102.77619,29.764481 104.84299,30.519217 z M 106.40767,30.488537 C 109.40404,31.321421 109.69057,36.523209 109.75179,39.692542 C 108.13986,41.139526 105.92118,40.549018 103.89191,41.441303 C 103.82011,37.684484 105.40477,34.064957 106.40767,30.488537 z M 90.760865,85.313726 C 96.368641,87.103129 97.723108,93.07775 100.02623,98.137973 C 97.118786,98.592704 94.198392,99.027429 91.251745,98.782254 C 90.076584,94.315344 89.4728,89.929058 90.760865,85.313726 z M 88.766664,85.344406 C 87.571782,90.97988 88.393828,96.781268 90.454065,102.09569 C 92.791524,108.88059 98.294169,115.34422 105.08843,118.87766 C 75.321435,120.74597 48.345106,122.93548 18.049227,121.48546 C 11.095368,117.55302 7.8261614,107.99087 5.9613007,100.77645 C 5.1757827,97.402822 4.7177994,93.973688 5.2556603,90.529329 C 16.343529,88.31602 27.028792,86.089381 38.512797,86.694327 C 54.368015,86.434185 72.712903,85.6631 88.766664,85.344406 z "
       id="path2164"
       sodipodi:nodetypes="ccccccccccccccccccccccccccccccccccccccccccccccccccccccccccccccccc" />
    <path
       style="fill:#5b4d00;fill-opacity:1;stroke:none;stroke-width:10;stroke-linejoin:round;stroke-miterlimit:4;stroke-dasharray:none;stroke-opacity:1"
       d="M 16.555897,8.613274 C 14.105482,9.349251 14.674706,12.62538 15.404745,14.442708 C 15.617682,15.545344 16.820892,16.749353 17.799141,15.639906 C 18.452845,15.155628 18.8592,13.978593 19.10685,13.623088 C 19.574374,15.359763 21.790138,14.681735 22.495841,13.494159 C 23.115708,13.072029 23.946539,10.851158 23.821968,12.665329 C 23.922055,14.339535 24.985347,17.137333 27.137286,16.284551 C 28.264311,15.760377 28.738131,14.469799 30.001352,14.166431 C 30.843481,13.386489 29.374675,12.647456 28.675225,13.328393 C 27.90402,13.360898 26.530674,14.969891 26.584733,13.613878 C 26.21416,12.135344 25.904978,10.066117 24.365312,9.4052666 C 22.888333,9.5677938 22.118897,11.288794 20.994739,11.956219 C 20.849051,10.817866 19.978313,9.0027045 18.581924,9.9117735 C 17.953199,10.173922 17.546808,11.801958 17.393935,11.422085 C 17.111998,10.551188 17.767782,8.7499624 16.555897,8.613274 z M 48.861827,9.4605219 C 46.908048,9.9416025 46.539057,12.314283 45.445208,13.549414 C 44.522988,12.459393 43.070037,11.469684 41.531291,12.075939 C 40.597089,12.422554 39.158264,13.083466 38.639597,11.790454 C 37.147412,11.087535 35.395796,12.299206 33.970524,12.89556 C 33.001341,13.245306 31.533987,14.706528 32.883837,15.529395 C 34.360695,15.910459 34.57482,13.595212 35.757112,13.862527 C 37.515265,12.926169 39.27272,16.024333 40.941901,14.212477 C 41.62911,13.020151 42.781144,14.812358 43.741503,15.013679 C 45.270008,16.033833 47.3471,15.166679 47.756721,13.438903 C 47.970331,12.955477 48.041203,11.209427 48.843409,12.158822 C 50.026412,13.355369 51.082471,14.787295 52.342911,15.833299 C 53.00151,18.032894 55.727583,18.033822 57.352303,16.960272 C 58.972429,16.150816 60.581296,15.01189 62.178354,14.387453 C 63.404333,15.445864 63.981219,18.295511 66.119898,17.555423 C 67.502125,16.94068 67.650746,15.006751 69.315496,14.76503 C 71.094646,13.951923 73.126317,14.368834 74.583168,15.667534 C 76.193238,16.579597 77.514326,18.796274 79.500889,18.596064 C 81.805469,17.653521 83.871346,16.240774 86.131525,15.299165 C 87.157761,17.133302 87.938129,19.624886 90.036232,20.465535 C 91.630655,20.514732 91.342703,18.542645 90.496693,17.776444 C 89.324163,15.978077 88.19505,12.982061 85.59739,13.181045 C 83.769656,13.526546 83.299803,15.8319 81.381493,16.023773 C 80.453983,16.702732 79.185461,16.822623 78.423411,15.833299 C 76.751398,14.09432 74.682006,11.928053 72.013796,12.527191 C 69.979246,13.027639 67.757696,13.547943 66.046224,14.958424 C 64.644857,15.623748 64.875616,12.909513 63.504481,13.088953 C 60.375255,12.561134 58.165653,15.783758 55.17014,15.685952 C 53.805366,13.1324 51.333518,11.374194 49.263737,9.5238872 L 48.990756,9.4328943 L 48.861827,9.4605219 z M 22.237983,21.948219 C 19.748527,22.08484 18.759307,25.078884 17.559701,26.51599 C 16.126397,25.340744 14.618419,29.169986 16.63878,29.159035 C 19.341256,28.601767 19.722844,24.906517 22.063008,23.836108 C 23.210856,24.046034 23.068793,25.828806 24.356103,25.954228 C 26.284636,26.636137 28.19202,27.587454 29.31987,29.352429 C 31.451558,30.069819 33.098596,28.005461 34.403358,26.700175 C 35.498049,26.649723 36.481891,25.242313 37.819977,25.687161 C 40.769927,26.20903 42.996963,29.230838 46.099062,28.98406 C 47.245725,28.657948 47.274861,27.028668 46.071435,26.746221 C 44.373933,25.965524 42.211795,25.987098 41.080039,24.314988 C 38.537987,22.602465 35.398872,24.55428 33.242996,26.018693 C 32.425477,26.959164 30.519933,28.173947 29.688239,26.608082 C 28.81306,24.445794 25.8998,24.752509 24.402149,23.136208 C 23.77675,22.477473 23.288388,21.745395 22.237983,21.948219 z M 68.459039,22.731002 C 66.527535,22.907925 66.081489,25.318713 64.904282,26.276551 C 63.890904,25.375822 63.428378,23.146705 61.607382,23.688761 C 60.075296,23.950515 58.892297,26.204657 57.269841,25.521395 C 56.09357,23.782822 53.850065,24.817383 52.416584,25.631905 C 51.492887,26.250411 50.885711,25.298776 50.261628,24.830704 C 48.802656,25.088034 48.694207,27.472072 50.316883,27.556632 C 51.887304,27.822777 53.648427,27.371649 54.838608,26.341015 C 56.503649,28.466175 59.489168,27.126165 61.16534,25.723998 C 62.137928,27.72568 65.329567,29.250877 66.9211,27.086962 C 67.651586,26.366654 67.582957,24.875583 68.348528,24.388661 C 69.513488,26.028132 70.502556,29.218564 73.118902,28.505181 C 75.103868,28.128192 76.286638,26.137178 78.137925,25.613487 C 79.457714,25.937295 79.561738,27.866447 81.029619,28.099975 C 82.588688,28.613555 85.35664,27.913687 85.643436,30.190467 C 85.86848,32.052608 88.20364,32.218763 89.327123,31.056134 C 90.103226,30.354197 91.733091,29.378327 91.104502,28.192068 C 89.88015,27.463706 89.220734,29.515752 88.222017,29.545822 C 86.865325,28.472343 86.013691,25.467083 83.737129,26.313387 C 82.687731,27.4084 81.975937,25.534102 81.048038,25.024097 C 79.779404,23.607198 77.238997,22.933915 76.010596,24.775448 C 75.534188,26.079877 73.799859,27.191687 72.55714,26.037111 C 71.073082,25.158142 70.395549,22.633771 68.459039,22.731002 z M 86.149943,33.579459 C 82.710602,36.055124 78.189227,33.995753 74.463448,35.402884 C 73.145152,37.330288 70.535495,34.731485 68.983964,36.38827 C 68.492451,37.833355 70.803639,38.035956 71.866449,37.935418 C 74.417599,37.602545 76.93592,35.81691 79.528517,36.922405 C 81.868406,37.241691 84.192377,35.155113 86.417011,36.240923 C 87.2647,36.936555 87.611111,38.472961 89.014009,37.824908 C 90.606313,37.171417 89.076823,35.41131 88.212808,34.841122 C 87.557656,34.476136 86.993352,33.28171 86.149943,33.579459 z M 53.088857,34.104384 C 49.336746,35.143222 45.395398,37.853634 41.448408,36.084366 C 39.984524,35.736209 38.766769,37.522671 37.396353,37.09738 C 36.842577,36.440684 36.390527,35.13876 35.407162,36.093575 C 33.89452,37.034058 35.159589,38.976466 36.585942,39.049733 C 37.887218,39.444828 39.587287,39.08369 40.232791,37.778862 C 42.815895,38.242268 45.925067,39.442634 48.189554,37.428911 C 51.013133,35.460479 54.517023,36.741837 57.454026,37.613096 C 59.659094,36.758808 62.416818,37.247858 64.33331,35.771252 C 64.800144,34.164122 62.432366,34.856707 61.533708,35.006888 C 59.416508,35.543669 56.841128,36.250481 55.032002,34.601682 C 54.434716,34.31931 53.759529,34.038509 53.088857,34.104384 z M 28.785736,34.730611 C 25.87135,35.615353 22.758061,37.104051 19.724076,35.994177 C 19.164345,36.713439 17.827037,37.084989 17.10845,36.250132 C 17.187478,35.55766 17.147187,34.458228 16.095436,35.006888 C 14.01873,35.660643 14.978996,39.136636 17.071613,38.635319 C 18.495343,38.104134 20.302421,37.214404 21.694639,38.248532 C 23.180149,39.297756 24.607053,37.250087 25.967716,36.950032 C 27.187013,37.714383 28.885402,36.361269 29.531682,35.301582 C 29.46156,34.897316 29.171512,34.717618 28.785736,34.730611 z M 51.256223,43.110998 C 49.076193,43.607531 46.962863,44.78515 45.233396,46.085575 C 44.772545,44.77467 42.831574,44.931817 41.687848,44.888376 C 40.55344,44.732113 39.468719,46.335128 40.859018,46.822312 C 42.128882,47.337673 44.057209,47.287695 44.984747,46.656546 C 45.426262,48.120683 46.831763,46.238975 47.64621,46.039529 C 50.645738,44.569363 54.04167,45.688682 57.16854,46.048738 C 58.365958,46.212459 59.508903,44.402957 58.015788,43.930618 C 55.760004,43.734612 53.455563,43.606336 51.256223,43.110998 z M 37.009566,45.229117 C 34.780125,46.689605 31.90748,45.874197 29.43959,46.509199 C 26.025216,46.285299 22.279877,44.186513 19.023967,46.269759 C 18.437877,47.284677 16.418905,45.723497 16.316457,47.485375 C 16.435735,49.455089 18.91231,48.19309 19.954097,47.678769 C 21.382242,46.76163 23.064599,47.116534 24.485032,47.835326 C 28.12676,48.903932 32.043382,48.216739 35.683439,47.66956 C 36.483135,47.06644 38.181755,46.438356 37.737094,45.275164 C 37.494807,45.266157 37.242575,44.9744 37.009566,45.229117 z M 50.372138,51.113807 C 47.91437,52.881645 44.72147,50.379114 42.175936,51.915008 C 41.441682,53.30792 43.839199,53.572169 44.82819,53.729224 C 48.036054,53.909151 51.407642,52.059077 54.436889,53.7686 C 58.168895,54.576368 62.035044,54.353887 65.797576,54.392288 C 66.683288,54.335135 68.98869,53.633046 67.768348,52.476771 C 63.621838,52.161249 59.302572,52.851228 55.206977,51.767661 C 53.64215,51.432736 51.97334,50.768423 50.372138,51.113807 z M 37.249005,53.047742 C 35.003436,55.751781 30.584073,56.596721 27.947697,54.088383 C 24.525043,52.499655 21.344409,55.488372 18.1583,56.289386 C 16.337436,56.354684 17.491836,58.144129 18.766109,57.551049 C 21.634857,57.309475 24.493133,54.357496 27.376726,56.068365 C 28.923034,57.91909 31.636564,58.298115 33.703457,57.090588 C 35.239793,56.497613 36.735962,54.785993 38.446204,55.635532 C 39.587943,55.631412 40.685512,54.710746 41.19055,53.77527 C 40.767645,52.572249 39.722461,54.161785 38.915874,53.443738 C 38.365902,53.278878 37.84858,52.861389 37.249005,53.047742 z M 80.523112,58.914013 C 78.538831,59.169895 77.766442,61.467758 76.489476,62.46877 C 75.401712,62.174912 74.600821,63.529359 73.441225,63.490993 C 70.679212,64.183117 67.97925,62.636813 65.364742,62.201703 C 63.237401,63.399719 61.185106,60.470072 58.936709,61.520221 C 56.540942,62.717267 53.21148,61.904456 50.860227,63.426529 C 50.461246,61.638597 48.099371,61.149044 46.900264,62.496398 C 46.164607,63.300398 45.841896,63.90252 45.371534,62.58849 C 44.992496,61.521382 43.109274,61.137641 43.087648,62.606908 C 43.194337,64.253532 43.30779,67.057375 45.546509,67.05496 C 47.212197,66.944309 47.271992,64.795283 48.042207,63.933036 C 48.911117,64.547399 48.970814,67.025561 50.307674,65.738042 C 52.370622,64.012228 55.555532,64.785847 57.75793,63.362064 C 58.842442,64.105144 60.988698,62.370669 61.51529,63.868571 C 63.001568,65.337537 65.526486,62.799973 67.013192,64.577681 C 68.755931,66.231191 71.653905,65.568917 73.73592,64.863166 C 74.753863,64.531479 75.513213,63.71473 76.544731,64.080383 C 78.327733,63.974369 79.242796,61.713756 80.19158,60.949249 C 80.965259,64.588157 85.659999,65.552594 88.746942,64.448752 C 89.653918,64.174621 91.151589,62.982295 90.073069,62.109611 C 87.980603,63.177196 85.166451,63.416276 83.405597,61.547849 C 82.467095,60.660393 82.147764,58.748358 80.523112,58.914013 z M 31.548501,61.225526 C 28.368686,62.247648 25.537717,64.121924 22.680025,65.738042 C 21.384019,65.762233 20.965175,62.814827 19.493637,64.126429 C 17.909766,65.960941 20.642667,68.316114 22.541887,67.377282 C 25.421911,66.566959 27.424018,63.833011 30.332884,63.260763 C 32.564249,62.84732 34.210813,64.571634 36.005761,65.480184 C 37.380389,65.839008 39.629044,64.304303 38.750108,62.846348 C 37.725784,62.034064 36.594476,63.750932 35.628183,62.625327 C 34.364146,61.980037 33.04284,61.027447 31.548501,61.225526 z M 52.665233,70.480788 C 50.708863,71.779164 48.824683,73.643838 48.456621,76.070782 C 48.298328,76.737085 46.860728,76.196557 46.375339,75.905017 C 45.165889,75.099891 43.520427,74.52368 42.203564,75.370882 C 40.686768,74.25221 38.989546,75.844633 37.442399,75.380091 C 36.804933,74.843749 36.146499,74.753612 35.453208,75.214325 C 33.955551,75.113001 32.808554,73.255957 31.134086,73.934244 C 28.437648,74.272234 25.861186,75.456513 23.4536,76.558871 C 22.717935,77.659673 24.320981,78.293743 25.148095,77.691604 C 26.776842,77.337101 28.036017,75.977007 29.623774,75.674786 C 31.501815,75.649254 33.340119,77.496863 35.112467,76.669381 C 36.463788,76.203483 37.834584,78.496571 39.228987,77.221934 C 39.805182,76.449678 40.533316,77.896879 41.42078,77.461374 C 42.169368,77.499294 43.173566,76.495255 43.649411,76.6878 C 44.603079,79.096786 47.758328,78.628878 49.377543,77.212725 C 50.553327,76.017508 51.506023,74.442583 52.131099,72.746255 C 53.109397,73.463116 55.386046,72.628156 54.359729,71.28199 C 53.910252,70.842928 53.347941,70.315869 52.665233,70.480788 z M 91.325523,72.727837 C 89.678088,72.727996 88.933176,74.558327 87.558953,74.965677 C 86.388326,74.113101 85.256722,75.038308 84.326518,75.914226 C 83.677573,76.463149 82.20465,77.393454 81.812402,76.126038 C 79.729025,74.013807 76.513425,73.872065 73.865572,73.043161 C 70.876602,74.785654 67.28392,74.1384 64.167544,73.059369 C 62.988427,72.858571 61.785188,73.233885 60.741716,73.372482 C 59.693268,74.789729 57.294539,73.021253 56.542313,74.707818 C 56.484408,76.702236 59.19035,76.374326 60.143117,75.269581 C 60.748158,74.71146 61.299183,74.569552 61.966542,75.03935 C 64.467688,75.299964 67.070195,76.377829 69.536517,75.877389 C 71.074614,76.674362 72.385895,74.687776 73.772757,74.892003 C 74.743452,75.828783 76.484331,75.449677 77.622209,76.365477 C 79.757659,77.582363 82.685389,79.507757 84.998791,77.535048 C 85.729398,77.309001 86.109409,75.45747 86.693287,76.595708 C 88.523721,77.559968 89.911196,75.101046 91.36236,74.357868 C 92.033125,74.030568 93.640104,73.434382 92.3017,72.755465 C 91.976846,72.754428 91.649848,72.704366 91.325523,72.727837 z M 75.338323,79.984699 C 73.210306,80.653636 72.814709,83.478682 70.890272,84.303822 C 69.618797,83.855862 69.109134,82.038023 67.51049,82.130447 C 65.819114,82.103428 64.217658,82.866757 62.546722,82.517234 C 60.760759,83.378679 59.26438,81.133015 57.573745,80.850366 C 55.407718,80.443145 53.227665,81.315235 51.03775,81.349493 C 48.993457,81.4414 47.082776,82.349483 45.178141,82.821138 C 42.29198,82.56408 38.950126,81.498564 36.392548,83.428946 C 34.986232,82.913201 33.19886,83.373642 32.13789,84.395914 C 31.844189,85.598088 33.207562,85.155485 33.804759,85.132651 C 36.700133,86.045616 39.779465,82.649761 42.470631,84.699818 C 45.966961,85.489481 49.007447,82.206616 52.508677,83.069787 C 53.373113,82.562378 54.382862,82.165489 55.381952,82.729046 C 56.659916,83.319088 58.114848,83.255285 59.157731,84.239357 C 61.32298,85.246992 63.791694,84.262185 65.990969,83.999918 C 66.80603,82.998018 67.764301,84.726705 68.385365,85.132651 C 69.405738,86.537507 71.705158,87.041527 72.704488,85.335254 C 73.644844,84.529257 74.25656,83.084121 75.089675,82.388305 C 75.879643,84.893687 79.077907,84.724011 81.163399,84.290165 C 83.808199,83.727963 86.463472,83.611468 89.133729,83.751269 C 91.017859,83.869955 93.434007,84.646681 95,83.235553 C 94.635111,81.894523 92.66281,81.994556 91.463661,81.789706 C 88.454232,81.769161 85.434128,82.01195 82.438629,82.21333 C 80.367674,82.650876 77.480093,83.078356 76.351337,80.776692 C 76.125207,80.394753 75.903582,79.812826 75.338323,79.984699 z "
       id="path5220" />
    <path
       sodipodi:nodetypes="ccccccc"
       id="path6234"
       d="M 110.78557,9.1735368 L 116.91197,26.148746 C 117.8628,32.892799 118.61281,39.600337 115.8909,45.676618 C 112.34811,53.04068 110.79742,52.436331 108.87108,53.334607 L 91.385336,55.632004 L 98.02226,18.873656 L 110.78557,9.1735368 z "
       style="fill:url(#linearGradient3227);fill-rule:evenodd;stroke:none;stroke-width:1px;stroke-linecap:butt;stroke-linejoin:miter;stroke-opacity:1" />
    <path
       style="fill:#000000;fill-rule:evenodd;stroke:none;stroke-width:1px;stroke-linecap:butt;stroke-linejoin:miter;stroke-opacity:1;fill-opacity:0.66666669;filter:url(#filter13445)"
       d="M 106.66667,28.666667 L 109.77778,42 L 113.77778,41.555556 C 112.17639,32.352361 109.46414,31.810889 106.66667,28.666667 z "
       id="path12430"
       sodipodi:nodetypes="cccc" />
    <path
       sodipodi:nodetypes="ccccc"
       id="path6242"
       d="M 109.89214,41.337091 L 102.61705,42.485789 L 106.19078,29.211941 C 110.05643,31.826367 110.46659,36.639741 110.65794,41.592357 L 109.89214,41.337091 z "
       style="fill:url(#linearGradient3245);fill-rule:evenodd;stroke:none;stroke-width:1px;stroke-linecap:butt;stroke-linejoin:miter;stroke-opacity:1" />
    <path
       style="fill:#000000;fill-rule:evenodd;stroke:none;stroke-width:1px;stroke-linecap:butt;stroke-linejoin:miter;stroke-opacity:1;fill-opacity:0.66666669;filter:url(#filter12426)"
       d="M 105.33333,29.333333 C 103.60466,37.919229 97.524157,46.573305 108.44444,53.555556 L 113.11111,50.444445 C 102.19646,48.302735 107.3182,36.727858 105.33333,29.333333 z "
       id="path11423"
       sodipodi:nodetypes="cccc" />
    <path
       sodipodi:nodetypes="cccccccccccccc"
       id="path6236"
       d="M 14.666667,6.2222222 C 32.171803,4.3137335 49.908485,4.0260589 67.777778,4.6666667 L 110.22222,9.3333333 L 100.88889,21.555556 C 96.205282,31.851852 95.3388,42.148148 93.777778,52.444444 C 93.527523,61.86431 96.123429,70.019217 99.111111,78 L 113.33333,109.33333 C 112.43446,112.58974 112.39254,116.09099 109.11111,118.66667 L 95.111111,120.66667 L 24.888889,122 L 19.111111,80.888889 L 10.444444,48.222222 C 10.805964,36.266826 7.9114327,25.062827 12.479049,12.136794 L 14.666667,6.2222222 z "
       style="fill:url(#linearGradient3209);fill-rule:evenodd;stroke:none;stroke-width:1px;stroke-linecap:butt;stroke-linejoin:miter;stroke-opacity:1;fill-opacity:1.0" />
    <path
       sodipodi:nodetypes="ccccccc"
       id="path6244"
       d="M 106.06315,29.084308 L 102.99995,43.251588 C 104.21364,48.363456 105.55178,53.039711 108.10528,53.46224 L 93.427466,54.866205 L 95.980129,35.976498 L 98.02226,29.211941 L 106.06315,29.084308 z "
       style="fill:url(#linearGradient3237);fill-rule:evenodd;stroke:none;stroke-width:1px;stroke-linecap:butt;stroke-linejoin:miter;stroke-opacity:1" />
    <path
       style="fill:#000000;fill-rule:evenodd;stroke:none;stroke-width:1px;stroke-linecap:butt;stroke-linejoin:miter;stroke-opacity:1;fill-opacity:0.66666669;filter:url(#filter11419)"
       d="M 110.44444,9.7777778 C 93.771144,38.619887 100.32231,44.486501 100.88889,54.444444 L 93.111111,53.555556 C 98.462406,21.477236 102.97926,18.29794 110.44444,9.7777778 z "
       id="path10376"
       sodipodi:nodetypes="cccc" />
    <path
       style="fill:#5b4d00;fill-opacity:1;stroke:none;stroke-width:10;stroke-linejoin:round;stroke-miterlimit:4;stroke-dasharray:none;stroke-opacity:1"
       d="M 16.5625 8.625 C 14.112085 9.3609774 14.676211 12.620172 15.40625 14.4375 C 15.619187 15.540136 16.834251 16.734447 17.8125 15.625 C 18.466204 15.140722 18.8461 13.980505 19.09375 13.625 C 19.561274 15.361675 21.794297 14.687576 22.5 13.5 C 23.119868 13.07787 23.937071 10.842079 23.8125 12.65625 C 23.912587 14.330456 24.973061 17.134032 27.125 16.28125 C 28.252026 15.757075 28.736779 14.459618 30 14.15625 C 30.842129 13.376308 29.38695 12.662813 28.6875 13.34375 C 27.916296 13.376255 26.539691 14.981013 26.59375 13.625 C 26.223178 12.146466 25.914666 10.0671 24.375 9.40625 C 22.89802 9.568777 22.124158 11.301325 21 11.96875 C 20.854311 10.830397 19.990139 8.997181 18.59375 9.90625 C 17.965025 10.168398 17.559123 11.817373 17.40625 11.4375 C 17.124314 10.566603 17.774385 8.7616884 16.5625 8.625 z M 49 9.4375 L 48.875 9.46875 C 46.92122 9.9498308 46.531349 12.327369 45.4375 13.5625 C 44.515278 12.472479 43.069996 11.456245 41.53125 12.0625 C 40.597047 12.409115 39.143667 13.074262 38.625 11.78125 C 37.132813 11.078331 35.394022 12.309896 33.96875 12.90625 C 32.999567 13.255996 31.52515 14.708383 32.875 15.53125 C 34.351856 15.912314 34.567708 13.607685 35.75 13.875 C 37.508154 12.938642 39.268319 16.030606 40.9375 14.21875 C 41.624708 13.026424 42.789641 14.798679 43.75 15 C 45.278503 16.020154 47.340379 15.165276 47.75 13.4375 C 47.96361 12.954074 48.041544 11.206855 48.84375 12.15625 C 50.026752 13.352797 51.08331 14.797746 52.34375 15.84375 C 53.002349 18.043345 55.71903 18.0423 57.34375 16.96875 C 58.963876 16.159294 60.590442 14.999437 62.1875 14.375 C 63.413481 15.433411 63.986321 18.302588 66.125 17.5625 C 67.507229 16.947756 67.64775 14.991721 69.3125 14.75 C 71.091648 13.936893 73.136899 14.35755 74.59375 15.65625 C 76.20382 16.568313 77.513437 18.79396 79.5 18.59375 C 81.804576 17.651207 83.864821 16.254109 86.125 15.3125 C 87.151238 17.146637 87.933147 19.628101 90.03125 20.46875 C 91.625673 20.517948 91.34601 18.547451 90.5 17.78125 C 89.327467 15.982884 88.19141 12.988516 85.59375 13.1875 C 83.766017 13.533001 83.29331 15.839377 81.375 16.03125 C 80.44749 16.710209 79.19955 16.833074 78.4375 15.84375 C 76.765489 14.104771 74.66821 11.932112 72 12.53125 C 69.965452 13.031698 67.742722 13.558269 66.03125 14.96875 C 64.62988 15.634074 64.871135 12.91431 63.5 13.09375 C 60.370773 12.565931 58.151763 15.785306 55.15625 15.6875 C 53.791477 13.133948 51.319781 11.381557 49.25 9.53125 L 49 9.4375 z M 22.59375 21.90625 C 22.478648 21.904357 22.381301 21.912147 22.25 21.9375 C 19.760543 22.074121 18.762106 25.094144 17.5625 26.53125 C 16.129195 25.356005 14.604639 29.167201 16.625 29.15625 C 19.327475 28.598982 19.722336 24.914159 22.0625 23.84375 C 23.210349 24.053677 23.05644 25.843328 24.34375 25.96875 C 26.272282 26.65066 28.18465 27.578775 29.3125 29.34375 C 31.444188 30.061141 33.101488 27.992786 34.40625 26.6875 C 35.500941 26.637049 36.474414 25.242652 37.8125 25.6875 C 40.76245 26.20937 42.991651 29.215528 46.09375 28.96875 C 47.240411 28.642638 47.265926 27.032447 46.0625 26.75 C 44.364999 25.969302 42.225506 25.98461 41.09375 24.3125 C 38.551697 22.599978 35.405876 24.566837 33.25 26.03125 C 32.432481 26.97172 30.519194 28.159615 29.6875 26.59375 C 28.812322 24.431462 25.903901 24.741301 24.40625 23.125 C 23.859026 22.548607 23.399465 21.919504 22.59375 21.90625 z M 68.46875 22.71875 C 66.537247 22.895672 66.083457 25.323412 64.90625 26.28125 C 63.892872 25.380522 63.414746 23.145444 61.59375 23.6875 C 60.061662 23.949254 58.903706 26.214512 57.28125 25.53125 C 56.10498 23.792677 53.839731 24.810478 52.40625 25.625 C 51.482553 26.243506 50.874083 25.311822 50.25 24.84375 C 48.791029 25.10108 48.689824 27.47794 50.3125 27.5625 C 51.882921 27.828646 53.653569 27.374384 54.84375 26.34375 C 56.508791 28.46891 59.480078 27.120917 61.15625 25.71875 C 62.128838 27.720433 65.314717 29.257665 66.90625 27.09375 C 67.636739 26.373442 67.578179 24.861922 68.34375 24.375 C 69.508712 26.014472 70.508654 29.213383 73.125 28.5 C 75.109964 28.123012 76.273713 26.148691 78.125 25.625 C 79.44479 25.948808 79.563369 27.860222 81.03125 28.09375 C 82.590321 28.607329 85.369454 27.91072 85.65625 30.1875 C 85.881297 32.04964 88.189017 32.225129 89.3125 31.0625 C 90.0886 30.360564 91.722339 29.373759 91.09375 28.1875 C 89.8694 27.459138 89.217467 29.50118 88.21875 29.53125 C 86.86206 28.457771 86.026562 25.466196 83.75 26.3125 C 82.700602 27.407513 81.990399 25.541255 81.0625 25.03125 C 79.793869 23.614351 77.228401 22.939717 76 24.78125 C 75.523591 26.085679 73.805219 27.185826 72.5625 26.03125 C 71.078445 25.152281 70.40526 22.621519 68.46875 22.71875 z M 86.46875 33.53125 C 86.371323 33.526373 86.261676 33.556531 86.15625 33.59375 C 82.716912 36.069414 78.194529 33.999119 74.46875 35.40625 C 73.150454 37.333653 70.520281 34.718215 68.96875 36.375 C 68.477238 37.820084 70.81219 38.038038 71.875 37.9375 C 74.426152 37.604628 76.938653 35.832005 79.53125 36.9375 C 81.871137 37.256786 84.181616 35.16419 86.40625 36.25 C 87.253943 36.94563 87.597102 38.460553 89 37.8125 C 90.592305 37.159008 89.082765 35.413938 88.21875 34.84375 C 87.645493 34.524388 87.150737 33.565392 86.46875 33.53125 z M 53.09375 34.09375 C 49.34164 35.132587 45.38449 37.863018 41.4375 36.09375 C 39.973618 35.745593 38.776666 37.519041 37.40625 37.09375 C 36.852472 36.437052 36.389615 35.138935 35.40625 36.09375 C 33.893608 37.034233 35.167397 38.989233 36.59375 39.0625 C 37.895027 39.457596 39.573246 39.086078 40.21875 37.78125 C 42.801853 38.244656 45.923013 39.451223 48.1875 37.4375 C 51.011081 35.46907 54.531747 36.753741 57.46875 37.625 C 59.673819 36.770714 62.427258 37.257856 64.34375 35.78125 C 64.810581 34.17412 62.429908 34.849819 61.53125 35 C 59.414051 35.53678 56.840376 36.242549 55.03125 34.59375 C 54.433965 34.311379 53.764422 34.027875 53.09375 34.09375 z M 28.78125 34.71875 C 25.866864 35.603493 22.752735 37.109874 19.71875 36 C 19.15902 36.71926 17.812337 37.084857 17.09375 36.25 C 17.172778 35.557526 17.145501 34.45134 16.09375 35 C 14.017044 35.653754 14.969883 39.126317 17.0625 38.625 C 18.48623 38.093815 20.295282 37.215872 21.6875 38.25 C 23.17301 39.299225 24.608087 37.237555 25.96875 36.9375 C 27.188047 37.701852 28.88497 36.372187 29.53125 35.3125 C 29.461129 34.908234 29.167026 34.705757 28.78125 34.71875 z M 98.90625 39.53125 C 97.791734 39.713392 97.00448 40.63235 96.375 41.5 C 96.101833 41.73229 96.354509 41.915544 96.5625 41.6875 C 97.067266 41.554186 97.560386 41.235276 97.71875 40.71875 C 98.085395 40.243743 98.471235 40.842754 98.5625 41.1875 C 99.003111 41.689022 99.588413 41.235968 99.96875 40.9375 C 100.49012 41.113734 100.18001 41.93897 100.3125 42.375 C 100.44114 42.763161 100.02364 43.602359 100.5625 43.6875 C 101.09722 43.522922 101.64106 43.145348 101.46875 42.5 C 101.42956 41.941702 101.51542 41.368069 101.40625 40.8125 C 101.36581 40.435516 101.26392 39.878473 100.75 40.0625 C 100.27934 40.301281 99.563198 40.621196 99.34375 39.90625 C 99.244263 39.739006 99.114128 39.552154 98.90625 39.53125 z M 51.25 43.125 C 49.069971 43.621535 46.948217 44.793325 45.21875 46.09375 C 44.7579 44.782845 42.831226 44.918441 41.6875 44.875 C 40.553093 44.718739 39.453451 46.325316 40.84375 46.8125 C 42.113616 47.327862 44.072462 47.287399 45 46.65625 C 45.441513 48.120385 46.841803 46.230696 47.65625 46.03125 C 50.655778 44.561085 54.02938 45.702444 57.15625 46.0625 C 58.353667 46.226222 59.524365 44.409839 58.03125 43.9375 C 55.775465 43.741494 53.44934 43.620338 51.25 43.125 z M 37.1875 45.125 C 37.127301 45.133327 37.058252 45.155071 37 45.21875 C 34.770558 46.679237 31.90539 45.864998 29.4375 46.5 C 26.023126 46.276102 22.28716 44.198004 19.03125 46.28125 C 18.445159 47.296167 16.414948 45.738122 16.3125 47.5 C 16.431777 49.469715 18.926963 48.201821 19.96875 47.6875 C 21.396894 46.770362 23.079567 47.124958 24.5 47.84375 C 28.141729 48.912355 32.047443 48.203429 35.6875 47.65625 C 36.487198 47.053131 38.194661 46.444442 37.75 45.28125 C 37.568284 45.274494 37.368098 45.10002 37.1875 45.125 z M 98.25 47.65625 C 97.200244 47.937968 96.102669 48.436217 95.5625 49.4375 C 95.224296 49.687025 95.668631 49.844094 95.84375 49.59375 C 96.363271 49.48032 96.763124 49.149354 96.9375 48.65625 C 97.367783 48.258677 97.703747 48.85011 97.9375 49.15625 C 98.275678 49.557237 98.570164 49.993673 98.84375 50.4375 C 99.31117 50.874779 100.06152 50.613263 100.46875 50.21875 C 100.94004 49.746209 101.12682 49.106534 101.4375 48.53125 C 101.53822 48.385973 101.6524 47.88046 101.34375 48.15625 C 100.82347 48.282974 100.2709 48.670475 100.21875 49.25 C 100.20334 49.612585 99.725438 49.815471 99.65625 49.34375 C 99.248481 48.736198 98.827079 48.118227 98.25 47.65625 z M 50.96875 51.03125 C 50.766822 51.045485 50.57515 51.081827 50.375 51.125 C 47.917231 52.892837 44.733034 50.370356 42.1875 51.90625 C 41.453244 53.299161 43.854759 53.561695 44.84375 53.71875 C 48.051614 53.898676 51.408253 52.071727 54.4375 53.78125 C 58.169505 54.589018 62.049968 54.367849 65.8125 54.40625 C 66.698211 54.349097 69.001592 53.625025 67.78125 52.46875 C 63.634739 52.153227 59.314345 52.864817 55.21875 51.78125 C 53.849526 51.48819 52.382245 50.931602 50.96875 51.03125 z M 37.46875 53 C 37.395788 53.01174 37.324947 53.039206 37.25 53.0625 C 35.004432 55.76654 30.573876 56.602088 27.9375 54.09375 C 24.514846 52.505022 21.342359 55.480236 18.15625 56.28125 C 16.335386 56.346547 17.506977 58.15558 18.78125 57.5625 C 21.649998 57.320927 24.491407 54.351631 27.375 56.0625 C 28.921308 57.913227 31.651857 58.301277 33.71875 57.09375 C 35.255086 56.500775 36.727258 54.775461 38.4375 55.625 C 39.579238 55.62088 40.682462 54.716726 41.1875 53.78125 C 40.764593 52.57823 39.712837 54.155547 38.90625 53.4375 C 38.493771 53.313856 38.111722 53.046529 37.6875 53 C 37.616796 52.992245 37.541712 52.98826 37.46875 53 z M 80.53125 58.90625 C 78.546972 59.162132 77.776966 61.467738 76.5 62.46875 C 75.412233 62.174893 74.597096 63.538366 73.4375 63.5 C 70.675489 64.192124 67.989508 62.62261 65.375 62.1875 C 63.247663 63.385517 61.185897 60.481101 58.9375 61.53125 C 56.541732 62.728295 53.226253 61.915427 50.875 63.4375 C 50.47602 61.649568 48.105357 61.152646 46.90625 62.5 C 46.170592 63.303999 45.845362 63.90778 45.375 62.59375 C 44.995964 61.526642 43.115376 61.124483 43.09375 62.59375 C 43.200441 64.240375 43.292531 67.064915 45.53125 67.0625 C 47.196938 66.951847 47.261035 64.799747 48.03125 63.9375 C 48.900161 64.551862 48.97564 67.037519 50.3125 65.75 C 52.375448 64.024183 55.547602 64.798783 57.75 63.375 C 58.834511 64.11808 60.973408 62.377098 61.5 63.875 C 62.986279 65.343965 65.513294 62.784792 67 64.5625 C 68.74274 66.216009 71.667985 65.580751 73.75 64.875 C 74.767939 64.543312 75.499732 63.728097 76.53125 64.09375 C 78.314252 63.987736 79.238716 61.702007 80.1875 60.9375 C 80.961177 64.576408 85.663057 65.541342 88.75 64.4375 C 89.656977 64.163368 91.14102 62.997684 90.0625 62.125 C 87.970036 63.192584 85.167104 63.430927 83.40625 61.5625 C 82.467751 60.675045 82.155902 58.740595 80.53125 58.90625 z M 32.09375 61.1875 C 31.912139 61.179149 31.749292 61.19399 31.5625 61.21875 C 28.382686 62.240873 25.545192 64.133882 22.6875 65.75 C 21.391494 65.774188 20.971538 62.813398 19.5 64.125 C 17.916129 65.959514 20.63203 68.313832 22.53125 67.375 C 25.411274 66.564678 27.434884 63.822248 30.34375 63.25 C 32.575115 62.836559 34.205052 64.5602 36 65.46875 C 37.374629 65.827572 39.628936 64.301705 38.75 62.84375 C 37.725677 62.031466 36.591293 63.750605 35.625 62.625 C 34.518969 62.06037 33.365029 61.245956 32.09375 61.1875 z M 52.90625 70.4375 C 52.824659 70.438014 52.741588 70.448135 52.65625 70.46875 C 50.699879 71.767125 48.836812 73.635556 48.46875 76.0625 C 48.310459 76.728799 46.860389 76.19779 46.375 75.90625 C 45.165549 75.101127 43.535613 74.527798 42.21875 75.375 C 40.701954 74.25633 38.984647 75.839542 37.4375 75.375 C 36.800035 74.83866 36.162041 74.758037 35.46875 75.21875 C 33.971092 75.117426 32.799468 73.259213 31.125 73.9375 C 28.428561 74.275492 25.876336 75.460142 23.46875 76.5625 C 22.733085 77.663305 24.329136 78.289639 25.15625 77.6875 C 26.784998 77.332996 28.037243 75.989721 29.625 75.6875 C 31.503041 75.661965 33.352652 77.483732 35.125 76.65625 C 36.476319 76.190353 37.824347 78.493387 39.21875 77.21875 C 39.794943 76.446497 40.518786 77.904255 41.40625 77.46875 C 42.154838 77.506672 43.180405 76.494955 43.65625 76.6875 C 44.609919 79.096488 47.755785 78.634903 49.375 77.21875 C 50.550783 76.023535 51.499924 74.446328 52.125 72.75 C 53.103297 73.466862 55.401317 72.627416 54.375 71.28125 C 53.981707 70.897071 53.477386 70.433902 52.90625 70.4375 z M 91.3125 72.71875 C 89.665065 72.718909 88.936723 74.5614 87.5625 74.96875 C 86.391874 74.116176 85.242704 75.030332 84.3125 75.90625 C 83.663558 76.455176 82.204748 77.392416 81.8125 76.125 C 79.729124 74.012769 76.522853 73.860154 73.875 73.03125 C 70.886032 74.773745 67.272626 74.141531 64.15625 73.0625 C 62.977135 72.861699 61.793472 73.236403 60.75 73.375 C 59.701554 74.792247 57.283476 73.032185 56.53125 74.71875 C 56.473345 76.713169 59.203483 76.385995 60.15625 75.28125 C 60.761292 74.723125 61.301391 74.561452 61.96875 75.03125 C 64.469897 75.291862 67.064928 76.37544 69.53125 75.875 C 71.06935 76.671974 72.394388 74.702023 73.78125 74.90625 C 74.751944 75.843027 76.487122 75.4592 77.625 76.375 C 79.760451 77.591884 82.686598 79.503959 85 77.53125 C 85.730603 77.305202 86.103622 75.455512 86.6875 76.59375 C 88.51793 77.558007 89.923836 75.086928 91.375 74.34375 C 92.045767 74.016454 93.650904 73.428917 92.3125 72.75 C 91.987649 72.748965 91.636825 72.695279 91.3125 72.71875 z M 75.53125 79.96875 C 75.470651 79.968541 75.414407 79.978516 75.34375 80 C 73.21573 80.668941 72.799437 83.48736 70.875 84.3125 C 69.603523 83.864537 69.098644 82.032576 67.5 82.125 C 65.808624 82.097981 64.202186 82.880773 62.53125 82.53125 C 60.745287 83.392694 59.253135 81.126399 57.5625 80.84375 C 55.396472 80.43653 53.221165 81.309492 51.03125 81.34375 C 48.986957 81.435655 47.092135 82.340845 45.1875 82.8125 C 42.301337 82.555444 38.963828 81.507118 36.40625 83.4375 C 34.999934 82.921754 33.18597 83.383978 32.125 84.40625 C 31.831299 85.608426 33.215303 85.147834 33.8125 85.125 C 36.707873 86.037964 39.777584 82.637443 42.46875 84.6875 C 45.96508 85.47716 48.99877 82.199329 52.5 83.0625 C 53.364435 82.555092 54.37591 82.155193 55.375 82.71875 C 56.652966 83.308788 58.113367 83.265928 59.15625 84.25 C 61.3215 85.257635 63.800725 84.262267 66 84 C 66.815063 82.998102 67.753936 84.719054 68.375 85.125 C 69.39537 86.529855 71.71942 87.050023 72.71875 85.34375 C 73.659103 84.537756 74.260635 83.070816 75.09375 82.375 C 75.883717 84.880381 79.070758 84.715096 81.15625 84.28125 C 83.80105 83.719044 86.454743 83.610199 89.125 83.75 C 91.009131 83.868689 93.434007 84.661128 95 83.25 C 94.635111 81.908973 92.667899 81.9861 91.46875 81.78125 C 88.459321 81.760708 85.432999 82.01737 82.4375 82.21875 C 80.366545 82.656293 77.472506 83.082914 76.34375 80.78125 C 76.145889 80.447051 75.955442 79.970214 75.53125 79.96875 z M 95.75 103.46875 C 93.773644 103.9756 93.370045 106.26488 92.0625 107.5 C 90.39924 108.34068 88.68067 106.91396 87.78125 105.59375 C 85.81133 106.21415 84.016403 106.7145 82.34375 107.125 C 84.655694 107.41996 87.248493 107.85311 90.15625 108.46875 C 92.331848 108.28527 94.15002 106.57989 94.84375 104.5625 C 96.39662 104.65582 96.679439 107.18635 98.5 106.8125 C 99.943741 106.93123 101.26475 103.62072 101.90625 105.96875 C 102.15784 107.09242 104.10535 107.70503 104.34375 106.46875 C 102.97373 105.74327 101.73907 103.63984 100.0625 105.28125 C 98.83848 107.46674 97.333477 104.49636 96.1875 103.6875 C 96.049927 103.59636 95.897046 103.54188 95.75 103.46875 z M 82.34375 107.125 C 63.650948 104.74013 64.304667 111.5521 82.34375 107.125 z M 104.65625 111.125 C 103.13119 112.05604 101.47507 112.24381 99.71875 112.40625 C 98.12668 112.88931 96.515842 113.53486 94.8125 113.46875 C 76.914999 112.19724 87.606981 115.9729 97.28125 113.59375 C 99.027155 112.74316 101.08206 113.27523 102.78125 112.4375 C 103.44622 112.05758 104.02244 111.55115 104.65625 111.125 z "
       id="path6248" />
    <path
       style="fill:#000000;fill-rule:evenodd;stroke:none;stroke-width:1px;stroke-linecap:butt;stroke-linejoin:miter;stroke-opacity:1;fill-opacity:0.66666669;filter:url(#filter10368)"
       d="M 91.555556,85.111111 C 96.148149,85.152253 102.07407,90.752252 104.66667,98.222222 L 97.333333,98.888889 L 91.555556,85.111111 z "
       id="path8280"
       sodipodi:nodetypes="cccc" />
    <path
       sodipodi:nodetypes="ccccc"
       id="path6240"
       d="M 90.917871,84.521741 C 99.098011,89.424063 98.820922,93.958679 101.64251,98.62802 L 90.338161,99.400967 L 89.082123,88.386475 L 90.917871,84.521741 z "
       style="fill:url(#linearGradient3217);fill-rule:evenodd;stroke:none;stroke-width:1px;stroke-linecap:butt;stroke-linejoin:miter;stroke-opacity:1" />
    <path
       style="fill:#000000;fill-opacity:0.66666667;fill-rule:evenodd;stroke:none;stroke-width:1px;stroke-linecap:butt;stroke-linejoin:miter;stroke-opacity:1;filter:url(#filter9307)"
       d="M 90.888889,86.666667 C 91.308321,97.617385 94.34303,108.54405 111.11111,116.44444 C 106.99659,122.11441 98.539757,120.18532 92.222222,122 C 86.060607,109.34266 81.846866,96.984988 90.888889,86.666667 z "
       id="path8278"
       sodipodi:nodetypes="cccc" />
    <path
       sodipodi:nodetypes="cccccccccc"
       id="path6238"
       d="M 5.1111111,89.555556 L 23.333333,86.444444 L 53.111111,85.555556 L 90.927536,84.859904 C 88.906815,90.489535 90.629272,96.119166 90.927536,101.7488 C 94.490792,110.78588 100.71961,115.38036 107.33333,119.33333 L 59.333333,122.66667 L 17.777778,122.22222 C 12.630117,119.11041 9.6692778,112.87457 6.2222222,107.33333 C 5.3759324,101.35453 3.7881856,95.293337 5.1111111,89.555556 z "
       style="fill:url(#linearGradient3219);fill-rule:evenodd;stroke:none;stroke-width:1px;stroke-linecap:butt;stroke-linejoin:miter;stroke-opacity:1;fill-opacity:1.0" />
    <path
       sodipodi:nodetypes="ccccccccccccccccccccccccccccccccccccccccccccccccccccccccccccccccc"
       id="path6246"
       d="M 44.342001,3.5208032 C 34.172545,3.5568421 24.047214,4.2003451 13.999465,5.7297644 L 12.987024,6.3126847 C 9.2594564,13.840013 9.5485414,22.56888 9.3361024,30.764658 C 9.3694754,41.263995 10.05741,51.799765 12.864304,61.966234 C 15.392542,70.701944 16.984126,77.544002 19.000307,86.326167 C 14.18553,86.827173 9.3834024,87.607464 4.6113799,88.903288 C 2.6830648,92.775146 3.6904067,97.474127 4.5193399,101.54345 C 6.6120469,109.63867 9.3183614,117.48764 16.576586,122.25246 C 16.62819,122.25965 16.678611,122.27658 16.729986,122.28314 L 16.607266,122.37519 C 47.890376,123.70986 81.391205,123.48173 107.42011,120.057 L 109.10751,119.55262 C 112.23754,116.95351 113.76003,113.45393 114.84467,109.64298 C 111.75302,95.258792 100.63124,84.045554 97.142309,69.728278 C 95.75138,65.065389 95.131961,60.371305 95.025387,55.676831 C 99.928314,55.098172 104.76818,54.018335 109.69043,53.98943 C 116.19537,49.644155 119.18075,41.369418 118.67968,32.942939 C 117.38736,24.945681 117.26382,17.934796 111.34715,8.9511661 C 89.259961,6.2875568 66.714802,3.4415176 44.342001,3.5208032 z M 38.850278,5.1468441 C 62.423841,5.1192416 86.273746,7.7294044 108.98479,10.209047 C 101.08061,16.136031 98.555804,24.647835 96.835508,31.408938 C 94.210026,44.286574 90.780282,57.51313 95.393548,70.341879 C 99.808674,84.287258 109.25791,96.149645 112.35959,110.44066 C 112.12376,114.11088 110.17068,116.92349 107.57351,118.72426 C 100.11378,114.1223 94.008808,108.36672 91.527866,99.825371 C 95.028498,99.795011 99.269744,99.648321 102.29655,98.935654 C 100.68711,92.756359 96.657322,87.698891 91.435825,84.239926 L 91.374465,84.301286 C 74.900018,84.989059 55.797279,84.638623 39.341158,85.283046 C 33.377547,85.444584 27.488797,85.591153 21.638789,86.080727 C 19.714517,77.071627 16.277409,70.242849 14.152865,61.260594 C 11.728539,51.046325 10.271874,40.684877 10.563303,30.151057 C 10.689885,22.083297 11.571392,13.473418 15.441425,6.1592846 C 23.186144,5.4638352 30.993624,5.1560435 38.850278,5.1468441 z M 110.73355,10.577207 C 114.27137,17.774998 116.72913,25.708703 117.115,33.740619 C 117.32216,40.685008 116.25985,49.503958 109.29159,52.608829 C 104.90133,50.756586 104.14891,46.994776 103.95327,42.791224 C 106.27981,42.161756 109.36977,41.51337 111.22443,42.576464 C 109.8039,37.835869 111.55891,33.295354 106.96285,28.35468 C 104.61922,28.386891 101.28292,28.445478 98.891074,28.310256 C 100.90899,21.965386 105.2528,15.272311 110.73355,10.577207 z M 104.84299,30.519217 C 102.85502,37.868023 100.20892,46.733336 105.91679,53.130389 C 102.19384,53.443117 97.333938,53.844563 94.994707,53.98943 C 95.23014,45.853169 96.283616,37.635746 98.492234,29.782897 C 100.69024,29.577814 102.77619,29.764481 104.84299,30.519217 z M 106.40767,30.488537 C 109.40404,31.321421 109.69057,36.523209 109.75179,39.692542 C 108.13986,41.139526 105.92118,40.549018 103.89191,41.441303 C 103.82011,37.684484 105.40477,34.064957 106.40767,30.488537 z M 90.760865,85.313726 C 96.368641,87.103129 97.723108,93.07775 100.02623,98.137973 C 97.118786,98.592704 94.198392,99.027429 91.251745,98.782254 C 90.076584,94.315344 89.4728,89.929058 90.760865,85.313726 z M 88.766664,85.344406 C 87.571782,90.97988 88.393828,96.781268 90.454065,102.09569 C 92.791524,108.88059 98.294169,115.34422 105.08843,118.87766 C 75.321435,120.74597 48.345106,122.93548 18.049227,121.48546 C 11.095368,117.55302 7.8261614,107.99087 5.9613007,100.77645 C 5.1757827,97.402822 4.7177994,93.973688 5.2556603,90.529329 C 16.343529,88.31602 27.028792,86.089381 38.512797,86.694327 C 54.368015,86.434185 72.712903,85.6631 88.766664,85.344406 z "
       style="fill:#000000;fill-opacity:1;stroke:none;stroke-width:10;stroke-linejoin:round;stroke-miterlimit:4;stroke-dasharray:none;stroke-opacity:1" />
    <g
       id="g15451"
       transform="translate(-8,9)">
      <path
         style="fill:#000000;fill-opacity:1;stroke:none;stroke-width:10;stroke-linejoin:round;stroke-miterlimit:4;stroke-dasharray:none;stroke-opacity:1;filter:url(#filter15437)"
         d="M 81.99842,18.790637 C 71.931137,18.92799 61.571945,19.061452 52.670665,24.171172 C 35.728706,32.200305 34.432091,55.592013 30.37977,71.934175 C 26.98171,86.309624 25.389904,102.59346 17.90099,114.56686 C 21.360777,113.84548 24.784501,112.98627 27.218108,109.8775 C 29.629203,103.8038 30.465154,98.317096 30.956294,92.845951 C 38.952926,85.624977 48.378413,81.064018 59.787069,80.894582 L 60.83889,79.484129 C 49.385628,80.532375 39.538451,83.278541 31.180847,90.041734 C 31.367463,87.530008 31.533889,85.007643 31.778264,82.407228 C 39.835571,75.060419 53.551664,70.522414 63.439715,69.680274 L 64.904885,68.70062 C 53.837257,69.589783 40.909217,72.212768 32.100015,79.546019 C 32.412644,76.975262 32.840811,74.311261 33.502607,71.519786 C 42.772133,65.055875 56.019892,60.434499 66.789958,58.824126 L 68.222129,57.873868 C 56.155765,59.543327 44.35936,61.600721 34.157959,68.302218 C 34.571118,66.174244 34.955602,63.944436 35.35468,61.672688 C 45.66338,54.400044 60.246451,50.681585 72.494938,50.013394 L 73.147158,49.018093 C 59.7153,50.251379 46.967055,51.687689 35.768791,59.38025 C 36.208482,56.934382 36.707557,54.440883 37.260141,51.985184 C 48.852852,41.942853 61.033819,37.70183 76.59033,39.262884 L 76.589193,38.198548 C 61.11382,37.366812 49.422715,39.838428 37.919664,49.237388 C 38.694315,46.208482 39.620498,43.249817 40.80421,40.482886 C 49.976175,34.405823 66.076766,27.941048 79.79179,28.272935 L 79.269864,27.554148 C 65.678316,28.206355 54.780136,30.44188 42.754328,36.52624 C 44.91825,32.737243 47.751877,29.472964 51.559955,27.143327 C 59.835468,21.41943 71.877766,18.888442 82.010367,19.667785 L 81.99842,18.790637 z "
         id="path14450" />
      <path
         id="path14426"
         d="M 80.442864,18.346193 C 70.375581,18.483546 60.016389,18.617008 51.115109,23.726728 C 34.17315,31.755861 32.876535,55.147569 28.824214,71.489731 C 25.426154,85.86518 23.834348,102.14902 16.345434,114.12242 C 19.805221,113.40104 23.228945,112.54183 25.662552,109.43306 C 28.073647,103.35936 28.909598,97.872652 29.400738,92.401507 C 37.39737,85.180533 46.822857,80.619574 58.231513,80.450138 L 59.283334,79.039685 C 47.830072,80.087931 37.982895,82.834097 29.625291,89.59729 C 29.811907,87.085564 29.978333,84.563199 30.222708,81.962784 C 38.280015,74.615975 51.996108,70.07797 61.884159,69.23583 L 63.349329,68.256176 C 52.281701,69.145339 39.353661,71.768324 30.544459,79.101575 C 30.857088,76.530818 31.285255,73.866817 31.947051,71.075342 C 41.216577,64.611431 54.464336,59.990055 65.234402,58.379682 L 66.666573,57.429424 C 54.600209,59.098883 42.803804,61.156277 32.602403,67.857774 C 33.015562,65.7298 33.400046,63.499992 33.799124,61.228244 C 44.107824,53.9556 58.690895,50.237141 70.939382,49.56895 L 71.591602,48.573649 C 58.159744,49.806935 45.411499,51.243245 34.213235,58.935806 C 34.652926,56.489938 35.152001,53.996439 35.704585,51.54074 C 47.297296,41.498409 59.478263,37.257386 75.034774,38.81844 L 75.033637,37.754104 C 59.558264,36.922368 47.867159,39.393984 36.364108,48.792944 C 37.138759,45.764038 38.064942,42.805373 39.248654,40.038442 C 48.420619,33.961379 64.52121,27.496604 78.236234,27.828491 L 77.714308,27.109704 C 64.12276,27.761911 53.22458,29.997436 41.198772,36.081796 C 43.362694,32.292799 46.196321,29.02852 50.004399,26.698883 C 58.279912,20.974986 70.32221,18.443998 80.454811,19.223341 L 80.442864,18.346193 z "
         style="fill:#000000;fill-opacity:1;stroke:none;stroke-width:10;stroke-linejoin:round;stroke-miterlimit:4;stroke-dasharray:none;stroke-opacity:1" />
      <path
         style="fill:url(#linearGradient15456);fill-opacity:1;stroke:none;stroke-width:10;stroke-linejoin:round;stroke-miterlimit:4;stroke-dasharray:none;stroke-opacity:1"
         d="M 80.442864,18.346193 C 70.375581,18.483546 60.016389,18.617008 51.115109,23.726728 C 34.17315,31.755861 32.876535,55.147569 28.824214,71.489731 C 25.426154,85.86518 23.834348,102.14902 16.345434,114.12242 C 19.805221,113.40104 23.228945,112.54183 25.662552,109.43306 C 28.073647,103.35936 28.909598,97.872652 29.400738,92.401507 C 37.39737,85.180533 46.822857,80.619574 58.231513,80.450138 L 59.283334,79.039685 C 47.830072,80.087931 37.982895,82.834097 29.625291,89.59729 C 29.811907,87.085564 29.978333,84.563199 30.222708,81.962784 C 38.280015,74.615975 51.996108,70.07797 61.884159,69.23583 L 63.349329,68.256176 C 52.281701,69.145339 39.353661,71.768324 30.544459,79.101575 C 30.857088,76.530818 31.285255,73.866817 31.947051,71.075342 C 41.216577,64.611431 54.464336,59.990055 65.234402,58.379682 L 66.666573,57.429424 C 54.600209,59.098883 42.803804,61.156277 32.602403,67.857774 C 33.015562,65.7298 33.400046,63.499992 33.799124,61.228244 C 44.107824,53.9556 58.690895,50.237141 70.939382,49.56895 L 71.591602,48.573649 C 58.159744,49.806935 45.411499,51.243245 34.213235,58.935806 C 34.652926,56.489938 35.152001,53.996439 35.704585,51.54074 C 47.297296,41.498409 59.478263,37.257386 75.034774,38.81844 L 75.033637,37.754104 C 59.558264,36.922368 47.867159,39.393984 36.364108,48.792944 C 37.138759,45.764038 38.064942,42.805373 39.248654,40.038442 C 48.420619,33.961379 64.52121,27.496604 78.236234,27.828491 L 77.714308,27.109704 C 64.12276,27.761911 53.22458,29.997436 41.198772,36.081796 C 43.362694,32.292799 46.196321,29.02852 50.004399,26.698883 C 58.279912,20.974986 70.32221,18.443998 80.454811,19.223341 L 80.442864,18.346193 z "
         id="path15441" />
    </g>
  </g>
</svg>
