/* XPM */
static char * texttextdate_xpm[] = {
"24 24 22 1",
" 	c None",
".	c #9D9DA1",
"+	c #716F64",
"@	c #F1EFE2",
"#	c #FFFFFF",
"$	c #000000",
"%	c #010000",
"&	c #020202",
"*	c #386CBE",
"=	c #030004",
"-	c #020005",
";	c #000004",
">	c #000002",
",	c #777792",
"'	c #C0C1C3",
")	c #CEDDF4",
"!	c #FFA4A4",
"~	c #DCDAD5",
"{	c #6A96DD",
"]	c #B30059",
"^	c #DFDFDB",
"/	c #8CACDD",
"......................  ",
".++++++++++++++++++++@  ",
".+###################@  ",
".+#############$%#&$#@  ",
".+########**#####=###@  ",
".+########**#####-###@  ",
".+###***##****###;###@  ",
".+#####**#**#**##>###@  ",
".+###***,,,,,,,,,,,,,,' ",
".+##**#,))))))))!)!)!),~",
".+##**#,{{{{{{{!]!]!]!,'",
".+###**,,,,,,,,,,,,,,,,'",
".+#####,^^^^^^^^^^^^^^,'",
".+#####,^^,,,,,,,,,,^^,'",
".@@@@@@,^^^^^^^^^^^^^^,'",
"       ,^^^**^^^****^^,'",
"       ,^^***^^^*/^^^^,'",
"       ,^^^/*^^^***^^^,'",
"       ,^^^/*^^^^^/*^^,'",
"       ,^^^/*^^^/^/*^^,'",
"       ,^^^/*^^^*//*^^,'",
"       ,^^*****^^**^^^,'",
"       ,^^^^^^^^^^^^^^,'",
"       ,,,,,,,,,,,,,,,,'"};
