/* XPM */
static char * textdbdateedit_xpm[] = {
"24 24 36 1",
" 	c None",
".	c #9D9DA1",
"+	c #716F64",
"@	c #F1EFE2",
"#	c #FFFFFF",
"$	c #000000",
"%	c #010000",
"&	c #020202",
"*	c #386CBE",
"=	c #030004",
"-	c #020005",
";	c #000004",
">	c #000002",
",	c #A7C2E6",
"'	c #4175C4",
")	c #777792",
"!	c #C0C1C3",
"~	c #D3E1F3",
"{	c #BDD1EC",
"]	c #CEDDF4",
"^	c #FFA4A4",
"/	c #DCDAD5",
"(	c #6F9BD6",
"_	c #91B2DF",
":	c #6A96DD",
"<	c #B30059",
"[	c #6393D2",
"}	c #7AA3D9",
"|	c #DFDFDB",
"1	c #4477C5",
"2	c #8CACDD",
"3	c #F0F2F2",
"4	c #6485AB",
"5	c #20509A",
"6	c #26549C",
"7	c #25549C",
"......................  ",
".++++++++++++++++++++@  ",
".+###################@  ",
".+#############$%#&$#@  ",
".+########**#####=###@  ",
".+########**#####-###@  ",
".+###***##****###;###@  ",
".+#####**#**#**##>###@  ",
".+,'''''))))))))))))))! ",
",''~#~{)]]]]]]]]^]^]^])/",
"'(_{~{,):::::::^<^<^<^)!",
"['',{,_))))))))))))))))!",
"[}_'''')||||||||||||||)!",
"'}_{#~{)||))))))))))||)!",
"[1'{#~{)||||||||||||||)!",
"[}_'''')|||**|||****||)!",
"'}_{#~{)||***|||*2||||)!",
"[1'{#~{)|||2*|||***|||)!",
"[}_'''')|||2*|||||2*||)!",
"1}_{#~3)|||2*|||2|2*||)!",
",1'{#~4)|||2*|||*22*||)!",
"  ,'''5)||*****||**|||)!",
"      6)||||||||||||||)!",
"      7))))))))))))))))!"};
