/* XPM */
static char * TGraphTree_xpm[] = {
"24 24 116 2",
"  	c None",
". 	c #8BC5E8",
"+ 	c #93CAF4",
"@ 	c #7BA9E0",
"# 	c #88BBEB",
"$ 	c #93C9F4",
"% 	c #7DBFD8",
"& 	c #F1C88F",
"* 	c #F4CA92",
"= 	c #E2AD7E",
"- 	c #E4B181",
"; 	c #F4C992",
"> 	c #E5C387",
", 	c #92C8F3",
"' 	c #79A8DF",
") 	c #92C9F4",
"! 	c #90C8F1",
"~ 	c #F5CA93",
"{ 	c #E6B483",
"] 	c #DEA779",
"^ 	c #E3AF7F",
"/ 	c #F3C992",
"( 	c #92C9F3",
"_ 	c #99CCFF",
": 	c #90C1F8",
"< 	c #97CAFE",
"[ 	c #83C2E3",
"} 	c #FDCB95",
"| 	c #FFCC99",
"1 	c #F7C090",
"2 	c #FAC494",
"3 	c #F0C78E",
"4 	c #95C7FC",
"5 	c #91C1F8",
"6 	c #97CBFC",
"7 	c #F4BB8C",
"8 	c #FECB98",
"9 	c #82C2E3",
"0 	c #F0C68E",
"a 	c #98CBFE",
"b 	c #96CBFC",
"c 	c #FFCD99",
"d 	c #99CDFF",
"e 	c #9ACDFF",
"f 	c #90C6F2",
"g 	c #8FBEF6",
"h 	c #7EA7E9",
"i 	c #88B4F0",
"j 	c #91C0F9",
"k 	c #84C3E4",
"l 	c #FECB96",
"m 	c #FBC594",
"n 	c #EFB185",
"o 	c #EDAE83",
"p 	c #FAC393",
"q 	c #F1C78F",
"r 	c #9ACCFF",
"s 	c #98CCFE",
"t 	c #FFC997",
"u 	c #F4B88A",
"v 	c #EAA87F",
"w 	c #F3B88A",
"x 	c #FDC896",
"y 	c #86B2EF",
"z 	c #91C2F9",
"A 	c #8AC4E7",
"B 	c #E5A179",
"C 	c #FDC997",
"D 	c #97C9FD",
"E 	c #96C8FD",
"F 	c #8AC4E6",
"G 	c #FDCA97",
"H 	c #94C6FB",
"I 	c #84B0EE",
"J 	c #82ADEC",
"K 	c #FFCD9A",
"L 	c #F2B789",
"M 	c #E9A97F",
"N 	c #F4BA8C",
"O 	c #93C3FA",
"P 	c #8BB9F4",
"Q 	c #8CBAF4",
"R 	c #96C7FD",
"S 	c #FCC695",
"T 	c #F7BE8F",
"U 	c #F1B487",
"V 	c #F8C191",
"W 	c #FEC996",
"X 	c #8FC6EE",
"Y 	c #8CC3EC",
"Z 	c #7DAFDF",
"` 	c #82B5E3",
" .	c #8FC6EF",
"..	c #81BFD7",
"+.	c #EEC58E",
"@.	c #E7BB87",
"#.	c #DCAA7A",
"$.	c #E9BE88",
"%.	c #EEC68E",
"&.	c #81C0D7",
"*.	c #8FC7EE",
"=.	c #81B5E3",
"-.	c #86BBE8",
";.	c #8EC7EE",
">.	c #84C2DC",
",.	c #90C0F7",
"'.	c #87B4F0",
").	c #8DC6EB",
"!.	c #98CAFE",
"~.	c #8CBCF5",
"{.	c #8CBBF4",
"].	c #89B7F1",
"^.	c #81ACEC",
"/.	c #88B6F1",
"(.	c #96C8FC",
"_.	c #8DC6EC",
"                                                ",
"                                                ",
". + @ # $ % & * = - ; >   , # ' ) !   ~ { ] ^ / ",
"( _ : < _ [ } | 1 2 | 3   _ 4 5 _ 6   | | 7 8 | ",
", _ _ _ _ 9 } 8 | | | 0   _ _ _ a b   | 8 c | 8 ",
"( _ d _ e 9 } | | | | 0   _ _ _ _ b   | | c | | ",
"f g h i j k l m n o p q   _ _ _ r s   t u v w x ",
"                                                ",
"                                                ",
"                                                ",
"      _ e y z r A               | m B C |       ",
"      _ D _ E _ F               | G c C |       ",
"      _ H I J _ F               K L M N |       ",
"      _ O P Q R A               S T U V W       ",
"      X Y Z `  ...              +.@.#.$.%.      ",
"                                                ",
"                                                ",
"                  &.*.=.-.;.>.                  ",
"                  F _ ,.'._ ).                  ",
"                  F !.~.{.D ).                  ",
"                  F a ].^.D ).                  ",
"                  F a /.J (._.                  ",
"                                                ",
"                                                "};
