/* XPM */
static char * tgraphlinks_xpm[] = {
"24 21 147 2",
"  	c None",
". 	c #83C1DA",
"+ 	c #91C8F2",
"@ 	c #90C8F1",
"# 	c #8FC6F0",
"$ 	c #85B8E7",
"% 	c #88BDEA",
"& 	c #89C4E5",
"* 	c #87BFE5",
"= 	c #93C3FB",
"- 	c #8EBDF6",
"; 	c #8FBFF8",
"> 	c #8EBEF7",
", 	c #82ACEC",
"' 	c #88B4F1",
") 	c #89B7F2",
"! 	c #8FBEF7",
"~ 	c #92C2F9",
"{ 	c #8FBEF8",
"] 	c #8DC1EF",
"^ 	c #86BEE3",
"/ 	c #91C1F8",
"( 	c #8CBBF4",
"_ 	c #8EBEF6",
": 	c #90C0F7",
"< 	c #90BFF7",
"[ 	c #93C4FA",
"} 	c #94C5FA",
"| 	c #8DBBF5",
"1 	c #8BC0ED",
"2 	c #8BC5E7",
"3 	c #9ACDFF",
"4 	c #93C3F9",
"5 	c #85B2EE",
"6 	c #85B1EE",
"7 	c #81ABEB",
"8 	c #7EA8E9",
"9 	c #83AFEC",
"0 	c #88B5F1",
"a 	c #96C9FD",
"b 	c #92C9F3",
"c 	c #8AC4E7",
"d 	c #99CCFF",
"e 	c #98CBFE",
"f 	c #96C8FD",
"g 	c #98CAFE",
"h 	c #97CAFE",
"i 	c #94C6FB",
"j 	c #99CDFF",
"k 	c #92C8F3",
"l 	c #96CAFA",
"m 	c #96CBFA",
"n 	c #8EC0F4",
"o 	c #84B3EA",
"p 	c #80AEE5",
"q 	c #82B0E6",
"r 	c #7DA9E3",
"s 	c #84B3EB",
"t 	c #97CCFB",
"u 	c #96CBFB",
"v 	c #8FC7EE",
"w 	c #72B7C0",
"x 	c #72B6BE",
"y 	c #6DB1B4",
"z 	c #74B9C0",
"A 	c #79BFC8",
"B 	c #76BCC6",
"C 	c #75BAC5",
"D 	c #75BBC5",
"E 	c #86B2EF",
"F 	c #7AA2E5",
"G 	c #82AEED",
"H 	c #8FBFF7",
"I 	c #94C4FC",
"J 	c #97C9FD",
"K 	c #81ACEB",
"L 	c #82ADEC",
"M 	c #80ABEA",
"N 	c #8BB9F3",
"O 	c #8EBCF5",
"P 	c #91C2F9",
"Q 	c #8DBDF5",
"R 	c #8FBEF6",
"S 	c #8BBAF4",
"T 	c #90BFFA",
"U 	c #8BBAF3",
"V 	c #93C3FA",
"W 	c #96C7FC",
"X 	c #8DBCF5",
"Y 	c #8AB8F3",
"Z 	c #87B4F0",
"` 	c #87B5F0",
" .	c #89B6F2",
"..	c #90C1F8",
"+.	c #8AB8F7",
"@.	c #86B7C6",
"#.	c #8AB9F0",
"$.	c #8BB8F3",
"%.	c #8FBFF6",
"&.	c #8BB9F4",
"*.	c #90C0F8",
"=.	c #91C2F8",
"-.	c #95CAF9",
";.	c #92C3F9",
">.	c #8FBFFA",
",.	c #89BEC4",
"'.	c #90C1F7",
").	c #99CBFE",
"!.	c #99CBFF",
"~.	c #8EBFF7",
"{.	c #8DBEF5",
"].	c #8BB8F6",
"^.	c #81C1D9",
"/.	c #84C2DD",
"(.	c #FBC695",
"_.	c #FCC795",
":.	c #F6BE8F",
"<.	c #EFB285",
"[.	c #F0B889",
"}.	c #F8C190",
"|.	c #F7BF8F",
"1.	c #FFCC99",
"2.	c #FFCD99",
"3.	c #F5BD8D",
"4.	c #F2B78A",
"5.	c #F5BC8D",
"6.	c #FBC594",
"7.	c #FAC493",
"8.	c #FECB98",
"9.	c #FFCD9A",
"0.	c #F4BA8C",
"a.	c #EBAB81",
"b.	c #EEB084",
"c.	c #FDCA97",
"d.	c #F9C392",
"e.	c #F8BF90",
"f.	c #F8C191",
"g.	c #F8C090",
"h.	c #F6BE8E",
"i.	c #F9C292",
"j.	c #F4BB8C",
"k.	c #FBC694",
"l.	c #F9C291",
"m.	c #F7C090",
"n.	c #F7BE8F",
"o.	c #FAC393",
"p.	c #FDC996",
"            . + @ @ # $ % % @ @ + &             ",
"            * = - ; > , ' ) ! ~ { ]             ",
"            ^ / ( _ : < [ } - / | 1             ",
"            2 3 4 5 6 7 8 ) 9 0 a b             ",
"            c d d e f g h i } j d k             ",
"              l m n o p q r s t u v             ",
"                                                ",
"                            w w x y z A B C D D ",
"d d e 3 E F G H d e d I   l d d J K L M ~ d d d ",
"e / N O P H ( Q R N d I   l i S Q ( T > U N V e ",
"e W X Y X Z `  .S - j I   l a ..( +.@.#.0 $.W e ",
"d d e ..%.&.< *.=.d d I   -.d d ;.>.,.'.*.[ d d ",
"d d d d ).e d d d d d I   l d d d !.).!.d d d d ",
"H H H H H ~.{.; H H ; ].  ^././././././././././.",
"                                                ",
"(.(.(._.:.<.[.}._.(._.|.                        ",
"1.1.1.2.3.4.5.6.1.1.1.7.                        ",
"1.8.8.9.0.a.b.6.1.8.1.7.                        ",
"1.c.d.e.f.g.h.i.j.7.1.7.                        ",
"1.8.k.l.f.m.n.o.g.p.1.7.                        ",
"8.1.1.1.1.1.1.1.1.1.1.7.                        "};
