/* XPM */
static char * TGraphTreeData_xpm[] = {
"24 24 101 2",
"  	c None",
". 	c #8BC5E8",
"+ 	c #93CAF4",
"@ 	c #7BA9E0",
"# 	c #88BBEB",
"$ 	c #93C9F4",
"% 	c #7DBFD8",
"& 	c #F1C88F",
"* 	c #F4CA92",
"= 	c #E2AD7E",
"- 	c #E4B181",
"; 	c #F4C992",
"> 	c #E5C387",
", 	c #92C8F3",
"' 	c #79A8DF",
") 	c #92C9F4",
"! 	c #90C8F1",
"~ 	c #F5CA93",
"{ 	c #E6B483",
"] 	c #DEA779",
"^ 	c #E3AF7F",
"/ 	c #F3C992",
"( 	c #92C9F3",
"_ 	c #99CCFF",
": 	c #90C1F8",
"< 	c #97CAFE",
"[ 	c #83C2E3",
"} 	c #FDCB95",
"| 	c #FFCC99",
"1 	c #F7C090",
"2 	c #FAC494",
"3 	c #F0C78E",
"4 	c #95C7FC",
"5 	c #91C1F8",
"6 	c #97CBFC",
"7 	c #F4BB8C",
"8 	c #FECB98",
"9 	c #82C2E3",
"0 	c #F0C68E",
"a 	c #98CBFE",
"b 	c #96CBFC",
"c 	c #FFCD99",
"d 	c #99CDFF",
"e 	c #9ACDFF",
"f 	c #90C6F2",
"g 	c #8FBEF6",
"h 	c #7EA7E9",
"i 	c #88B4F0",
"j 	c #91C0F9",
"k 	c #84C3E4",
"l 	c #FECB96",
"m 	c #FBC594",
"n 	c #EFB185",
"o 	c #EDAE83",
"p 	c #FAC393",
"q 	c #F1C78F",
"r 	c #9ACCFF",
"s 	c #98CCFE",
"t 	c #FFC997",
"u 	c #F4B88A",
"v 	c #EAA87F",
"w 	c #F3B88A",
"x 	c #FDC896",
"y 	c #A7C2E6",
"z 	c #4276C4",
"A 	c #E5A179",
"B 	c #FDC997",
"C 	c #D3E1F3",
"D 	c #FFFFFF",
"E 	c #BDD1EC",
"F 	c #91B2DF",
"G 	c #FDCA97",
"H 	c #709BD6",
"I 	c #7BA3D9",
"J 	c #6493D2",
"K 	c #FFCD9A",
"L 	c #F2B789",
"M 	c #E9A97F",
"N 	c #F4BA8C",
"O 	c #FCC695",
"P 	c #F7BE8F",
"Q 	c #F1B487",
"R 	c #F8C191",
"S 	c #FEC996",
"T 	c #EEC58E",
"U 	c #E7BB87",
"V 	c #DCAA7A",
"W 	c #E9BE88",
"X 	c #EEC68E",
"Y 	c #4578C5",
"Z 	c #86BBE8",
"` 	c #8EC7EE",
" .	c #84C2DC",
"..	c #87B4F0",
"+.	c #8DC6EB",
"@.	c #8CBBF4",
"#.	c #97C9FD",
"$.	c #81ACEC",
"%.	c #82ADEC",
"&.	c #96C8FC",
"*.	c #8DC6EC",
"                                                ",
"                                                ",
". + @ # $ % & * = - ; >   , # ' ) !   ~ { ] ^ / ",
"( _ : < _ [ } | 1 2 | 3   _ 4 5 _ 6   | | 7 8 | ",
", _ _ _ _ 9 } 8 | | | 0   _ _ _ a b   | 8 c | 8 ",
"( _ d _ e 9 } | | | | 0   _ _ _ _ b   | | c | | ",
"f g h i j k l m n o p q   _ _ _ r s   t u v w x ",
"                                                ",
"                                                ",
"                                                ",
"    y z z z z z z y             | m A B |       ",
"y z z C D C E y F z z y         | G c B |       ",
"z H F E C E y F I H J z         K L M N |       ",
"J z z y E y F I H z z J         O P Q R S       ",
"J I F z z z z z z I H J         T U V W X       ",
"z I F E D C E y F I H z                         ",
"J Y z E D C E y F z z J                         ",
"J I F z z z z z z I H J Z `  .                  ",
"z I F E D C E y F I H z .._ +.                  ",
"J Y z E D C E y F z z J @.#.+.                  ",
"J I F z z z z z z I H J $.#.+.                  ",
"Y I F E D C E y F I H z %.&.*.                  ",
"y Y z E D C E y F z z y                         ",
"    y z z z z z z y                             "};
