/* XPM */
static char * tgraphlinksdata_xpm[] = {
"24 21 129 2",
"  	c None",
". 	c #83C1DA",
"+ 	c #91C8F2",
"@ 	c #90C8F1",
"# 	c #8FC6F0",
"$ 	c #85B8E7",
"% 	c #88BDEA",
"& 	c #89C4E5",
"* 	c #87BFE5",
"= 	c #93C3FB",
"- 	c #8EBDF6",
"; 	c #8FBFF8",
"> 	c #8EBEF7",
", 	c #82ACEC",
"' 	c #88B4F1",
") 	c #89B7F2",
"! 	c #8FBEF7",
"~ 	c #92C2F9",
"{ 	c #8FBEF8",
"] 	c #8DC1EF",
"^ 	c #86BEE3",
"/ 	c #91C1F8",
"( 	c #8CBBF4",
"_ 	c #8EBEF6",
": 	c #90C0F7",
"< 	c #90BFF7",
"[ 	c #93C4FA",
"} 	c #94C5FA",
"| 	c #8DBBF5",
"1 	c #8BC0ED",
"2 	c #8BC5E7",
"3 	c #9ACDFF",
"4 	c #93C3F9",
"5 	c #85B2EE",
"6 	c #85B1EE",
"7 	c #81ABEB",
"8 	c #7EA8E9",
"9 	c #83AFEC",
"0 	c #88B5F1",
"a 	c #96C9FD",
"b 	c #92C9F3",
"c 	c #8AC4E7",
"d 	c #99CCFF",
"e 	c #98CBFE",
"f 	c #96C8FD",
"g 	c #98CAFE",
"h 	c #97CAFE",
"i 	c #94C6FB",
"j 	c #99CDFF",
"k 	c #92C8F3",
"l 	c #96CAFA",
"m 	c #96CBFA",
"n 	c #8EC0F4",
"o 	c #84B3EA",
"p 	c #80AEE5",
"q 	c #82B0E6",
"r 	c #7DA9E3",
"s 	c #84B3EB",
"t 	c #97CCFB",
"u 	c #96CBFB",
"v 	c #8FC7EE",
"w 	c #A7C2E6",
"x 	c #4276C4",
"y 	c #6DB1B4",
"z 	c #74B9C0",
"A 	c #79BFC8",
"B 	c #76BCC6",
"C 	c #75BAC5",
"D 	c #75BBC5",
"E 	c #86B2EF",
"F 	c #7AA2E5",
"G 	c #82AEED",
"H 	c #D3E1F3",
"I 	c #FFFFFF",
"J 	c #BDD1EC",
"K 	c #91B2DF",
"L 	c #80ABEA",
"M 	c #8BB9F3",
"N 	c #8EBCF5",
"O 	c #91C2F9",
"P 	c #8FBFF7",
"Q 	c #709BD6",
"R 	c #7BA3D9",
"S 	c #6493D2",
"T 	c #8BBAF3",
"U 	c #93C3FA",
"V 	c #96C7FC",
"W 	c #8DBCF5",
"X 	c #8AB8F3",
"Y 	c #87B4F0",
"Z 	c #87B5F0",
"` 	c #8AB9F0",
" .	c #8BB8F3",
"..	c #90C1F8",
"+.	c #8FBFF6",
"@.	c #8BB9F4",
"#.	c #90C1F7",
"$.	c #90C0F8",
"%.	c #99CBFE",
"&.	c #99CBFF",
"*.	c #8EBFF7",
"=.	c #8DBEF5",
"-.	c #4578C5",
";.	c #84C2DD",
">.	c #FBC695",
",.	c #FCC795",
"'.	c #F6BE8F",
").	c #EFB285",
"!.	c #F0B889",
"~.	c #FFCC99",
"{.	c #FFCD99",
"].	c #F5BD8D",
"^.	c #F2B78A",
"/.	c #F5BC8D",
"(.	c #FECB98",
"_.	c #FFCD9A",
":.	c #F4BA8C",
"<.	c #EBAB81",
"[.	c #EEB084",
"}.	c #FDCA97",
"|.	c #F9C392",
"1.	c #F8BF90",
"2.	c #F8C191",
"3.	c #F8C090",
"4.	c #F6BE8E",
"5.	c #FBC694",
"6.	c #F9C291",
"7.	c #F7C090",
"8.	c #F7BE8F",
"            . + @ @ # $ % % @ @ + &             ",
"            * = - ; > , ' ) ! ~ { ]             ",
"            ^ / ( _ : < [ } - / | 1             ",
"            2 3 4 5 6 7 8 ) 9 0 a b             ",
"            c d d e f g h i } j d k             ",
"              l m n o p q r s t u v             ",
"                                                ",
"                  w x x x x x x w y z A B C D D ",
"d d e 3 E F G w x x H I H J w K x x w L ~ d d d ",
"e / M N O P ( x Q K J H J w K R Q S x > T M U e ",
"e V W X W Y Z S x x w J w K R Q x x S ` 0  .V e ",
"d d e ..+.@.< S R K x x x x x x R Q S #.$.[ d d ",
"d d d d %.e d x R K J I H J w K R Q x &.d d d d ",
"P P P P P *.=.S -.x J I H J w K x x S ;.;.;.;.;.",
"              S R K x x x x x x R Q S           ",
">.>.>.,.'.).!.x R K J I H J w K R Q x           ",
"~.~.~.{.].^./.S -.x J I H J w K x x S           ",
"~.(.(._.:.<.[.S R K x x x x x x R Q S           ",
"~.}.|.1.2.3.4.-.R K J I H J w K R Q x           ",
"~.(.5.6.2.7.8.w -.x J I H J w K x x w           ",
"(.~.~.~.~.~.~.~.~.w x x x x x x w               "};
