/* XPM */
static char * TGraphArc_xpm[] = {
"24 24 84 1",
" 	c None",
".	c #F0F0F0",
"+	c #F4F4F4",
"@	c #F5F5F5",
"#	c #F2F2F2",
"$	c #DEDEDE",
"%	c #DCDBD9",
"&	c #EFF1F3",
"*	c #FEFEFE",
"=	c #FFFFFF",
"-	c #D8D8D7",
";	c #E4E4E4",
">	c #FDFDFD",
",	c #ECEBE9",
"'	c #C5C7C8",
")	c #FCFCFC",
"!	c #ECECEB",
"~	c #D8DADA",
"{	c #DCDCDC",
"]	c #DDDBDB",
"^	c #DCDCDD",
"/	c #ECECEC",
"(	c #FAFAFA",
"_	c #FCFBFA",
":	c #E8E9E9",
"<	c #FBFBFB",
"[	c #EEEEEE",
"}	c #EFEFEF",
"|	c #F6F6F6",
"1	c #DDDDDD",
"2	c #F7F7F7",
"3	c #E6E6E6",
"4	c #F6F6F7",
"5	c #F0F1F0",
"6	c #F8F8F8",
"7	c #F3F3F2",
"8	c #F3F4F4",
"9	c #C2C1C1",
"0	c #F2F3F5",
"a	c #D6D5D4",
"b	c #F2F2F3",
"c	c #F0EEEC",
"d	c #D2D2D2",
"e	c #F0F0EF",
"f	c #A8A9A9",
"g	c #EBEBEB",
"h	c #F9F9F8",
"i	c #DCDDDC",
"j	c #C4C3C2",
"k	c #FDFEFE",
"l	c #E7E6E5",
"m	c #D8D8D9",
"n	c #E7E7E7",
"o	c #EDEDED",
"p	c #D7D7D6",
"q	c #CCCDCD",
"r	c #E0DFDC",
"s	c #E4E1DF",
"t	c #DADBDD",
"u	c #DFDDDC",
"v	c #BEBFBF",
"w	c #FFFEFE",
"x	c #D2D3D5",
"y	c #F4F4F3",
"z	c #C9C9C9",
"A	c #E3E3E3",
"B	c #D9D9D9",
"C	c #F9F9F9",
"D	c #DEDEDD",
"E	c #C9CAC9",
"F	c #D0CFCF",
"G	c #E0E1E1",
"H	c #F1F1F1",
"I	c #FEFFFF",
"J	c #F6F5F5",
"K	c #F9FAFC",
"L	c #F3F3F3",
"M	c #D6D6D6",
"N	c #DADAD9",
"O	c #EFF0F1",
"P	c #D4D4D5",
"Q	c #E8E7E6",
"R	c #B7B7B8",
"S	c #EAEAEA",
"                        ",
"                        ",
"                        ",
"                        ",
"                        ",
"         .++@+#         ",
"      $%&*=**===-;      ",
"     >,'*)=**===!~={    ",
"    ***=]^=****=====/   ",
"   (==_:<[@))*}|===*=1  ",
"  <<@==#<==***=)+)*=2=  ",
" 3==>@#4===**====5@2=*6 ",
" )=7*890ab====cdefg=h*< ",
" i=jk*3lm=@no}<pqg=/r<st",
"uvwxo=yz=[=AB*(CDE=)=+FG",
"HIJKL=*=+=<MAn=#=N=*IO=P",
"@=Q=**==+**<)<==+=**LR==",
"|=<***==@}S  3[(|===}=*=",
"|=*L.              }[6==",
"                        ",
"                        ",
"                        ",
"                        ",
"                        "};
