/* XPM */
static char * TGraphViewer_xpm[] = {
"24 24 170 2",
"  	c None",
". 	c #8BC5E8",
"+ 	c #93CAF4",
"@ 	c #7BA9E0",
"# 	c #88BBEB",
"$ 	c #93C9F4",
"% 	c #7DBFD8",
"& 	c #F1C88F",
"* 	c #F4CA92",
"= 	c #E2AD7E",
"- 	c #E4B181",
"; 	c #F4C992",
"> 	c #E5C387",
", 	c #92C8F3",
"' 	c #79A8DF",
") 	c #92C9F4",
"! 	c #90C8F1",
"~ 	c #F5CA93",
"{ 	c #E6B483",
"] 	c #DEA779",
"^ 	c #E3AF7F",
"/ 	c #F3C992",
"( 	c #92C9F3",
"_ 	c #99CCFF",
": 	c #90C1F8",
"< 	c #97CAFE",
"[ 	c #83C2E3",
"} 	c #FDCB95",
"| 	c #FFCC99",
"1 	c #F7C090",
"2 	c #FAC494",
"3 	c #F0C78E",
"4 	c #95C7FC",
"5 	c #91C1F8",
"6 	c #97CBFC",
"7 	c #F4BB8C",
"8 	c #FECB98",
"9 	c #82C2E3",
"0 	c #F0C68E",
"a 	c #98CBFE",
"b 	c #96CBFC",
"c 	c #FFCD99",
"d 	c #99CDFF",
"e 	c #9ACDFF",
"f 	c #F5F5F5",
"g 	c #90C6F2",
"h 	c #8FBEF6",
"i 	c #7EA7E9",
"j 	c #88B4F0",
"k 	c #91C0F9",
"l 	c #84C3E4",
"m 	c #FECB96",
"n 	c #FBC594",
"o 	c #EFB185",
"p 	c #EDAE83",
"q 	c #FAC393",
"r 	c #F1C78F",
"s 	c #FEFEFE",
"t 	c #9ACCFF",
"u 	c #98CCFE",
"v 	c #FFC997",
"w 	c #F4B88A",
"x 	c #EAA87F",
"y 	c #F3B88A",
"z 	c #FDC896",
"A 	c #FDFDFD",
"B 	c #ECEBE9",
"C 	c #C5C7C8",
"D 	c #FCFCFC",
"E 	c #FFFFFF",
"F 	c #ECECEB",
"G 	c #D8DADA",
"H 	c #DCDCDC",
"I 	c #DDDBDB",
"J 	c #DCDCDD",
"K 	c #ECECEC",
"L 	c #FAFAFA",
"M 	c #FCFBFA",
"N 	c #E8E9E9",
"O 	c #FBFBFB",
"P 	c #EEEEEE",
"Q 	c #EFEFEF",
"R 	c #F6F6F6",
"S 	c #DDDDDD",
"T 	c #86B2EF",
"U 	c #91C2F9",
"V 	c #8AC4E7",
"W 	c #E5A179",
"X 	c #FDC997",
"Y 	c #E6E6E6",
"Z 	c #97C9FD",
"` 	c #96C8FD",
" .	c #8AC4E6",
"..	c #FDCA97",
"+.	c #F8F8F8",
"@.	c #94C6FB",
"#.	c #84B0EE",
"$.	c #82ADEC",
"%.	c #F2F2F3",
"&.	c #F0EEEC",
"*.	c #D2D2D2",
"=.	c #FFCD9A",
"-.	c #F2B789",
";.	c #E9A97F",
">.	c #F4BA8C",
",.	c #DCDDDC",
"'.	c #93C3FA",
").	c #8BB9F4",
"!.	c #8CBAF4",
"~.	c #96C7FD",
"{.	c #E7E7E7",
"].	c #EDEDED",
"^.	c #D7D7D6",
"/.	c #FCC695",
"(.	c #F7BE8F",
"_.	c #F1B487",
":.	c #F8C191",
"<.	c #FEC996",
"[.	c #E4E1DF",
"}.	c #DADBDD",
"|.	c #DFDDDC",
"1.	c #BEBFBF",
"2.	c #FFFEFE",
"3.	c #8FC6EE",
"4.	c #8CC3EC",
"5.	c #7DAFDF",
"6.	c #82B5E3",
"7.	c #8FC6EF",
"8.	c #81BFD7",
"9.	c #E3E3E3",
"0.	c #D9D9D9",
"a.	c #F9F9F9",
"b.	c #EEC58E",
"c.	c #E7BB87",
"d.	c #DCAA7A",
"e.	c #E9BE88",
"f.	c #EEC68E",
"g.	c #F4F4F4",
"h.	c #D0CFCF",
"i.	c #E0E1E1",
"j.	c #F1F1F1",
"k.	c #FEFFFF",
"l.	c #F6F5F5",
"m.	c #F9FAFC",
"n.	c #F3F3F3",
"o.	c #D6D6D6",
"p.	c #F2F2F2",
"q.	c #DADAD9",
"r.	c #EFF0F1",
"s.	c #D4D4D5",
"t.	c #E8E7E6",
"u.	c #B7B7B8",
"v.	c #81C0D7",
"w.	c #8FC7EE",
"x.	c #81B5E3",
"y.	c #86BBE8",
"z.	c #8EC7EE",
"A.	c #84C2DC",
"B.	c #F0F0F0",
"C.	c #90C0F7",
"D.	c #87B4F0",
"E.	c #8DC6EB",
"F.	c #98CAFE",
"G.	c #8CBCF5",
"H.	c #8CBBF4",
"I.	c #89B7F1",
"J.	c #81ACEC",
"K.	c #88B6F1",
"L.	c #96C8FC",
"M.	c #8DC6EC",
"                                                ",
"                                                ",
". + @ # $ % & * = - ; >   , # ' ) !   ~ { ] ^ / ",
"( _ : < _ [ } | 1 2 | 3   _ 4 5 _ 6   | | 7 8 | ",
", _ _ _ _ 9 } 8 | | | 0   _ _ _ a b   | 8 c | 8 ",
"( _ d _ e 9 } | | | | 0 f _ _ _ _ b   | | c | | ",
"g h i j k l m n o p q r s _ _ _ t u   v w x y z ",
"          A B C s D E s s E E E F G E H         ",
"        s s s E I J E s s s s E E E E E K       ",
"      L E E M N O P f D D s Q R E E E s E S     ",
"    O _ e T U t V E E s s s E D | n W X | E     ",
"  Y E _ Z _ ` _  .E E s s E E E | ..c X | s +.  ",
"  D E _ @.#.$._  .%.E E E E &.*.=.-.;.>.| s O   ",
"  ,.E _ '.).!.~.V E f {.].Q O ^./.(._.:.<.O [.}.",
"|.1.2.3.4.5.6.7.8.P E 9.0.s L a.b.c.d.e.f.g.h.i.",
"j.k.l.m.n.E s E g.E O o.9.{.E p.E q.E s k.r.E s.",
"f E t.E s s E E g.s s O D O E E g.E s s n.u.E E ",
"R E O s s s E E f v.w.x.y.z.A.L R E E E Q E s E ",
"R E s n.B.         ._ C.D._ E.        Q P +.E E ",
"                   .F.G.H.Z E.                  ",
"                   .a I.J.Z E.                  ",
"                   .a K.$.L.M.                  ",
"                                                ",
"                                                "};
