/* XPM */
static char * TGraphArcData_xpm[] = {
"24 24 67 1",
" 	c None",
".	c #A7C2E6",
"+	c #4276C4",
"@	c #D3E1F3",
"#	c #FFFFFF",
"$	c #BDD1EC",
"%	c #91B2DF",
"&	c #709BD6",
"*	c #7BA3D9",
"=	c #6493D2",
"-	c #F4F4F4",
";	c #F2F2F2",
">	c #D8D8D7",
",	c #E4E4E4",
"'	c #4578C5",
")	c #ECECEB",
"!	c #D8DADA",
"~	c #DCDCDC",
"{	c #FEFEFE",
"]	c #ECECEC",
"^	c #EFEFEF",
"/	c #F6F6F6",
"(	c #DDDDDD",
"_	c #FCFCFC",
":	c #F7F7F7",
"<	c #F0F1F0",
"[	c #F5F5F5",
"}	c #F8F8F8",
"|	c #F0EEEC",
"1	c #D2D2D2",
"2	c #F0F0EF",
"3	c #A8A9A9",
"4	c #EBEBEB",
"5	c #F9F9F8",
"6	c #FBFBFB",
"7	c #D7D7D6",
"8	c #CCCDCD",
"9	c #E0DFDC",
"0	c #E4E1DF",
"a	c #DADBDD",
"b	c #DFDDDC",
"c	c #BEBFBF",
"d	c #FFFEFE",
"e	c #E3E3E3",
"f	c #D9D9D9",
"g	c #FAFAFA",
"h	c #F9F9F9",
"i	c #DEDEDD",
"j	c #C9CAC9",
"k	c #D0CFCF",
"l	c #E0E1E1",
"m	c #F1F1F1",
"n	c #FEFFFF",
"o	c #F6F5F5",
"p	c #F9FAFC",
"q	c #F3F3F3",
"r	c #D6D6D6",
"s	c #E7E7E7",
"t	c #DADAD9",
"u	c #EFF0F1",
"v	c #D4D4D5",
"w	c #E8E7E6",
"x	c #B7B7B8",
"y	c #EAEAEA",
"z	c #E6E6E6",
"A	c #EEEEEE",
"B	c #F0F0F0",
"                        ",
"   .++++++.             ",
" .++@#@$.%++.           ",
" +&%$@$.%*&=+           ",
" =++.$.%*&++=           ",
" =*%++++++*&=-;         ",
" +*%$#@$.%*&+###>,      ",
" ='+$#@$.%++=###)!#~    ",
" =*%++++++*&={{#####]   ",
" +*%$#@$.%*&+{^/###{#(  ",
" ='+$#@$.%++={#_-_{#:#  ",
" =*%++++++*&=####<[:#{} ",
" '*%$#@$.%*&+#|1234#5{6 ",
" .'+$#@$.%++.^6784#]960a",
"bcd.++++++.ef{ghij#_#-kl",
"mnopq#{#-#6res#;#t#{nu#v",
"[#w#{{##-{{6_6##-#{{qx##",
"/#6{{{##[^y  zAg/###^#{#",
"/#{qB              ^A}##",
"                        ",
"                        ",
"                        ",
"                        ",
"                        "};
