<?xml version="1.0" encoding="UTF-8" standalone="no"?>
<!-- Generator: Adobe Illustrator 13.0.0, SVG Export Plug-In  -->

<svg
   xmlns:dc="http://purl.org/dc/elements/1.1/"
   xmlns:cc="http://creativecommons.org/ns#"
   xmlns:rdf="http://www.w3.org/1999/02/22-rdf-syntax-ns#"
   xmlns:svg="http://www.w3.org/2000/svg"
   xmlns="http://www.w3.org/2000/svg"
   xmlns:sodipodi="http://sodipodi.sourceforge.net/DTD/sodipodi-0.dtd"
   xmlns:inkscape="http://www.inkscape.org/namespaces/inkscape"
   version="1.1"
   x="0px"
   y="0px"
   width="171.26601"
   height="134.625"
   viewBox="-0.161 -0.355 171.26601 134.625"
   enable-background="new -0.161 -0.355 237 211"
   xml:space="preserve"
   id="svg2"
   inkscape:version="0.48.3.1 r9886"
   sodipodi:docname="ytknick_Email.svg"
   inkscape:export-filename="/home/matthieu/Bureau/Matthieu/Programmation/Lazarus Delphi/AncestroComponents/Resources/ytknick_Email.png"
   inkscape:export-xdpi="23.398329"
   inkscape:export-ydpi="23.398329"><metadata
   id="metadata25"><rdf:RDF><cc:Work
       rdf:about=""><dc:format>image/svg+xml</dc:format><dc:type
         rdf:resource="http://purl.org/dc/dcmitype/StillImage" /><dc:title></dc:title></cc:Work></rdf:RDF></metadata><sodipodi:namedview
   pagecolor="#ffffff"
   bordercolor="#666666"
   borderopacity="1"
   objecttolerance="10"
   gridtolerance="10"
   guidetolerance="10"
   inkscape:pageopacity="0"
   inkscape:pageshadow="2"
   inkscape:window-width="805"
   inkscape:window-height="949"
   id="namedview23"
   showgrid="false"
   inkscape:zoom="1.1184834"
   inkscape:cx="57.072135"
   inkscape:cy="104.855"
   inkscape:window-x="0"
   inkscape:window-y="74"
   inkscape:window-maximized="0"
   inkscape:current-layer="svg2"
   fit-margin-top="0"
   fit-margin-left="0"
   fit-margin-right="0"
   fit-margin-bottom="0" />
<defs
   id="defs4">
</defs>
<linearGradient
   id="SVGID_1_"
   gradientUnits="userSpaceOnUse"
   x1="148.6875"
   y1="80.375"
   x2="148.6875"
   y2="205.0005">
	<stop
   offset="0"
   style="stop-color:#CDAD2D"
   id="stop7" />
	<stop
   offset="1"
   style="stop-color:#917D2E"
   id="stop9" />
</linearGradient>
<polygon
   points="68.055,80.375 148.688,142.688 229.32,80.375 229.32,205 68.055,205 "
   id="polygon11"
   style="fill:url(#SVGID_1_)"
   transform="translate(-63.216,-75.73)" />
<polygon
   points="229.32,80.375 148.688,142.688 68.055,80.375 "
   id="polygon13"
   style="fill:#826a2a;stroke:#000000;stroke-width:5"
   transform="translate(-63.216,-75.73)" />
<rect
   x="4.8390002"
   y="4.645"
   width="161.26601"
   height="124.625"
   id="rect15"
   style="fill:none;stroke:#000000;stroke-width:10" />
<polyline
   points="68.055,80.375 148.688,142.688 229.32,80.375 "
   id="polyline17"
   style="fill:none;stroke:#000000;stroke-width:3"
   transform="translate(-63.216,-75.73)" />

<path
   d="m 108.53144,114.85644 c -9.88522,4.25217 -18.44784,5.46736 -30.143605,5.46736 -27.341664,0 -51.395616,-18.07323 -51.395616,-47.836339 0,-30.980338 24.382945,-57.861174 61.607613,-57.861174 28.993248,0 49.748438,18.376509 49.748438,43.88949 0,22.172724 -13.50632,36.144408 -31.30061,36.144408 -7.74566,0 -13.34293,-3.645578 -14.1621,-11.693959 h -0.33782 c -5.104901,7.747128 -12.514953,11.693959 -21.243168,11.693959 -10.713221,0 -18.452252,-7.287089 -18.452252,-19.742327 0,-18.529179 14.822294,-35.383128 38.549457,-35.383128 7.244443,0 15.482503,1.669106 19.604833,3.794171 l -4.94591,28.096027 c -1.65159,8.958253 -0.49681,13.05979 4.11791,13.21245 7.08548,0.152672 15.98151,-8.199007 15.98151,-25.663608 0,-19.742339 -13.84416,-35.079841 -39.368641,-35.079841 -25.206523,0 -47.282108,18.223847 -47.282108,47.227712 0,25.362356 17.624253,39.787969 42.17279,39.787969 8.401439,0 17.297479,-1.66912 23.881729,-4.70609 l 2.96755,8.65292 z M 93.86812,52.138549 c -1.32038,-0.303287 -2.967555,-0.606574 -5.1049,-0.606574 -10.867779,0 -19.441437,9.870147 -19.441437,21.562071 0,5.772677 2.806367,9.416233 8.235834,9.416233 6.098502,0 12.523779,-7.136474 14.007561,-15.946122 L 93.86812,52.138549 z"
   id="path21"
   inkscape:connector-curvature="0"
   style="fill:#822619;fill-opacity:1;stroke:#000000;stroke-width:3.36762595;stroke-miterlimit:4;stroke-opacity:1;stroke-dasharray:none" />
</svg>