/* XPM */
static char * 3_xpm[] = {
"16 16 13 1",
" 	c None",
".	c #000080",
"+	c #400000",
"@	c #0000FF",
"#	c #800000",
"$	c #C00000",
"%	c #402700",
"&	c #333333",
"*	c #FF0000",
"=	c #804D00",
"-	c #666666",
";	c #C07300",
">	c #FF9900",
"                ",
"       --       ",
"       ==       ",
"     -;;;=-     ",
"      %;>%      ",
"     -&##&      ",
"    &$****#&    ",
"    #$**+#$#    ",
"    ##**$*##    ",
"    ##****##    ",
"    %%. ..%%    ",
"     &@ @@&     ",
"     -@.@@-     ",
"     -@.@@-     ",
"     -@.@@-     ",
"          -     "};
