/* XPM */
static char * 4_xpm[] = {
"16 16 16 1",
" 	c None",
".	c #400000",
"+	c #800000",
"@	c #C00000",
"#	c #402700",
"$	c #333333",
"%	c #FF0000",
"&	c #404040",
"*	c #733333",
"=	c #804000",
"-	c #804D00",
";	c #735A33",
">	c #666666",
",	c #C07300",
"'	c #808080",
")	c #FF9900",
"      $         ",
"     $#,-       ",
"      ,,)#>     ",
"     $ -#       ",
"    *+.=.++     ",
"    +%%@+%%>    ",
"    ++%@++%>    ",
"    +++...%>    ",
"    ..'''&+>    ",
"    ;#%%%+-     ",
"     +%%%%>     ",
"     @%%%%*     ",
"    >+++++.     ",
"      --)>      ",
"      --)>      ",
"     >   >      "};
