/* XPM */
static char * person_xpm[] = {
"16 16 29 1",
" 	c None",
".	c #B30000",
"+	c #C00000",
"@	c #E60000",
"#	c #FF0000",
"$	c #5A3333",
"%	c #733333",
"&	c #804000",
"*	c #4D4D4D",
"=	c #5A5A5A",
"-	c #FF4000",
";	c #666666",
">	c #737333",
",	c #737373",
"'	c #808000",
")	c #A68000",
"!	c #808080",
"~	c #C08000",
"{	c #CC8000",
"]	c #8D8D8D",
"^	c #FF8000",
"/	c #999999",
"(	c #FF8080",
"_	c #B3B3B3",
":	c #E6C000",
"<	c #C0C0C0",
"[	c #E6E6E6",
"}	c #FFFF00",
"|	c #FFFF80",
"                ",
"      /,,/      ",
"      ! [*      ",
"      =[_*      ",
"     ,~**%/     ",
"     '|(^^&     ",
"     '}}|-      ",
"     '}}}#      ",
"     '}}}#      ",
"     ;}}}@$     ",
"     ;}{:.=     ",
"     ;}{^#*/_   ",
"     ;}{^#*///_ ",
"     ;}{^#*///_ ",
"     />)^+,/_   ",
"       /;]_<    "};
