/* XPM */
static char * tiatitle_xpm[] = {
"123 55 256 2",
"  	c None",
". 	c #00BDCA",
"+ 	c #00BFBF",
"@ 	c #02BEC5",
"# 	c #00C0C0",
"$ 	c #00BFCB",
"% 	c #00C1BA",
"& 	c #00C1C1",
"* 	c #00C0CC",
"= 	c #00C2BC",
"- 	c #00C1CD",
"; 	c #12BCCA",
"> 	c #00C4B1",
", 	c #00C2CE",
"' 	c #00C4BD",
") 	c #15BDCB",
"! 	c #00C5BE",
"~ 	c #00C7AD",
"{ 	c #19BECC",
"] 	c #00C5D1",
"^ 	c #00C6CC",
"/ 	c #09C6B3",
"( 	c #15C3B6",
"_ 	c #00C7CD",
": 	c #1EC0BB",
"< 	c #13C2C8",
"[ 	c #00C7D4",
"} 	c #00C8CE",
"| 	c #1CC0CD",
"1 	c #00C9C8",
"2 	c #16C3C9",
"3 	c #00C9CF",
"4 	c #0EC6C6",
"5 	c #0EC8B4",
"6 	c #17C7A7",
"7 	c #1FC1CE",
"8 	c #1AC4CB",
"9 	c #1AC8A8",
"0 	c #21C2CF",
"a 	c #00CDCB",
"b 	c #23C6AC",
"c 	c #1DC5CC",
"d 	c #0CCBC4",
"e 	c #1CC9A9",
"f 	c #00CECC",
"g 	c #2CC4B2",
"h 	c #25C3D1",
"i 	c #00CFCD",
"j 	c #26C7AE",
"k 	c #0DCEB3",
"l 	c #1FCAAA",
"m 	c #00D0CE",
"n 	c #00D1C9",
"o 	c #23CB9E",
"p 	c #06D0C2",
"q 	c #00D1CF",
"r 	c #28C5D3",
"s 	c #2CC9A3",
"t 	c #1DCACA",
"u 	c #00D2D1",
"v 	c #00D4BF",
"w 	c #00D3D2",
"x 	c #2FCAA4",
"y 	c #00D4CC",
"z 	c #20CBCB",
"A 	c #2ACE94",
"B 	c #2CC7D5",
"C 	c #00D5CD",
"D 	c #30CBA5",
"E 	c #29CEA1",
"F 	c #22CCCC",
"G 	c #33CC9A",
"H 	c #00D6CE",
"I 	c #22CEBA",
"J 	c #19D1B7",
"K 	c #13D3C5",
"L 	c #2FC9D6",
"M 	c #00D8CF",
"N 	c #1DD0C9",
"O 	c #36CF90",
"P 	c #00D9D0",
"Q 	c #3DCD95",
"R 	c #26D0BD",
"S 	c #32CAD8",
"T 	c #00DAD1",
"U 	c #1FD4B9",
"V 	c #2CD1B1",
"W 	c #38D09D",
"X 	c #22D2CB",
"Y 	c #31D2A5",
"Z 	c #34CCD9",
"` 	c #00DDCD",
" .	c #3AD386",
"..	c #07DBD2",
"+.	c #24D3CC",
"@.	c #41D18B",
"#.	c #00DECE",
"$.	c #37CDDB",
"%.	c #00DFCF",
"&.	c #42D198",
"*.	c #31D4B3",
"=.	c #3CD494",
"-.	c #2ED2D2",
";.	c #43D481",
">.	c #49D286",
",.	c #43CCD4",
"'.	c #02E0D1",
").	c #3DD688",
"!.	c #4BD293",
"~.	c #3FD5A2",
"{.	c #45CED6",
"].	c #46D58F",
"^.	c #25D9CB",
"/.	c #4BD67C",
"(.	c #09E1D2",
"_.	c #46CFD7",
":.	c #41D797",
"<.	c #00E5CE",
"[.	c #47D59C",
"}.	c #30DAB2",
"|.	c #3BD99F",
"1.	c #00E6CF",
"2.	c #34D6D6",
"3.	c #48D0D8",
"4.	c #28DBCC",
"5.	c #52D778",
"6.	c #48D985",
"7.	c #02E7D0",
"8.	c #49D1D9",
"9.	c #0FE3D3",
"0.	c #2ADCCD",
"a.	c #50D88C",
"b.	c #45DA9A",
"c.	c #4BD2DA",
"d.	c #58D972",
"e.	c #55D885",
"f.	c #14E4D4",
"g.	c #4CD3DB",
"h.	c #09E8D1",
"i.	c #23E3B9",
"j.	c #31E1A5",
"k.	c #5DDA6D",
"l.	c #37DEB6",
"m.	c #2FE1B1",
"n.	c #00EDCF",
"o.	c #5CDA81",
"p.	c #5AD2DB",
"q.	c #4BD7D8",
"r.	c #59DB88",
"s.	c #43DFA4",
"t.	c #2BE2CD",
"u.	c #63DC68",
"v.	c #11EAD2",
"w.	c #5BD3DC",
"x.	c #62DB7C",
"y.	c #68DD63",
"z.	c #5DD4DD",
"A.	c #46E29A",
"B.	c #08EFD0",
"C.	c #60DD84",
"D.	c #5ED5DE",
"E.	c #64DD7E",
"F.	c #19EBD4",
"G.	c #5FD6E0",
"H.	c #69DE78",
"I.	c #5CD8DB",
"J.	c #0FF0D1",
"K.	c #6DE05E",
"L.	c #61D8E1",
"M.	c #72E158",
"N.	c #6BE07A",
"O.	c #14F1D3",
"P.	c #6EE073",
"Q.	c #51E597",
"R.	c #75E252",
"S.	c #5FE483",
"T.	c #56E785",
"U.	c #5CE58A",
"V.	c #63DAE3",
"W.	c #73E16F",
"X.	c #76E353",
"Y.	c #18F2D4",
"Z.	c #65E57D",
"`.	c #0CF7D1",
" +	c #77E454",
".+	c #1CF3D5",
"++	c #61E879",
"@+	c #70D9E4",
"#+	c #7BE54D",
"$+	c #4AEBA8",
"%+	c #12F8D2",
"&+	c #79E46B",
"*+	c #20F4D6",
"=+	c #72DBE6",
"-+	c #7FE847",
";+	c #17F9D3",
">+	c #7DE665",
",+	c #82E93F",
"'+	c #6EE97B",
")+	c #7ADCE1",
"!+	c #7FE766",
"~+	c #34F4D0",
"{+	c #7BDDE3",
"]+	c #73EB76",
"^+	c #8BE760",
"/+	c #14FFD2",
"(+	c #7CDFE4",
"_+	c #71ED7E",
":+	c #5CF295",
"<+	c #8FE95B",
"[+	c #86EB63",
"}+	c #76EE79",
"|+	c #24FDD7",
"1+	c #67F288",
"2+	c #7DEF6C",
"3+	c #93EB56",
"4+	c #97EF26",
"5+	c #96EF33",
"6+	c #5BEFE1",
"7+	c #89EF66",
"8+	c #87EF6D",
"9+	c #8AE2E8",
"0+	c #98EE50",
"a+	c #8BF168",
"b+	c #84F369",
"c+	c #80E8E5",
"d+	c #A0EE52",
"e+	c #96E3EB",
"f+	c #A4F04B",
"g+	c #A7F144",
"h+	c #9EE6E9",
"i+	c #B0F246",
"j+	c #B2F715",
"k+	c #A7E6EA",
"l+	c #B6FA00",
"m+	c #B3F53F",
"n+	c #B8F838",
"o+	c #ABEAEE",
"p+	c #BFF83A",
"q+	c #C2F930",
"r+	c #B4EAF0",
"s+	c #CCFF00",
"t+	c #C5FC34",
"u+	c #B7EEF3",
"v+	c #CEFC29",
"w+	c #BDEFEE",
"x+	c #D2FF1D",
"y+	c #C6EFF1",
"z+	c #C8F2F3",
"A+	c #D4F5F9",
"B+	c #DDF6FB",
"C+	c #E4F9F8",
"D+	c #ECF9FA",
"E+	c #EFFCFD",
"F+	c #F8FDFF",
"G+	c #FEFFFC",
"                                                                                                                                  ; ; ; ; ;                                                                                                           ",
"                                                                                                                            ; ; ; ; ; ; ; ; ; ;                                                                                                       ",
"                                                                                                                          ; ; ; ; ; ; ; ; ; ; ; ;                                                                                                     ",
"                                  ; ; ; ; ;                                                                             ; ; ; ; $ a a p I a z ; ; ;                                                                                                   ",
"                          ; ; ; ; ; ; ; ; ; ; ;                                                                       ; ; ; ; 3 J ^+C.o.3+f+P.N - ; ;                                                                                                 ",
"                  ; ; ; ; ; ; ; ; ; ; ; ; ; ; ; ; ;                                               ; ; ; ; ; ; ; ;     ; ; ; 3 ].d+x ; ; ; $ ].E.a 8 ; ;                                                                                               ",
"            ; ; ; ; ;   ; ; ; ; ; C M M M ..` 3 ; ; ;           ; ; ; ; ; ;                   ; ; ; ; ; ; ; ; ; ; ; ; ; ; 8 I d+@ ; 8 t t $ ; @ 0+f ; ;                                                                                               ",
"        ; ;             ; ; ; } #.} 3 a t t - C M ; ; ; ; ; ; ; ; ; ; ; ; ; ; ; ; ;         ; ; ; ; ; 8 C C +.z ; ; ; ; ; f !.+ ; t t a F z 8 ; e.C.} ;                                                                                               ",
"    ; ;               ; ; ; 8 ` 8 a - ; ; ; 3 z } ` ; ; ; ; ; ; ; ; ; ; ; ; ; ; ; ; ; ;   ; ; ; ; } C f $ - $ 8 C f ; ; ; I 3+; } a t ; $ q z ; $ f+z ;                                                                                               ",
"; ;                   ; ; ; %.8 t ; ; 8 f $ ; $ a f a ; ; ; ; ; ; ; ; ; ; ; ; ; ; ; ; ; ; ; ; ; } q } ^.^.M M ^.+.8 C ; - b.x.; a f ; ; ; $ a 3 ; f+a ; ;                                                                                             ",
";                     ; ; f t f ; ; M $ $ t } ; c 8 #.; ; ; ; ; ; ; ; ; ; ; ; ; ; ; ; ; ; ; ; 8 X t ` C C f q C X M 8 X $ |.x.; t a ; ; ; ; z t ; E a ; ;                                                                                             ",
"                    ; ; ; M $ 3 ; X ; r ] 7 8 f ; z H - ; ; ; ; ; ; ; ; ; ; ; ; ; ; ; ; ; ; ; H 8 #.M $ ; ; ; ; f X H C ; V !+; } f 8 ; ; z a $ $ 3+t ; ; ; ; ; ;                                                                                     ",
"    ; ; ;           ; ; ; ` t ; ; 8 ; E+G+)+; $ ; z z t ; ; ; ; ; ; ; ; ; ; ; ; ; ; ; ; ; ; $ C M C $ ; C %.#.8 ; M #.- f a l % ; f a a a f } ; W W.a ; ; ; ; ; ; ; ;                                                                                 ",
"  ; ; ; ; ;         ; ; ; ` t ; 8 f ; F+G+)+; M ; a } f ; ; ; ; ; ; ; ; ; ; ; ; ; ; ; ; ; ; } } ^.C ; +.a ; $ %.; t M 3 +.8 ~.^+; ; 3 a a 8 ; : f+p ; 8 M 7.h.q ; ; ; ;                                                                               ",
"; ; ; ; ; ; ;       ; ; ; ^.8 ^ ; 8 ; _.8.r 8 $ ; a M 8 ; ; ; ; ; ; ; ; ; ; ; ; ; ; ; ; ; ; 3 } M +.; #.; ; ; #.; 8 M t +.; z H.<++ ; ; ; ; D E Y } F..+%.+.q h.~+h.; ; ;           ; ; ; ; ; ; ; ; ; ; ;                                             ",
"; ; ; ; ; ;           ; ; C } f ; z 8 $ ; $ f ; - 3 #.; ; ; ; ; ; ; ; ; ; ; ; ; ; ; ; ; ; ; } 1 Q.}.$ f f ; - %.; t H 3 C ; ; a [.f+/ x.W.0+^+I X %+M ; ; $ $ ; ; %.*+8 ;       ; ; ; ; ; ; ; ; ; ; ; ; ; ; ; ; ;                                     ",
"  ; ; ; ; ;           ; ; ; %.8 } ; $ q 8 f ; ; f t C } t 8 ; ; ; ; ; ; ; ; ; ; ; ; ; ; ; : !.U.}+[+N.; C ^.#.- ; C #.- q ; ; ; ^ a n s.i.K q $ `.} ; a a 3 } a 3 ; a .+; ;   ; ; ; ; ; 7 8.8.3.3.7 ; ; ; ;   ; ; ; ;                                 ",
"                        ; ; t H } a ; ; ; ; 8 a 8 %.f a a f a ; ; ; ; ; ; ; ; ; ; D ].[.^+W.&.j.r.b+8+' ; ; ; ; f X H C $ ; ; ; ; 8 ^ 8 ; ; C h.M ; f - C +.+.X - t ; F.C ; ; ; ; ; B g.8.r S D.z.8.g.S ; ; ;         ; ;                             ",
"                        ; ; ; a #.8 t t a a } a #.f f $ ; c t t ; ; 8 8 ; ; ; ; &.3+&+C.; ; ; 8 +.3 l.a+Q.q q C +.` ^ q - } } } } C ; - ^ - ; ;+; 3 8 M ^ 8 8 } M ^ 8 $ *+; ; ; ; D.3.h+E+D.z.h+o+D+e+{.w.; ; ;           ;                           ",
"; ;                     ; ; ; ; - ` #.H C M ` a $ f } ; ; ; a a a #.M H %.c ; ; e.!+l ; ; ; ; ; } X ^ ` a+m.^.#.X 8 +.} ^ } } } } q } M /+%.8 .+; a q } ; ; ; - t 3 t ; *+; ; ; D.g.D+)+7 ; ; ; ; , )+D+B w.; ;             ; ; ; ;                   ",
"; ; ;                   ; ; ; ; ; ; ; 8 8 ; ; ; - +.$ ; ; ; t y ^.a 8 3 f %.$ ; E x.; ; $ x.g+n+3+Y C f + <+E V C f ^ 8 t ; ; ; ; M ^ M Y.H X Y.; t +.c ; ; ; ; c +.t ; .+$ ; p.c.D+S ; ; ; ; ; ; ; ; ] S 8.8.; ;             ;   ; ; ; ;             ",
"; ; ;       ; ;   ;     ; ; ; ; ; ; ; ; ; ; ; ; ; z a ; ; - a f.f } t f } f +.; <+@ ; $ f+x+x+x+x+x+!.8 +.A.'+S.; ; 3 t ; ; f q ; a f t ; ; } Y.; t +.c ; ; ; ; } f t ; *+$ 7 ,.@+S ; ; h g.c.c.p.7 ; ; {.D+8.) ;                         ; ;         ",
"; ;         ; ; ;   ;   ; ; ; ; ; 8 7.F.F.M ; ; ; } f f a t f #.a z ; ; t t ` + W.; ; C.x+m+D % x.x+t++ ; + W.<+; } ^ 8 ; 7./+/+h.; } M t } a .+; a - C ^ $ - } C - t ; *+; c.D.c.; ; B {.c.8.c.8._.B ; ; u+D.3.; ;     ; ;     ;             ;       ",
"              ;     ;   ; ; ; ; h.F.t ; ; M O.+.; ; - a a t ; M f } a f 8 y q x a.; ; d+x+E ; ; ; 3+x+&.; ; !+x ; 3 3 ; $ |+/+/+|+$ ; a t } ; O.a ; a 3 C f f H ^ f ; +.h.; g.B+$.; ) c.D.; ; ; ) z.g.; ; 8.z+c.; ;   ; ; ; ;                   ;     ",
"                    ;   ; ; ; h.H $ } } } } ; h.C ; ; ; ; ; ; 8 #.+.a 3 a %.; :.&.; ; i+x+g ; ; ; &+x+].; ; &+; ; } } $ ; O./+/+O.; $ ^ } ; ; 8 *+; - f - 8 8 8 a $ 8 %+$ ) w.D+; ; 3.{.7 ; ; ; ; ] $._.; ; F+p.; ;   ; ; ; ;   ;                 ;   ",
"                    ; ; ; ; +.%.- 3 ^ f f c a ; n.; M ^.f ; 8 } M 7.t.f.%.8 E W.H.; ; !+x+W.; ; ' q+x+e ; ; &+; ; ; } 3 ; 8 %.%.^ ; 3 } ; ; ; ; %.O.- ; } t a } ; 8 `.f ; ; w.D+; ; c.3.; ; ; ; ; ; c.c.; ; F+p.; ;   ; ; ; ; ;                       ",
"                  ;   ; ; ; n.$ 3 a f c c C @ } M F.} ; +.X t } $ ; - } 3 8 @ 3+^+; ; j v+x+d+!+q+x+3+; ; ( P.; ; ; } c 8 ; ; ; ; 8 ^ M f.%.$ q 8 #.%+#.8 ; ; $ f.`.f ; ; ; w.D+; ; c.8.; ; ; ; ; ) 8.c.; ; B c.; ;     ; ; ;                       ; ",
"              ; ;     ; ; ; F.; 3 q - ; ; } q 3 ; *+; ; 8 1.8 a %.%.#.f 8 a ; 3+&+j ; ; W p+x+x+x+<++ ; ; !+> ; ; ; ; a 8 3 3 3 3 ^ F.C a +.+.C a +.7.%.O..+Y.O.#.; - - ; ; g.S ; ; ] $.8.; ; ; ; g.{.7 ; r z+c.; ;                         ;       ; ",
"        ; ; ; ; ; ; ; ; ; ; F.; } C ; ; ; 8 f 3 ; `.; ; f #.q M 8 ; c %.8 t } I K 1+^.X } @ E ]./ ; ; ; D Z.v z t t a t } } 3 3 } } c C 8 ; ; ; ^ M t 1.$ ; ; ; t a 3 3 a t g.)+)+; ; w.S p.B B g.S g.; ; 9+9+c.;                         ; ; ;     ; ",
"; ; ; ; ; ; ; ; ; ; ; ; ; ; n.; } f 3 ; - z t 3 3 h.#.#.%.} M } f n.3 3 ` f %.M f V ]+n M M 8 ; ; ; ; W '+2+*.t t t t } f - ; ; ; 8 +.; ; { h ) ; ; C 3 } ; ; f $ ; ; ; ; - 2.8.C+) ; ; 8.8.,.,.c.3.; ; 7 D+8.r ;                           ;         ",
"                    ; ; ; ; %.f c 8 f +.C 3 t $ F.8 ; ; 3 } ^.} M |+a 3 #.%.C ; q M k 1+:.d M 8 $ j W.Q.]+b.; t C a $ 8 f f $ - M +.; ; @+E+G+D+D.; ; C f ; } - ; ; ; ; ; ; 8 I.k+u+) ; ; ; B B ; ; ; { z+9+w.;                                       ",
"                  ; ; ; ; ; $ Y.@ 8 3 3 3 t - H h.; ; ; 3 } f C ; ; - M f.+.q ^ C q 8 M $+&+]+:+!+C.J } ^ } 7.#.H ` 7.z $ z a M 3 f ; c.G+G+G+G+G+$.; q $ ; a ; ; ; a t ; ; ; -.g.k+u+7 ; ; ; ; ; ; ; w+e+g.7 ;             ; ; ;                     ",
"                  ; ; ; ; ; ; ^ O.f ; ; ; ; %.F.; ; ; ; 8 3 $ ^.^.C #.#.M a %.f ; ; ; $ S.1+[+C t ; t z $ 7.f - ; $ f f.^ t } f.3 8 ; o+G+G+G+G+G+k+; 3 t ` a ; ; } 8 } 8 ; ; a 7 c.9+9+S 3.S S 8.r+c.3.g., ;             ; ; ; ; ;                   ",
"                ; ; ; ; ; ; ; ; - <.n.n.n.n.+.; ; ; ; ; ; } 3 8 $ t 8 ^.H f f ; ; 8 $ ; ; M C } M - t } M C $ - 8 $ ; f f.; t 7.3 8 ; r+G+G+G+G+G+o+; 3 t ` a ; ; ; f f ; ; ; a ; 7 g.{.c.y+z+z+y+L.8.c.7 ; ;             ; ; ; ; ;                   ",
"; ;             ; ; ; ; ; ; ; ; j x % ; ; ; ; ; ; ; 7 g.w.w.2.z } } } f.} q 3 ; } /+/+f ; } } ; #.t t ; f.z ; M /+h.; a %.; t M 8 a ; L.G+G+G+G+G+z.; f t M t ; ; ; ; ; ; ; $ t ; ; ; 7 g.c.c.c.c.c.{ ; ; ; ;             ; ; ; ; ;                   ",
"; ;             ; ; ; ; ; ; E #+K.K.M.M.+ ; ; ; , D.)+_.,.,.g.=+q.} ^ ` $ H +.; t /+/+a ; a +.; #.t t ; t.z ; ^.|+7.; t <.; t f t C ; ; k+G+G+G+e+; ; +.#.- ; f ; ; ; ; ; ; f ; ; ; ; ; ; ; ; ; ; ; ;     ; ;               ; ; ;                     ",
"; ;             ; ; ; ; ; 6 #+O ( ; 9  .#+; ; , )+,.; 7 B B ; 7 z.D.; M 8 f } ; - +.M 8 ; C M - ..- t ^ M M $ ; ; $ ; q %.; t t t 3 a ; ; B c.r ; ; f ^ } ; ; - f 8 ; ; 8 f $ ; ; ; ; ; ; ; ; ;           ; ; ;                 ;                     ",
"; ;             ; ; ; ; ; #+@.; j > + : k.A { )+B 7 $.B ) { ,.S ; D.D.a C ; M } ; ; ; ; } 8 } C a ; a a ; h.X 8 ; - f f.8 t t $ } f.t q ; ; ; ; $ +.} N O K.K.K.M.6.a z 8 ; ; ; ; ; ; ; ; ; ;               ; ; ; ;         ; ;                       ",
";             ; ; ; ; ; ; X.A ; j+s+R.; A M.w.{.{ {.; ; ; ; ; 7 ,.; )+, ..- f #.^ } c M 7.#.t ` - ; } } } 8 7.%.M %.7.3 8 } f ; ; } 7.3 q q X +.+.t T.X.@.$ ; ; ; G M.d.; ; ; ; ; ; ; ; ; ; ;               ;     ; ; ; ; ;                           ",
"            ; ; ; ; ; ; ; R.W ; l+s+K.; Q R.)+7 ,.; ; ; ; ; ; ; B 7 ,.D.t ` - - z n.F.` ^.C h.7.+.; ; f } 3 ; 8 f } ; 7.%.q ; ; - C H 7.+.z } M <.++ .% O O A A A A > G y.; ; ; ; ; ; ; ; ;                 ;                                         ",
"            ; ; ; ; ; ; ; #+A ; O >.x $ d.x.V.; $.; ; 7 9+L.; ; ; $.r L.; t M q %.f a 8 X M C z f M ; ; a 3 t 3 a %.1.<.h.+.; $ M } ^ 8 } M $ 8 ;. .j W ; ; ; ; ; ; x x G y.; ; ; ; ; ; ; ;                 ;                                         ",
"            ; ; ; ; ; ; ; Q K.W $ ; : ].,+4 L.; ,.; ; L.G+A+; ; ; ,.h L.; ; } h.7.%.#.#.f 8 ; ; } f M ; ; } 1.%.f.f a } $ q %.C 3 ; ; ; - f } + K.> E ; $ x % u.$ @ ; 9 9 k.j ; ; ; ; ; ;                   ;                                         ",
"              ; ; ; ; ; ; ; ;. +d./.u.-+> 7 @+; ,.; ; { h+@+; ; ; S r L.; ; C f 8 ; ^ #.` #.^.$ ; z M 8 ; %.%.t ; ; ; ; ; ; - n.} $ ; ; ; 8 +./.x O ; $ % A ; ; + k.; ; O : y.; ; ; ; ; ;                   ;                                         ",
"                    ; ; ; ; ; +  ./.A ; ; ; )+, ,.; ; ; ; ; ; ; r 7 $.z.; ; #.a ; 8 #.a t t f %.; ; f M ; +.H ; ; q `.O.%.^ ; M 1.%.; ; ; t a X.+ G ; 5.( ; ; ; ; ; A ; j 6 M.$ ; ; ; ;                     ;                                         ",
";                 ;   ; ; ; ; ; ; ; ; ; ; ; p.$.7 ,.; ; ; ; ; { ,.; )+7 ; 8 M } ; ^.f ^ z f } C a ; a ^.; %.; ; %./+;+;+/+O.; 8 h.F.- $ ^ M ; K.G @ ; $ ; ; 4+5+j ; O ; ; A y.@ ; ; ;                       ;                                         ",
"; ; ; ; ; ; ; ;         ; ; ; ; ; ; ; ; ; ; { )+] 7 $.] ; ; S S ; p.L.; ; 8 M } ; ` t t ; ; z f M ; t ` ; #.; ; |+Y.- ; #./+M ; M %.f C H 8 ; K.G @ ; K.; $ s+s+j ; E $ ; A u.+ ; ;                       ; ;                                         ",
";                           ; ; ; ; ; ; ; ; ; ] )+S ; 7 S S ; 7 g.@+; ; ; 8 M } ; ` a t ^ t ^ C C ; t ` ; #.; } /+#.; ; ^ /+%.; ^ C 8 - ; ; ; K.x % ; + ; $ /.d.+ ; ;.; ; A u.+ ;       ; ; ;             ;                                           ",
"                                            ; ; 7 L.=+$.,.,.8.c+6+; $ 8 7.t M a ; t y f ^ ^ f %.$ ; q %.^ #.; } |+Y.; ; M /++.; f a ; ; ; ; ; M.@ A ; 9 ;.; ; ; ; A : ; E + X.;         ; ; ;             ;                                           ",
"                                              ; ; ; 7 w.w.w._.$ t f t f a ; M f ; ; C ..+.M %.f a q ^.f h.7.8 ; ../+;+O./+%+8 ; ` $ ; ; ; ; ; G >.A $ ; $ ;.> 6 ~ G ; ; @.x 5.;         ; ; ;           ;                                             ",
";                                                 ; ; ; ; ; ; 3 ^ ; ; ; 8 z 8 ` f ; ; $ a t f 8 t M h.a M t.^.t ; %.n.|+7.- ; 8 %.8 ;     ; ; ;  ++  .$ ; @ + 9 + ; ; ].+ X.+ ;                         ;                                             ",
";                                                     ; ; ; f f ; ; ; ; ; f M f M f 8 ; ; a $ M q %.- ; ; ^ 1.a 3 ; ; ; ; ; $ f.7.- ;       ; ; ~ R.@ ].j ; ; ; ; > ].: u.E ;                         ;                                               ",
"                            ; ; ; ; ;                 ; ; ; 7.a ; ; ; ; ; a M - t #.C t q q ^.M #.- ; ; ; ; $ %.%.8 ; ; ; f %.M a ;           ; ; j R.% > A A A O 6 + y.G ;                       ; ;                                                 ",
"                            ; ; ; ; ;               ; ; ; ; a f ; ; ; ; ; f ; ; ; ; a #.<.%.%.c ; ..*+Y.X ; ; 3 t h.%.#.#.f ; ; ;               ; ; ( u.M.O E E G y.y.> ;                 ; ; ; ;                                                     ",
"                          ; ; ; ; ; ;               ; ; ; ; ; $ q $ ; ; f - ; ; ; ; ; ; a a ; ; C /+/+/+/+3 ; ; a %.f.8 ; ; ; ;       ; ; ; ;     ; ; ; @ A ].].O @ ; ;                                                                               ",
"                          ; ; ; ; ; ;             ;     ; ; ; $ a a f f t ` ; ; ; ; ; $ 3 z ; ; O./+/+/+/+%.; ; t z ; ; ; ;           ; ; ;           ; ; ; ; ; ; ; ;                                                                                 "};
