/* XPM */
static char * txafrance_xpm[] = {
"44 43 96 2",
"  	c None",
". 	c #013896",
"+ 	c #CF142B",
"@ 	c #CF152C",
"# 	c #CF162D",
"$ 	c #D0172D",
"% 	c #D0182E",
"& 	c #D01930",
"* 	c #D11C33",
"= 	c #D11D33",
"- 	c #D11E34",
"; 	c #D11F34",
"> 	c #D22035",
", 	c #D22136",
"' 	c #D2233A",
") 	c #D3243A",
"! 	c #D2253A",
"~ 	c #D3273C",
"{ 	c #D32A3E",
"] 	c #D32B40",
"^ 	c #D42B3F",
"/ 	c #D52E42",
"( 	c #D53246",
"_ 	c #D63347",
": 	c #D63549",
"< 	c #D6374A",
"[ 	c #D6374B",
"} 	c #D6384B",
"| 	c #D7384B",
"1 	c #D63B4E",
"2 	c #D73E51",
"3 	c #D83E51",
"4 	c #D84153",
"5 	c #D94255",
"6 	c #D94355",
"7 	c #D84455",
"8 	c #D94457",
"9 	c #D94658",
"0 	c #D9495B",
"a 	c #DA495B",
"b 	c #D94A5B",
"c 	c #DA4A5C",
"d 	c #DA4B5D",
"e 	c #6769A3",
"f 	c #DA4E5F",
"g 	c #DB4E5F",
"h 	c #DB4F61",
"i 	c #DA5061",
"j 	c #DB5061",
"k 	c #DC5061",
"l 	c #DC5364",
"m 	c #DC5464",
"n 	c #5E72AE",
"o 	c #DC5566",
"p 	c #6174AF",
"q 	c #6175AF",
"r 	c #DC5868",
"s 	c #DD5968",
"t 	c #DD5A6B",
"u 	c #DD5D6D",
"v 	c #DF5F6F",
"w 	c #DF6070",
"x 	c #E06373",
"y 	c #E06877",
"z 	c #8B81AD",
"A 	c #EA9AA4",
"B 	c #EFAEB6",
"C 	c #F1BAC1",
"D 	c #F2BDC4",
"E 	c #F3C3C9",
"F 	c #F3C5CA",
"G 	c #F3C5CB",
"H 	c #F3C6CB",
"I 	c #F4CBD0",
"J 	c #F5CDD2",
"K 	c #F5CFD3",
"L 	c #F6D4D8",
"M 	c #F7D7DB",
"N 	c #F7D8DC",
"O 	c #F8DBDE",
"P 	c #F8DCE0",
"Q 	c #F9DFE2",
"R 	c #FAE9EB",
"S 	c #FBEAEC",
"T 	c #FBEBED",
"U 	c #FCEEF0",
"V 	c #FCEFF0",
"W 	c #FCEFF1",
"X 	c #FCF1F2",
"Y 	c #FDF4F5",
"Z 	c #FDF5F6",
"` 	c #FDF6F7",
" .	c #FDF8F8",
"..	c #FEF8F9",
"+.	c #FFFEFE",
"@.	c #FFFFFF",
"                                        E M C                                           ",
"                                        @.@.U                                           ",
"                                      F @.@.@.@.P                                       ",
"                                      F @.@.@.@.@.X                                     ",
"                                      D @.@.@.@.@.@.@.G                                 ",
"                                    N @.@.@.@.@.@.@.@.Q J x                             ",
"                              z W @.@.@.@.@.@.@.@.@.@.@.@.8 o                           ",
"                  . .         e Z @.@.@.@.@.@.@.@.@.@.@.@.} + 6 l v                     ",
"                  . . . . . . n @.@.@.@.@.@.@.@.@.@.@.@.@.} + + + + )                   ",
"                    . . . . . p @.@.@.@.@.@.@.@.@.@.@.@.@.} + + + + + , 3 4 w           ",
"                    . . . . . p @.@.@.@.@.@.@.@.@.@.@.@.@.} + + + + + + + + + 9         ",
"    . . . .         . . . . . p @.@.@.@.@.@.@.@.@.@.@.@.@.} + + + + + $ + + [           ",
". . . . . . . . . . . . . . . p @.@.@.@.@.@.@.@.@.@.@.@.@.} + + + + + + + + o           ",
"  . . . . . . . . . . . . . . p @.@.@.@.@.@.@.@.@.@.@.Y  .} + + + + + + + @             ",
"  . . . . . . . . . . . . . . p @.@.@.@.@.@.@.@.@.@.@.@.@.} + + + + + + + =             ",
"      . . . . . . . . . . . . p @.@.@.@.@.@.@.@.@.@.@.@.@.} + + + + + + + _             ",
"          . . . . . . . . . . p @.@.@.@.@.@.@.@.@.@.@.@.@.} + + + + + + { |             ",
"              . . . . . . . . p @.@.@.@.@.@.@.@.@.@.@.@.@.} + + + + + &                 ",
"                . . . . . . . p @.@.@.@.@.@.@.@.@.@.@.@.@.} + + + + + k                 ",
"                . . . . . . . p @.@.@.@.@.@.@.@.@.@.@.@.@.} + + + + f                   ",
"                  . . . . . . p @.@.@.@.@.@.@.@.@.@.@.@.@.} + + + (                     ",
"                    . . . . . p @.@.@.@.@.@.@.@.@.@.@.@.@.} + + + h   0                 ",
"                      . . . . p @.@.@.@.@.@.@.@.@.@.@.@.@.} + + + 1 + c                 ",
"                      . . . . q @.@.@.@.@.@.@.@.@.@.@.@.@.} + + + + + =                 ",
"                      . . . . q @.@.@.@.@.@.@.@.@.@.@.@.@.} + + ; + + 2                 ",
"                        . . . q @.@.@.@.@.@.@.@.@.@.@.@.@.} + + + + + + t               ",
"                      . . . . q @.@.@.@.@.@.@.@.@.@.@.@.@.} + + + + + + j               ",
"                      . . . . q @.@.@.@.@.@.@.@.@.@.@.@.@.} + + + + + i                 ",
"                      . . . . q @.@.@.@.@.@.@.@.@.@.@.@.@.} + + + + + :                 ",
"                      . . . . q @.@.@.@.@.@.@.@.@.@.@.@.@.} + + + + * '                 ",
"                      . . . . q @.@.@.@.@.@.@.@.@.@.@.@.@.} + + + + % !                 ",
"                      . . . . q @.@.@.@.@.@.@.@.@.@.@.@.@.} + + + + + + / m             ",
"                      . . . . q @.@.@.@.@.@.@.@.@.@.@.@.@.} + + + + + + + /             ",
"                    . . . . . q @.@.@.@.@.@.@.@.@.@.@.R ` } + + + + + + <               ",
"                    . . . . . q @.@.@.@.@.@.@.@.@.K     y a - # + + + 5                 ",
"                      . . . . q @.@.@.@.@.@.@.+.G             g ] > 1                   ",
"                        . . . q ..V @.@.@.@.@.S                                         ",
"                                B     I Z @.@.T                                     u b ",
"                                        A L O H                                   7 + ^ ",
"                                                                                  ~ + - ",
"                                                                                  d + c ",
"                                                                                  r + s ",
"                                                                                    a   "};
